<?xml version="1.0" encoding="utf-8"?><svg id="block-animation" image-rendering="auto" baseProfile="basic" version="1.1" x="0px" y="0px" width="76" height="73" xmlns="http://www.w3.org/2000/svg" xmlns:xlink="http://www.w3.org/1999/xlink"><defs><g id="block" overflow="visible"><path fill="#ED6D68" stroke="none" d="M32.05 .55Q31.5 0 30.65 0L15 0Q14.15 0 13.55 .55 13 1.15 13 2L13 4.3 32.65 4.3 32.65 2Q32.65 1.15 32.05 .55Z"/><path fill="#ED6D68" stroke="none" d="M63.15 4.3L63.15 2Q63.15 1.15 62.55 .55 62 0 61.15 0L45.45 0Q44.6 0 44.05 .55 43.45 1.15 43.45 2L43.45 4.3 63.15 4.3Z"/><path fill="#ED6D68" stroke="none" d="M76 6.35L0 6.35 0 72.95 76 72.95 76 6.35Z"/><use xlink:href="#octo" transform="translate(25.55 27.4)"/></g><g id="octo" overflow="visible"><path fill="#FFF" stroke="none" d="M23.75 9.4L23.75 5.6 19.2 5.6 19.9 0 15.95 0 15.25 5.6 10.15 5.6 10.8 0 6.9 0 6.2 5.6 1.15 5.6 1.15 9.4 5.75 9.4 5 15.1 0 15.1 0 18.9 4.55 18.9 3.85 24.5 7.8 24.5 8.5 18.9 13.65 18.9 12.9 24.5 16.9 24.5 17.6 18.9 22.6 18.9 22.6 15.1 18.05 15.1 18.75 9.4 23.75 9.4M14.8 9.4L14.1 15.1 8.95 15.1 9.65 9.4 14.8 9.4Z"/></g><g id="oct-bars" overflow="visible"><path fill="#FFF" stroke="none" d="M22.6 9.5L0 9.5 0 13.3 22.6 13.3 22.6 9.5M1.15 3.8L23.75 3.8 23.75 0 1.15 0 1.15 3.8Z"/></g></defs><g id="Scene-1" overflow="visible"><g id="Layer17_0_FILL"><path fill="#ED6D68" stroke="none" d="M32.05 .55Q31.5 0 30.65 0L15 0Q14.15 0 13.55 .55 13 1.15 13 2L13 4.3 32.65 4.3 32.65 2Q32.65 1.15 32.05 .55Z"/><path fill="#ED6D68" stroke="none" d="M63.15 4.3L63.15 2Q63.15 1.15 62.55 .55 62 0 61.15 0L45.45 0Q44.6 0 44.05 .55 43.45 1.15 43.45 2L43.45 4.3 63.15 4.3Z"/><path fill="#ED6D68" stroke="none" d="M76 6.3L0 6.3 0 72.9 76 72.9 76 6.3Z"/><animate attributeName="display" repeatCount="indefinite" dur="3.283s" keyTimes="0;.609;1" values="inline;none;none"/></g><g display="none"><g transform="matrix(.059 0 0 1 0 0)" id="Layer16_0_FILL"><path fill="#FFF" stroke="none" d="M42.4 36.8L43.7 36.8 43.7 33 42.4 33 42.4 36.8M43.65 42.5L42.3 42.5 42.3 46.3 43.65 46.3 43.65 42.5Z"/></g><animate attributeName="display" repeatCount="indefinite" dur="3.283s" keyTimes="0;.157;.162;1" values="none;inline;none;none"/></g><g display="none" id="Layer15_0_FILL"><path fill="#FFF" stroke="none" d="M43.05 42.5L41.3 42.5 41.3 46.3 43.05 46.3 43.05 42.5M43.1 33L41.4 33 41.4 36.8 43.1 36.8 43.1 33Z"/><animate attributeName="display" repeatCount="indefinite" dur="3.283s" keyTimes="0;.152;.157;1" values="none;inline;none;none"/></g><g display="none" id="Layer14_0_FILL"><path fill="#FFF" stroke="none" d="M42.4 46.3L42.4 42.5 40.2 42.5 40.2 46.3 42.4 46.3M42.5 36.8L42.5 33 40.35 33 40.35 36.8 42.5 36.8Z"/><animate attributeName="display" repeatCount="indefinite" dur="3.283s" keyTimes="0;.147;.152;1" values="none;inline;none;none"/></g><g display="none" id="Layer13_0_FILL"><path fill="#FFF" stroke="none" d="M41.85 46.3L41.85 42.5 39.25 42.5 39.25 46.3 41.85 46.3M41.95 36.8L41.95 33 39.4 33 39.4 36.8 41.95 36.8Z"/><animate attributeName="display" repeatCount="indefinite" dur="3.283s" keyTimes="0;.142;.147;1" values="none;inline;none;none"/></g><g display="none" id="Layer12_0_FILL"><path fill="#FFF" stroke="none" d="M41.15 46.3L41.15 42.5 38.2 42.5 38.2 46.3 41.15 46.3M41.3 36.8L41.3 33 38.35 33 38.35 36.8 41.3 36.8Z"/><animate attributeName="display" repeatCount="indefinite" dur="3.283s" keyTimes="0;.137;.142;1" values="none;inline;none;none"/></g><g display="none" id="Layer11_0_FILL"><path fill="#FFF" stroke="none" d="M40.6 46.3L40.6 42.5 37.25 42.5 37.25 46.3 40.6 46.3M40.8 36.8L40.8 33 37.4 33 37.4 36.8 40.8 36.8Z"/><animate attributeName="display" repeatCount="indefinite" dur="3.283s" keyTimes="0;.132;.137;1" values="none;inline;none;none"/></g><g display="none" id="Layer10_0_FILL"><path fill="#FFF" stroke="none" d="M40 42.5L36.2 42.5 36.2 46.3 40 46.3 40 42.5M40.2 33L36.4 33 36.4 36.8 40.2 36.8 40.2 33Z"/><animate attributeName="display" repeatCount="indefinite" dur="3.283s" keyTimes="0;.127;.132;1" values="none;inline;none;none"/></g><g display="none" id="Layer9_0_FILL"><path fill="#FFF" stroke="none" d="M39.35 42.5L35.15 42.5 35.15 46.3 39.35 46.3 39.35 42.5M39.55 33L35.35 33 35.35 36.8 39.55 36.8 39.55 33Z"/><animate attributeName="display" repeatCount="indefinite" dur="3.283s" keyTimes="0;.122;.127;1" values="none;inline;none;none"/></g><g display="none" id="Layer8_0_FILL"><path fill="#FFF" stroke="none" d="M38.8 42.5L34.2 42.5 34.2 46.3 38.8 46.3 38.8 42.5M39.05 33L34.45 33 34.45 36.8 39.05 36.8 39.05 33Z"/><animate attributeName="display" repeatCount="indefinite" dur="3.283s" keyTimes="0;.117;.122;1" values="none;inline;none;none"/></g><g display="none" id="Layer7_0_FILL"><path fill="#FFF" stroke="none" d="M38.15 42.5L33.15 42.5 33.15 46.3 38.15 46.3 38.15 42.5M38.4 33L33.4 33 33.4 36.8 38.4 36.8 38.4 33Z"/><animate attributeName="display" repeatCount="indefinite" dur="3.283s" keyTimes="0;.112;.117;1" values="none;inline;none;none"/></g><g display="none" id="Layer6_0_FILL"><path fill="#FFF" stroke="none" d="M37.6 42.5L32.15 42.5 32.15 46.3 37.6 46.3 37.6 42.5M37.85 33L32.45 33 32.45 36.8 37.85 36.8 37.85 33Z"/><animate attributeName="display" repeatCount="indefinite" dur="3.283s" keyTimes="0;.107;.112;1" values="none;inline;none;none"/></g><g display="none" id="Layer5_0_FILL"><path fill="#FFF" stroke="none" d="M37 42.5L31.15 42.5 31.15 46.3 37 46.3 37 42.5M37.3 33L31.45 33 31.45 36.8 37.3 36.8 37.3 33Z"/><animate attributeName="display" repeatCount="indefinite" dur="3.283s" keyTimes="0;.102;.107;1" values="none;inline;none;none"/></g><g display="none" id="Layer4_0_FILL"><path fill="#FFF" stroke="none" d="M36.3 42.5L30.1 42.5 30.1 46.3 36.3 46.3 36.3 42.5M36.65 33L30.4 33 30.4 36.8 36.65 36.8 36.65 33Z"/><animate attributeName="display" repeatCount="indefinite" dur="3.283s" keyTimes="0;.096;.102;1" values="none;inline;none;none"/></g><g display="none" id="Layer3_0_FILL"><path fill="#FFF" stroke="none" d="M35.75 42.5L29.15 42.5 29.15 46.3 35.75 46.3 35.75 42.5M36.1 33L29.45 33 29.45 36.8 36.1 36.8 36.1 33Z"/><animate attributeName="display" repeatCount="indefinite" dur="3.283s" keyTimes="0;.091;.096;1" values="none;inline;none;none"/></g><g display="none" id="Layer2_0_FILL"><path fill="#FFF" stroke="none" d="M35.15 42.5L28.1 42.5 28.1 46.3 35.15 46.3 35.15 42.5M35.55 33L28.45 33 28.45 36.8 35.55 36.8 35.55 33Z"/><animate attributeName="display" repeatCount="indefinite" dur="3.283s" keyTimes="0;.086;.091;1" values="none;inline;none;none"/></g><g display="none"><g transform="matrix(.331 0 0 1 0 0)" id="Layer1_0_FILL"><path fill="#FFF" stroke="none" d="M27.45 36.8L34.95 36.8 34.95 33 27.45 33 27.45 36.8M34.55 42.5L27.1 42.5 27.1 46.3 34.55 46.3 34.55 42.5Z"/></g><animate attributeName="display" repeatCount="indefinite" dur="3.283s" keyTimes="0;.081;.086;1" values="none;inline;none;none"/></g><g display="none"><use xlink:href="#oct-bars" transform="translate(-24.45 33)"><animateTransform attributeName="transform" additive="replace" type="translate" repeatCount="indefinite" dur="3.283s" keyTimes="0;.426;.432;.437;.442;.447;.452;.457;.462;.467;.472;.477;.482;.487;.492;.498;.503;.508;.513;.518;.523;.528;.533;.538;.543;.548;.553;.558;.564;.569;1" values="-24.45,33;-24.45,33;-22.75,33;-21,33;-19.25,33;-17.5,33;-15.75,33;-14,33;-12.25,33;-10.5,33;-8.75,33;-6.95,33;-5.2,33;-3.4,33;-1.65,33;.15,33;1.95,33;3.8,33;5.6,33;7.5,33;9.35,33;11.25,33;13.15,33;15.1,33;17.1,33;19.1,33;21.15,33;23.2,33;25.35,33;26.55,33;26.55,33"/></use><animate attributeName="display" repeatCount="indefinite" dur="3.283s" keyTimes="0;.426;.609;1" values="none;inline;none;none"/></g><g display="none"><use xlink:href="#oct-bars" transform="translate(25.55 33)"><animateTransform attributeName="transform" additive="replace" type="translate" repeatCount="indefinite" dur="3.283s" keyTimes="0;.081;.086;.091;.096;.102;.107;.112;.117;.122;.127;.132;.137;.142;.147;.152;.157;.162;.168;.173;.178;.183;.188;.193;.198;.203;.208;.213;1" values="25.55,33;25.55,33;27.25,33;29,33;30.75,33;32.5,33;34.25,33;36,33;37.75,33;39.55,33;41.3,33;43.1,33;44.9,33;46.75,33;48.55,33;50.45,33;52.35,33;54.25,33;56.25,33;58.25,33;60.3,33;62.4,33;64.55,33;66.8,33;69.1,33;71.5,33;73.95,33;76.55,33;76.55,33"/></use><animate attributeName="display" repeatCount="indefinite" dur="3.283s" keyTimes="0;.081;.218;1" values="none;inline;none;none"/></g><g display="none"><use xlink:href="#octo" transform="translate(-24.45 27.4)"><animateTransform attributeName="transform" additive="replace" type="translate" repeatCount="indefinite" dur="3.283s" keyTimes="0;.426;.432;.437;.442;.447;.452;.457;.462;.467;.472;.477;.482;.487;.492;.498;.503;.508;.513;.518;.523;1" values="-24.45,27.4;-24.45,27.4;-19.8,27.4;-15.4,27.4;-11.35,27.4;-7.55,27.4;-4,27.4;-.7,27.4;2.35,27.4;5.2,27.4;7.85,27.4;10.35,27.4;12.65,27.4;14.8,27.4;16.8,27.4;18.65,27.4;20.4,27.4;22.05,27.4;23.6,27.4;25.05,27.4;26,27.4;26,27.4"/></use><animate attributeName="display" repeatCount="indefinite" dur="3.283s" keyTimes="0;.426;.609;1" values="none;inline;none;none"/></g><g><use xlink:href="#octo" transform="translate(25.55 27.4)"><animateTransform attributeName="transform" additive="replace" type="translate" repeatCount="indefinite" dur="3.283s" keyTimes="0;.08099;.086;.091;.096;.102;.107;.112;.117;.122;.127;.132;.137;.142;.147;.152;.157;.162;.168;.173;.178;.183;.188;.193;.198;.203;.208;.213;1" values="25.55,27.4;25.55,27.4;30.15,27.4;34.4,27.4;38.2,27.4;41.7,27.4;44.85,27.4;47.75,27.4;50.35,27.4;52.7,27.4;54.85,27.4;56.85,27.4;58.65,27.4;60.25,27.4;61.8,27.4;63.2,27.4;64.5,27.4;65.7,27.4;66.9,27.4;68,27.4;69.05,27.4;70.1,27.4;71.1,27.4;72.1,27.4;73.05,27.4;74.05,27.4;75,27.4;76,27.4;76,27.4"/></use><animate attributeName="display" repeatCount="indefinite" dur="3.283s" keyTimes="0;.218;1" values="inline;none;none"/></g><g display="none"><g id="mag" transform="matrix(.707 -.705 .705 .707 -31.05 36.1)"><animateTransform attributeName="transform" additive="replace" type="translate" repeatCount="indefinite" dur="3.283s" keyTimes="0;.218;.223;.228;.234;.239;.244;.249;.254;.259;.264;.269;.274;.279;.284;.289;.294;.3;.305;.31;.315;.32;.325;.33;.335;.34;.345;.35;.355;.36;.366;.371;.376;.381;.386;.391;.396;.401;.406;.411;.416;.421;.426;.432;.437;.442;.447;.452;.457;.462;.467;.472;.477;1" values="-31.05,36.191;-31.05,36.191;-21.412,36.19;-13.204,36.247;-6.124,36.164;-.178,36.233;4.983,36.097;9.174,36.165;12.735,36.193;15.698,36.242;18.189,36.214;20.188,36.231;21.921,36.173;23.321,36.186;24.469,36.138;25.426,36.188;26.275,36.198;27.12,36.176;27.669,36.192;28.316,36.238;28.814,36.194;29.358,36.195;29.807,36.253;30.353,36.147;30.903,36.246;31.352,36.199;31.8,36.25;32.3,36.15;32.848,36.201;33.247,36.198;33.792,36.2;34.337,36.256;34.842,36.104;35.39,36.104;35.883,36.149;36.486,36.106;37.127,36.156;37.783,36.149;38.672,36.206;39.631,36.088;40.888,36.16;42.177,36.185;43.998,36.113;45.973,36.181;48.437,36.131;51.411,36.161;54.972,36.185;59.18,36.156;64.29,36.235;70.292,36.076;77.36,36.067;85.62,36.094;95.285,36.065;95.285,36.065"/><animateTransform attributeName="transform" additive="sum" type="rotate" repeatCount="indefinite" dur="3.283s" keyTimes="0;.218;.223;.228;.234;.239;.244;.249;.254;.259;.264;.269;.274;.279;.284;.289;.294;.3;.305;.31;.315;.32;.325;.33;.335;.34;.345;.35;.355;.36;.366;.371;.376;.381;.386;.391;.396;.401;.406;.411;.416;.421;.426;.432;.437;.442;.447;.452;.457;.462;.467;.472;.477;1" values="-44.903,0,0;-44.903,0,0;-40.086,0,0;-35.611,0,0;-31.836,0,0;-28.556,0,0;-25.57,0,0;-23.052,0,0;-20.797,0,0;-18.797,0,0;-17.044,0,0;-15.524,0,0;-14.044,0,0;-12.782,0,0;-11.547,0,0;-10.522,0,0;-9.512,0,0;-8.514,0,0;-7.527,0,0;-6.542,0,0;-5.75,0,0;-4.779,0,0;-3.806,0,0;-3.021,0,0;-2.05,0,0;-1.268,0,0;-.296,0,0;.296,0,0;1.267,0,0;2.049,0,0;3.02,0,0;3.805,0,0;4.778,0,0;5.749,0,0;6.542,0,0;7.526,0,0;8.514,0,0;9.509,0,0;10.522,0,0;11.547,0,0;12.781,0,0;14.04,0,0;15.523,0,0;17.044,0,0;18.797,0,0;20.796,0,0;23.049,0,0;25.57,0,0;28.555,0,0;31.835,0,0;35.611,0,0;40.085,0,0;44.903,0,0;44.903,0,0"/><animateTransform attributeName="transform" additive="sum" type="scale" repeatCount="indefinite" dur="3.283s" keyTimes="0;.244;.249;.274;.279;.31;.315;.32;.325;.371;.376;.381;.386;.416;.421;.447;.452;1" values=".997,.997;.997,.997;.998,.998;.998,.998;1,.999;1,.999;1,1;1,.999;1,1;1,1;1,.999;1,1;1,.999;1,.999;.998,.998;.998,.998;.997,.997;.997,.997"/><animateTransform attributeName="transform" additive="sum" type="translate" repeatCount="indefinite" dur="3.283s" keyTimes="0;.223;.228;.234;.239;.244;.249;.254;.259;.264;.269;.274;.279;.284;.289;.294;.3;.305;.31;.315;.32;.325;.33;.335;.34;.345;.35;.355;.36;.366;.371;.376;.381;.386;.391;.396;.401;.406;.411;.416;.421;.426;.432;.437;.442;.447;.452;.457;.462;.467;.472;.477;1" values=".1,-.1;.1,-.1;.2,-.1;.15,-.1;.2,-.1;-.1,-.1;.05,-.05;0,-.1;0,-.15;-.1,-.15;-.05,-.15;-.1,-.1;-.05,-.1;-.05,-.1;-.05,-.15;0,-.15;-.15,-.15;-.05,-.15;-.1,-.15;-.05,-.15;-.05,-.1;.05,-.1;-.05,-.05;-.1,-.1;-.05,-.1;-.05,-.1;0,-.1;-.05,-.1;.05,-.1;0,-.15;-.1,-.2;-.05,-.1;-.05,-.1;0,-.15;-.05,-.1;-.05,-.15;0,-.1;-.05,-.15;.05,-.1;-.05,-.05;.05,-.1;-.05,0;.05,-.1;.05,-.05;-.05,-.1;-.1,-.05;-.05,-.15;-.1,-.1;-.05,0;-.1,.05;-.05,.05;0,.05;0,.05"/><g transform="matrix(1.434 0 0 1.434 0 0)" id="Layer23_0_FILL"><path fill="#FFF" stroke="none" d="M8.3 -.95Q8.3 -4.75 5.55 -7.5 2.75 -10.25 -1.05 -10.25 -4.9 -10.25 -7.6 -7.5 -10.35 -4.75 -10.35 -.95 -10.35 2.95 -7.6 5.65 -4.9 8.4 -1.05 8.4 2.4 8.4 5 6.15L5.45 6.6 5.45 7.7 12.6 14.85 14.7 12.7 7.6 5.55 6.45 5.55 6 5.15Q8.3 2.5 8.3 -.95M3.5 -5.45Q5.45 -3.6 5.45 -.95 5.45 1.75 3.5 3.65 1.65 5.55 -1.05 5.55 -3.7 5.55 -5.6 3.65 -7.5 1.8 -7.5 -.95 -7.5 -3.6 -5.6 -5.45 -3.7 -7.4 -1.05 -7.4 1.65 -7.4 3.5 -5.45Z"/></g></g><animate attributeName="display" repeatCount="indefinite" dur="3.283s" keyTimes="0;.218;.482;1" values="none;inline;none;none"/></g><g display="none"><use xlink:href="#block"><animateTransform attributeName="transform" additive="replace" type="translate" repeatCount="indefinite" dur="3.283s" keyTimes="0;.609;.614;.619;.624;.63;.635;.64;.645;.65;.655;.66;.665;.67;.675;.68;.685;.69;.696;.701;.706;.711;.716;.721;.726;.731;.736;.741;.746;.751;.756;.761;.767;.772;.777;.782;.787;.792;.797;.802;.807;.812;.88799;.888;.893;.899;.904;.909;.914;.919;.924;.929;.934;.939;.944;.949;.954;.959;.965;.97;.975;.98;.985;.99;.995;1" values="0,0;0,0;0,2.2;0,4.35;0,6.45;0,8.45;0,10.4;0,12.3;0,14.1;0,15.8;0,17.5;0,19.1;0,20.65;0,22.1;0,23.55;0,24.9;0,26.25;0,27.5;0,28.75;0,29.9;0,31.05;0,32.1;0,33.15;0,34.15;0,35.1;0,36;0,36.9;0,37.75;0,38.6;0,39.35;0,40.15;0,40.85;0,41.6;0,42.3;0,42.95;0,43.6;0,44.25;0,44.85;0,45.45;0,46.05;0,46.65;0,46.7;0,46.7;0,48.4;0,50.6;0,52.65;0,54.4;0,56;0,57.4;0,58.65;0,59.75;0,60.7;0,61.6;0,62.4;0,63.1;0,63.75;0,64.35;0,64.9;0,65.45;0,65.95;0,66.45;0,66.95;0,67.4;0,67.9;0,68.4;0,68.4"/></use><animate attributeName="display" repeatCount="indefinite" dur="3.283s" keyTimes="0;.609;1" values="none;inline;inline"/></g><g display="none"><use xlink:href="#block" transform="translate(0 -75.05)"><animateTransform attributeName="transform" additive="replace" type="translate" repeatCount="indefinite" dur="3.283s" keyTimes="0;.609;.614;.619;.624;.63;.635;.64;.645;.65;.655;.66;.665;.67;.675;.68;.685;.69;.696;.701;.706;.711;.716;.721;.726;.731;.736;.741;.746;.751;.756;.761;.767;.772;.777;.782;.787;.792;.797;.802;.807;.812;.833;.838;.843;.848;.853;.858;.863;.868;.873;.878;.883;.888;.893;.899;.904;.909;.914;.919;.924;.929;.934;.939;.944;.949;.954;.959;.965;.97;.975;.98;.985;.99;.995;1" values="0,-75.05;0,-75.05;0,-72.85;0,-70.75;0,-68.65;0,-66.7;0,-64.75;0,-62.95;0,-61.15;0,-59.45;0,-57.8;0,-56.2;0,-54.7;0,-53.2;0,-51.8;0,-50.45;0,-49.15;0,-47.9;0,-46.7;0,-45.55;0,-44.4;0,-43.35;0,-42.35;0,-41.35;0,-40.4;0,-39.5;0,-38.6;0,-37.75;0,-36.95;0,-36.2;0,-35.4;0,-34.7;0,-34;0,-33.3;0,-32.65;0,-32;0,-31.35;0,-30.75;0,-30.15;0,-29.55;0,-29;0,-28.95;0,-28.95;0,-28.8;0,-28.65;0,-28.5;0,-28.3;0,-28.15;0,-28;0,-27.8;0,-27.65;0,-27.5;0,-27.3;0,-20;0,-17.8;0,-15.75;0,-14;0,-12.4;0,-11;0,-9.75;0,-8.65;0,-7.7;0,-6.8;0,-6;0,-5.3;0,-4.65;0,-4.05;0,-3.5;0,-2.95;0,-2.45;0,-1.95;0,-1.45;0,-1;0,-.5;0,0;0,0"/></use><animate attributeName="display" repeatCount="indefinite" dur="3.283s" keyTimes="0;.609;1" values="none;inline;inline"/></g></g></svg>