<svg id="Layer_1" data-name="Layer 1" xmlns="http://www.w3.org/2000/svg" viewBox="0 0 100.37 100.37"><defs><style>.cls-1{fill:#f68c3e;}.cls-2{fill:#1f1f1f;}.cls-3{fill:#fff;}.cls-4{fill:#a182ee;}</style></defs><title>0x20f7a3ddf244dc9299975b4da1c39f8d5d75f05a</title><polygon class="cls-1" points="50.37 52.41 50.37 52.41 50.29 52.49 50.37 52.41"/><circle class="cls-2" cx="50.18" cy="50.18" r="50.18"/><path class="cls-3" d="M52.3,56.91a15.88,15.88,0,0,0,6.47-2.38,17.52,17.52,0,0,0,7.72-10.31,15.3,15.3,0,0,0,.33-6.66,18.51,18.51,0,0,0-3.38-7.81c-.34-.47-.61-1.1-1.3-.7s-.27,1-.06,1.47a15.59,15.59,0,0,1,1.51,6.88,11.49,11.49,0,0,1-3,7.71A14.18,14.18,0,0,1,49.86,50.2a12,12,0,0,1-3.41-.59A15.25,15.25,0,0,1,39.37,45a12,12,0,0,1-2.93-6.7,13.63,13.63,0,0,1,.78-6c.27-.75.62-1.48.89-2.23.12-.36.14-.81-.29-1a.75.75,0,0,0-1,.32c-.29.46-.67.87-.95,1.33a17.45,17.45,0,0,0-2.77,11.49,16.45,16.45,0,0,0,1.25,4.54,17.52,17.52,0,0,0,5.11,6.58c3.26,2.62,11.16,3.8,11.16,3.8L51.68,57Z" transform="translate(0.18 0.18)"/><path class="cls-3" d="M33.35,78.9a15.92,15.92,0,0,0,7.32-1.63c7-3.41,14-6.86,20.95-10.29a10.8,10.8,0,0,1,5.49-1.24,4.06,4.06,0,0,1,4.1,3.37,6.42,6.42,0,0,1-4.33,7.2,8.1,8.1,0,0,1-3.85.24c-.34,0-.64,0-.75.37a.55.55,0,0,0,.35.69,10.39,10.39,0,0,0,5.43,1.19,8.29,8.29,0,0,0,6.79-4.73c3.08-5.75.33-12.33-5.81-13.87a14,14,0,0,0-9.74,1.27c-7,3.4-14,6.86-20.95,10.29A10.84,10.84,0,0,1,32.71,73a4,4,0,0,1-3.95-3.36,6.4,6.4,0,0,1,4.47-7.24,8,8,0,0,1,3.71-.19c.35,0,.63,0,.75-.38s0-.54-.36-.69a9.59,9.59,0,0,0-7-.91c-5.8,1.67-8.42,9.64-4.82,14.73A9.49,9.49,0,0,0,33.35,78.9Z" transform="translate(0.18 0.18)"/><path class="cls-3" d="M42.19,26.66A12.19,12.19,0,0,0,42.64,30a9.19,9.19,0,0,0,2.2,4.08c.25.26.52.44.87.18s.34-.61.11-1a3.24,3.24,0,0,1-.17-.32,8,8,0,0,1,.74-8.54,4.37,4.37,0,0,1,7.17-.05,7.94,7.94,0,0,1,1.57,5.9,7.2,7.2,0,0,1-1,3.05c-.21.36-.23.68.15.94s.63.07.87-.21.39-.43.56-.65A12.06,12.06,0,0,0,55.77,20a7.15,7.15,0,0,0-11.35-.27A11,11,0,0,0,42.19,26.66Z" transform="translate(0.18 0.18)"/><path class="cls-4" d="M50.59,57.06a16.22,16.22,0,0,1-11.16-3.8,17.52,17.52,0,0,1-5.11-6.58,16.45,16.45,0,0,1-1.25-4.54,17.45,17.45,0,0,1,2.77-11.49c.28-.46.66-.87.95-1.33a.75.75,0,0,1,1-.32c.43.2.41.65.29,1-.27.75-.62,1.48-.89,2.23a13.63,13.63,0,0,0-.78,6A12,12,0,0,0,39.37,45a15.25,15.25,0,0,0,7.08,4.64,12,12,0,0,0,3.41.59,6.83,6.83,0,0,1,3.45,1.26c1.5,1.2.75,3.73,0,4.46A5.5,5.5,0,0,1,50.59,57.06Z" transform="translate(0.18 0.18)"/></svg>