<?xml version="1.0" encoding="utf-8"?>
<!-- Generator: Adobe Illustrator 22.1.0, SVG Export Plug-In . SVG Version: 6.00 Build 0)  -->
<svg version="1.1" id="Layer_1" xmlns="http://www.w3.org/2000/svg" xmlns:xlink="http://www.w3.org/1999/xlink" x="0px" y="0px"
	 viewBox="0 0 150 150" style="enable-background:new 0 0 150 150;" xml:space="preserve">
<style type="text/css">
	.st0{fill:#FFD285;}
	.st1{fill:#D2963E;}
	.st2{fill:#FCBE5B;}
	.st3{fill:#462612;}
	.st4{fill:#905624;}
	.st5{opacity:0.25;fill:#FFFFFF;enable-background:new    ;}
</style>
<title>unikoin-icon-gold</title>
<g>
	<circle class="st0" cx="75" cy="75" r="75"/>
	<path class="st1" d="M150,75c-0.4,41.4-34.2,74.7-75.6,74.4C33.4,149,0.4,115.9,0,75"/>
	<circle class="st2" cx="75" cy="75" r="61.8"/>
	<path class="st3" d="M88.1,75.7c0-3-1.1-5.7-3.4-6.3c0,1.5-0.1,3.4,0,5C85.5,75.4,86.4,75.6,88.1,75.7z"/>
	<path class="st3" d="M83.9,55.8c-3.1-10-6.2-21.8-9.5-31.6C70.8,36,66.6,49.7,62.8,61.4C69.5,59.7,77.1,57.6,83.9,55.8z"/>
	<path class="st3" d="M84.9,96.5c-2.5-2.3-2.9-5-5.7-7.7c-3.5-3.3-9.6-4.3-8-11.7c-5.1-1.2-13.7,3.9-15.9,9.2
		c-4,11.4-8.1,23.8-12,35.2c10.4-7.5,21-16.5,31.5-24.1c10.1,7.3,20.4,15.2,30.4,22.5c0.3,0.2,0.2,1.2,0.5,1.1
		c-2.7-8-5.1-16.6-7.8-24.7C93.9,96.9,89.3,96.3,84.9,96.5z"/>
	<path class="st3" d="M44.6,61.6c-6.8-0.1-14.2-0.2-20.8,0c0.4,0.9,1.1,1.6,2,2.1c6.6,3.3,12.7,7.8,18.8,12.1L44.6,61.6z"/>
	<path class="st3" d="M91.4,62c-1.8,0.9-3.8,2.1-5.6,3c0.6,2.7,4.1,1.8,5.4,3.6c0.3,5.1,1.3,10.1,2.8,15
		c10.1-7.2,21.2-13.8,31.3-20.9c0.3-0.4,0.3-0.9,0.1-1.3C114.1,61.5,102.8,61.7,91.4,62z"/>
	<path class="st4" d="M88.1,76.4c0-3-0.5-5.4-2.9-6c0,1.5-0.7,2.4-0.6,4C85.5,75.4,86.4,76.3,88.1,76.4z"/>
	<path class="st4" d="M83.9,55.8c-3.1-10-6-20.1-9.3-29.9C71,37.7,67.4,49.5,63.7,61.3C70.4,59.5,77.1,57.7,83.9,55.8z"/>
	<path class="st4" d="M84.9,97.6c-2.5-2.3-2.9-5-5.7-7.7c-3.5-3.3-9.6-4.3-8-11.7c-5.1-1.2-13.7,3.9-15.9,9.2
		c-4,11.4-8.1,22.7-12,34.1c10.4-7.5,21-15.4,31.5-23.1c10.1,7.3,20.4,15.2,30.4,22.5c0.3,0.2,0.6,0.5,0.9,0.4c-2.7-8-5.4-16-8.1-24
		C93.9,97.9,89.3,97.4,84.9,97.6z"/>
	<path class="st4" d="M44.6,62.6c-6.8-0.1-13.6-0.2-20.1,0c0.4,0.7,1.3,1,1.9,1.5c6.1,4.2,12.2,8.5,18.2,12.7V62.6z"/>
	<path class="st4" d="M91.4,63l-5.4,2.6c0.7,2.4,3.9,2.2,5.1,4c0.3,5.1,1.3,10.1,2.8,15c10.1-7.2,20.6-14.5,30.8-21.5
		c0.3-0.2,0.8-0.5,0.7-0.7C114.1,62.6,102.8,62.8,91.4,63z"/>
	<path class="st5" d="M112.6,10.1L10.1,112.6c0.7,1.1,2.1,3.4,2.9,4.6L117.2,13C115.7,12,113.5,10.7,112.6,10.1z"/>
	<path class="st5" d="M126.5,20.5l-106,106c2.9,3,6,5.8,9.4,8.4l105.1-105C132.3,26.5,129.5,23.4,126.5,20.5z"/>
</g>
</svg>
