<?xml version="1.0" encoding="utf-8"?>
<!-- Generator: Adobe Illustrator 22.1.0, SVG Export Plug-In . SVG Version: 6.00 Build 0)  -->
<svg version="1.1" id="Layer_1" xmlns="http://www.w3.org/2000/svg" xmlns:xlink="http://www.w3.org/1999/xlink" x="0px" y="0px"
	 viewBox="0 0 1000 1000" style="enable-background:new 0 0 1000 1000;" xml:space="preserve">
<style type="text/css">
	.st0{fill:#FFD285;}
	.st1{fill:#D2963E;}
	.st2{fill:#FCBE5B;}
	.st3{fill:#462612;}
	.st4{fill:#905624;}
	.st5{opacity:0.25;fill:#FFFFFF;enable-background:new    ;}
</style>
<title>unikoin-icon-gold</title>
<g>
	<circle class="st0" cx="500" cy="500" r="500"/>
	<path class="st1" d="M1000,500c-2.7,276-228,498-504,496C222.7,993.3,2.7,772.7,0,500"/>
	<circle class="st2" cx="500" cy="500" r="412"/>
	<path class="st3" d="M587.3,504.7c0-20-7.3-38-22.7-42c0,10-0.7,22.7,0,33.3C570,502.7,576,504,587.3,504.7z"/>
	<path class="st3" d="M559.3,372C538.7,305.3,518,226.7,496,161.3c-24,78.7-52,170-77.3,248C463.3,398,514,384,559.3,372z"/>
	<path class="st3" d="M566,643.3C549.3,628,546.7,610,528,592c-23.3-22-64-28.7-53.3-78c-34-8-91.3,26-106,61.3
		c-26.7,76-54,158.7-80,234.7c69.3-50,140-110,210-160.7c67.3,48.7,136,101.3,202.7,150c2,1.3,1.3,8,3.3,7.3
		c-18-53.3-34-110.7-52-164.7C626,646,595.3,642,566,643.3z"/>
	<path class="st3" d="M297.3,410.7c-45.3-0.7-94.7-1.3-138.7,0c2.7,6,7.3,10.7,13.3,14c44,22,84.7,52,125.3,80.7V410.7z"/>
	<path class="st3" d="M609.3,413.3c-12,6-25.3,14-37.3,20c4,18,27.3,12,36,24c2,34,8.7,67.3,18.7,100c67.3-48,141.3-92,208.7-139.3
		c2-2.7,2-6,0.7-8.7C760.7,410,685.3,411.3,609.3,413.3z"/>
	<path class="st4" d="M587.3,509.3c0-20-3.3-36-19.3-40c0,10-4.7,16-4,26.7C570,502.7,576,508.7,587.3,509.3z"/>
	<path class="st4" d="M559.3,372c-20.7-66.7-40-134-62-199.3c-24,78.7-48,157.3-72.7,236C469.3,396.7,514,384.7,559.3,372z"/>
	<path class="st4" d="M566,650.7c-16.7-15.3-19.3-33.3-38-51.3c-23.3-22-64-28.7-53.3-78c-34-8-91.3,26-106,61.3
		c-26.7,76-54,151.3-80,227.3c69.3-50,140-102.7,210-154c67.3,48.7,136,101.3,202.7,150c2,1.3,4,3.3,6,2.7c-18-53.3-36-106.7-54-160
		C626,652.7,595.3,649.3,566,650.7z"/>
	<path class="st4" d="M297.3,417.3c-45.3-0.7-90.7-1.3-134,0c2.7,4.7,8.7,6.7,12.7,10c40.7,28,81.3,56.7,121.3,84.7V417.3z"/>
	<path class="st4" d="M609.3,420l-36,17.3c4.7,16,26,14.7,34,26.7c2,34,8.7,67.3,18.7,100c67.3-48,137.3-96.7,205.3-143.3
		c2-1.3,5.3-3.3,4.7-4.7C760.7,417.3,685.3,418.7,609.3,420z"/>
	<path class="st5" d="M750.7,67.3L67.3,750.7c4.7,7.3,14,22.7,19.3,30.7L781.3,86.7C771.3,80,756.7,71.3,750.7,67.3z"/>
	<path class="st5" d="M843.3,136.7L136.7,843.3c19.3,20,40,38.7,62.7,56l700.7-700C882,176.7,863.3,156,843.3,136.7z"/>
</g>
</svg>
