<?xml version="1.0" encoding="utf-8"?>
<!-- Generator: Adobe Illustrator 22.1.0, SVG Export Plug-In . SVG Version: 6.00 Build 0)  -->
<svg version="1.1" id="Vector_Smart_Object_xA0_Image_1_"
	 xmlns="http://www.w3.org/2000/svg" xmlns:xlink="http://www.w3.org/1999/xlink" x="0px" y="0px" viewBox="0 0 800 800"
	 style="enable-background:new 0 0 800 800;" xml:space="preserve">
<style type="text/css">
	.st0{fill:none;}
	.st1{fill:#77CCF3;}
	.st2{fill:#6CBDEA;}
	.st3{fill:#72B3E2;}
	.st4{fill:#50B8E9;}
	.st5{fill:#48B4E6;}
	.st6{fill:#7BC3EC;}
	.st7{fill:#6EC8F1;}
	.st8{fill:#4598D3;}
	.st9{fill:#3CA5DD;}
</style>
<g>
	<path class="st0" d="M59.1,249.2c0.2,0.1,0.5,0.2,0.7,0.2c0.1-0.2,0.2-0.4,0.2-0.5C59.8,249,59.4,249.1,59.1,249.2z"/>
	<path class="st1" d="M457.5,33.4C438.7,30.5,419.5,29,400,29c-69,0-133.5,18.8-188.9,51.4c-15.6-32.3-48.7-54.6-87-54.6
		c-53.4,0-96.6,43.3-96.6,96.6c0,37.9,21.8,70.7,53.6,86.5c-7.8,12.8-14.7,26.2-20.9,39.9c25.2-7.9,126.9-41,211.5-86
		C356.7,117.5,438.3,49.7,457.5,33.4z"/>
	<path class="st2" d="M511.5,254.2c26.8,20.9,47.6,49.1,59.3,81.7l195.1-4.7c-17.4-91-67.9-170.2-138.4-224.7
		c-12.6,14.9-33.5,40.1-60.6,75.2C541.4,214.7,523,239,511.5,254.2z"/>
	<path class="st3" d="M432.7,218.9c29.3,5.3,56.2,17.7,78.8,35.3c11.5-15.2,30-39.5,55.4-72.5c27.1-35.1,48-60.4,60.6-75.2
		c-4.9-3.8-9.9-7.5-15-11c-11.7,7.1-44.4,27.7-93.2,61.9C474,189.1,445,210,432.7,218.9z"/>
	<path class="st4" d="M222.6,360.9c4.2-20.6,11.9-40,22.4-57.4c-14.1-3.3-44.9-10.7-79.2-20.7c-27.9-8.2-73.6-22.8-106-33.4
		c-20.8,46.5-32.4,98-32.4,152.2c0,30.5,3.7,60,10.6,88.4c24.2-16.3,61.8-41.7,79.1-53.6C136.8,422.8,194.3,381.4,222.6,360.9z"/>
	<path class="st5" d="M765.9,331.2L570.8,336c6.9,19.1,10.6,39.7,10.6,61.2c0,34.4-9.6,66.5-26.2,93.9
		c21.6,19.2,54.8,48.9,71.4,64.5c17.9,16.8,52.6,50.2,71.9,69c46.5-62.2,74.1-139.4,74.1-223C772.6,377.5,770.3,354,765.9,331.2z"/>
	<path class="st6" d="M245.1,303.5C276.8,251,334.4,216,400.2,216c11.1,0,21.9,1,32.5,3c12.4-8.9,41.4-29.8,86.6-61.5
		c48.8-34.2,81.6-54.8,93.2-61.9c-45.4-31.5-98-53.3-155-62.1c-19.2,16.3-100.8,84.1-185.9,129.4c-84.6,45-186.3,78.1-211.5,86
		c-0.1,0.2-0.2,0.4-0.2,0.5c32.4,10.5,78.1,25.2,106,33.4C200.1,292.8,231,300.2,245.1,303.5z"/>
	<path class="st7" d="M555.2,491.1c-18.1,29.8-44.5,53.9-76.1,69.2c7.8,18.2,22.8,53.5,33.8,81.5c11.8,30.1,29.3,79.3,36.9,100.9
		c59.2-26,110.4-67,148.7-118.2c-19.4-18.7-54-52.1-71.9-69C610,540.1,576.8,510.3,555.2,491.1z"/>
	<path class="st8" d="M278.2,531.2c-36.4-33.1-59.3-80.9-59.3-134c0-12.4,1.3-24.6,3.6-36.3c-28.4,20.5-85.8,61.9-105.6,75.5
		C99.7,448.3,62.2,473.7,38,490c18.3,75.4,59.6,141.8,116,191.4c19.6-21,51.7-55.9,68.8-76.9C241.5,581.6,266,548.1,278.2,531.2z"/>
	<path class="st9" d="M479.2,560.4c-23.9,11.6-50.7,18.1-79,18.1c-47,0-89.8-17.9-122-47.2c-12.2,16.8-36.8,50.4-55.4,73.2
		c-17.2,21-49.3,55.9-68.8,76.9c65.6,57.8,151.7,92.8,246,92.8c53.3,0,104-11.2,149.8-31.4c-7.6-21.7-25.1-70.9-36.9-100.9
		C502,613.9,487,578.6,479.2,560.4z"/>
</g>
</svg>
