<svg xmlns="http://www.w3.org/2000/svg" viewBox="0 0 60.26 57.359">
  <defs>
    <style>
      .cls-1 {
        fill: #ffd64a;
      }

      .cls-2 {
        fill: #f68c3e;
      }

      .cls-3 {
        fill: #30b561;
      }

      .cls-4 {
        fill: #7cc78f;
      }
    </style>
  </defs>
  <g id="Group_1580" data-name="Group 1580" transform="translate(1541 -736)">
    <path id="Path_1189" data-name="Path 1189" class="cls-1" d="M4,28.67l24-24a2.74,2.74,0,0,0,.8-1.93,2.7,2.7,0,0,0-3-2.68A28.88,28.88,0,0,0,1.35,20,10.23,10.23,0,0,0,4,28.67Z" transform="translate(-1541 735.957)"/>
    <path id="Path_1192" data-name="Path 1192" class="cls-2" d="M4,28.72H4A10.23,10.23,0,0,1,1.35,20v.08a28.779,28.779,0,0,0-.95,4v.24q-.15,1-.23,2v.37A7.961,7.961,0,0,0,0,28.72v1.91a4.346,4.346,0,0,0,.07.95c.07.32,0,.37.07.56a5.749,5.749,0,0,1,.11.84c.04.28.06.39.1.59s.09.53.14.8.08.4.13.59.11.51.18.76.1.4.16.6.14.49.21.74l.19.59.24.72.21.58.28.7.24.57.31.68.26.55.34.67.28.53.38.67.3.5.43.66.31.47.48.68.3.42c.19.25.39.5.59.75l.24.31q.43.52.88,1l.17.18c.25.27.5.53.75.79l.35.33.62.59.41.36.6.52.45.36.61.48.48.35.61.44.5.33.63.4.52.31.65.37.54.29.66.34.55.27.68.31.56.24.71.28.57.21.74.25.56.18.78.22.55.15.86.2.5.11,1.06.19.31.06,1.16.15a2.86,2.86,0,0,0,2.95-1.48,2.71,2.71,0,0,0-.52-3.1Z" transform="translate(-1541 735.957)"/>
    <path id="Path_1193" data-name="Path 1193" class="cls-3" d="M56.34,28.67l-24-24a2.74,2.74,0,0,1-.8-1.93,2.7,2.7,0,0,1,3-2.68A28.88,28.88,0,0,1,59,20a10.23,10.23,0,0,1-2.65,8.69Z" transform="translate(-1541 735.957)"/>
    <path id="Path_1194" data-name="Path 1194" class="cls-2" d="M59,20v0Z" transform="translate(-1541 735.957)"/>
    <path id="Path_1195" data-name="Path 1195" class="cls-2" d="M56.34,28.67h0l.04.05Z" transform="translate(-1541 735.957)"/>
    <path id="Path_1196" data-name="Path 1196" class="cls-4" d="M56.38,28.72h0A10.23,10.23,0,0,0,59,20v.08a28.78,28.78,0,0,1,.95,4v.24q.15,1,.23,2v.37c0,.68.08,1.36.08,2V30.6a4.346,4.346,0,0,1-.07.95c-.07.32,0,.37-.07.56a5.749,5.749,0,0,0-.11.84c-.04.28-.06.39-.1.59s-.09.53-.14.8-.08.4-.13.59-.11.51-.18.76-.1.4-.16.6-.14.49-.21.74l-.19.59-.24.72-.21.58-.28.7-.24.57-.31.68-.26.55-.34.67-.28.53-.38.67-.3.5-.43.66-.31.47-.48.68-.3.42c-.19.25-.39.5-.59.75l-.24.31q-.43.52-.88,1l-.17.18c-.25.27-.5.53-.75.79l-.35.33L51,50l-.41.36-.6.52-.45.36-.61.48-.48.35-.61.44-.5.33-.63.4-.52.31-.65.37-.54.29-.66.34-.55.27-.68.31-.56.24-.71.28-.57.21-.74.25-.56.18-.78.22-.55.15-.86.2-.5.11-1.06.19-.31.06-1.16.15a2.86,2.86,0,0,1-2.95-1.48,2.71,2.71,0,0,1,.52-3.1Z" transform="translate(-1541 735.957)"/>
  </g>
</svg>
