<?xml version="1.0" encoding="utf-8"?>
<!-- Generator: Adobe Illustrator 22.1.0, SVG Export Plug-In . SVG Version: 6.00 Build 0)  -->
<svg version="1.1" id="Layer_1" xmlns="http://www.w3.org/2000/svg" xmlns:xlink="http://www.w3.org/1999/xlink" x="0px" y="0px"
	 viewBox="0 0 1000 1000" style="enable-background:new 0 0 1000 1000;" xml:space="preserve">
<style type="text/css">
	.st0{fill:#2E2E2E;}
</style>
<g transform="translate(0.000000,490.000000) scale(0.100000,-0.100000)">
	<path class="st0" d="M3201.8,3116.2L1414.2,1328.6l363.4-363.4L2139,603.8l-357.4-357.4l-357.4-357.4l347.4-347.4L2119-805.7
		l-353.4-353.4l-351.4-351.4l1794.2-1794.2L5000-5097.6L6791.6-3306l1794.2,1794.2l-353.4,353.4L7881-807l347.4,347.4l347.4,347.4
		l-357.4,357.4L7861,602.5l361.4,361.4l363.4,363.4L6798.2,3114.8C5815.4,4097.6,5006.7,4902.4,5000,4902.4
		C4994,4903.7,4184.6,4099,3201.8,3116.2z M6420.2,2738.1l1409.5-1409.5l-163.4-163.4c-90-90-171.4-163.4-184-163.4
		c-10,0-574.1,553.4-1250.2,1230.2L5000,3463.5L3767.8,2231.4c-676.1-676.1-1240.2-1230.2-1250.2-1230.2c-12,0-94,73.3-184,163.4
		l-163.4,163.4l1409.5,1410.2C4355.9,3514.2,4994,4147.6,5000,4147.6S5643.4,3514.2,6420.2,2738.1z M6062.1,1665.3L7114.3,613.2
		l-163.4-163.4l-163.4-163.4l-892.8,892.8L5000,2074l-894.8-894.8l-892.8-892.8l-163.4,163.4l-163.4,163.4l1052.1,1052.1
		C4515.9,2243.4,4994,2717.4,5000,2717.4C5006,2717.4,5484.1,2243.4,6062.1,1665.3z M5710.8,607.2l698.8-698.8l-704.8-704.8
		L5000-1501.8L4295.2-797L3590.5-92.3l698.8,698.8c386.1,386.1,704.8,700.8,710.8,700.8C5006,1307.9,5324.7,993.2,5710.8,607.2z
		 M2677,65.8l157.4-157.4L2665-261l-167.4-167.4L2334.3-265L2171-101.6l163.4,163.4c90,90,167.4,163.4,173.4,163.4
		S2589,153.1,2677,65.8z M7666.4,61.1l163.4-163.4l-163.4-163.4L7503-429l-167.4,167.4L7166.3-92.3l157.4,157.4
		c88,88,163.4,159.4,169.4,159.4C7499,225.1,7576.3,151.1,7666.4,61.1z M5894.8-1362.4l892.8,892.8L6956.9-639l167.4-167.4
		L6062.1-1868.5L5000-2932L3937.9-1869.8L2875.1-807l167.4,167.4l169.4,169.4l892.8-892.8l895.5-894.8L5894.8-1362.4z
		 M6252.2-2435.2l1250.2,1250.2l163.4-163.4l163.4-163.4L6412.9-2928L5000-4341.5L3585.8-2927.3L2169.6-1511.1l163.4,163.4
		l163.4,163.4l1250.2-1250.2L5000-3688.1L6252.2-2435.2z"/>
</g>
</svg>
