<?xml version="1.0" encoding="utf-8"?>
<!-- Generator: Adobe Illustrator 22.1.0, SVG Export Plug-In . SVG Version: 6.00 Build 0)  -->
<svg version="1.1" id="Layer_1" xmlns="http://www.w3.org/2000/svg" xmlns:xlink="http://www.w3.org/1999/xlink" x="0px" y="0px"
	 viewBox="0 0 150 150" style="enable-background:new 0 0 150 150;" xml:space="preserve">
<style type="text/css">
	.st0{fill:#2E2E2E;}
</style>
<g transform="translate(0.000000,490.000000) scale(0.100000,-0.100000)">
	<path class="st0" d="M480.3,4634.4l-268.1-268.1l54.5-54.5l54.2-54.2l-53.6-53.6l-53.6-53.6l52.1-52.1l52.1-52.1l-53-53l-52.7-52.7
		l269.1-269.1L750,3402.5l268.7,268.7l269.1,269.1l-53,53l-52.7,52.7l52.1,52.1l52.1,52.1l-53.6,53.6l-53.6,53.6l54.2,54.2
		l54.5,54.5l-268.1,268.1c-147.4,147.4-268.7,268.1-269.7,268.1C749.1,4902.5,627.7,4781.8,480.3,4634.4z M963,4577.7l211.4-211.4
		l-24.5-24.5c-13.5-13.5-25.7-24.5-27.6-24.5c-1.5,0-86.1,83-187.5,184.5L750,4686.5l-184.8-184.8
		c-101.4-101.4-186-184.5-187.5-184.5c-1.8,0-14.1,11-27.6,24.5l-24.5,24.5L537,4577.7c116.4,116.4,212.1,211.4,213,211.4
		C750.9,4789.1,846.5,4694.1,963,4577.7z M909.3,4416.8l157.8-157.8l-24.5-24.5l-24.5-24.5l-133.9,133.9L750,4478.1l-134.2-134.2
		L481.9,4210l-24.5,24.5l-24.5,24.5l157.8,157.8c86.7,86.7,158.4,157.8,159.3,157.8C750.9,4574.6,822.6,4503.5,909.3,4416.8z
		 M856.6,4258.1l104.8-104.8l-105.7-105.7L750,3941.8l-105.7,105.7l-105.7,105.7l104.8,104.8c57.9,57.9,105.7,105.1,106.6,105.1
		C750.9,4363.2,798.7,4316,856.6,4258.1z M401.6,4176.9l23.6-23.6l-25.4-25.4l-25.1-25.1l-24.5,24.5l-24.5,24.5l24.5,24.5
		c13.5,13.5,25.1,24.5,26,24.5C377.1,4200.8,388.4,4190,401.6,4176.9z M1149.9,4176.2l24.5-24.5l-24.5-24.5l-24.5-24.5l-25.1,25.1
		l-25.4,25.4l23.6,23.6c13.2,13.2,24.5,23.9,25.4,23.9C1124.8,4200.8,1136.4,4189.7,1149.9,4176.2z M884.2,3962.7l133.9,133.9
		l25.4-25.4l25.1-25.1l-159.3-159.3L750,3727.3l-159.3,159.3L431.3,4046l25.1,25.1l25.4,25.4l133.9-133.9L750,3828.4L884.2,3962.7z
		 M937.8,3801.8l187.5,187.5l24.5-24.5l24.5-24.5l-212.4-212.4L750,3515.9l-212.1,212.1l-212.4,212.4l24.5,24.5l24.5,24.5
		l187.5-187.5L750,3613.9L937.8,3801.8z"/>
</g>
</svg>
