<?xml version="1.0" encoding="utf-8"?>
<!-- Generator: Adobe Illustrator 22.1.0, SVG Export Plug-In . SVG Version: 6.00 Build 0)  -->
<svg version="1.1" id="Layer_1" xmlns="http://www.w3.org/2000/svg" xmlns:xlink="http://www.w3.org/1999/xlink" x="0px" y="0px"
	 viewBox="0 0 1000 1000" style="enable-background:new 0 0 1000 1000;" xml:space="preserve">
<style type="text/css">
	.st0{fill:url(#b_2_);}
	.st1{fill:#FFFFFF;}
	.st2{fill:url(#SVGID_1_);}
</style>
<g>
	<g>
		
			<linearGradient id="b_2_" gradientUnits="userSpaceOnUse" x1="80.1797" y1="424.2734" x2="80.1797" y2="432.0859" gradientTransform="matrix(128 0 0 128 -9763 -54307)">
			<stop  offset="0" style="stop-color:#FAE407"/>
			<stop  offset="1" style="stop-color:#F4C503"/>
		</linearGradient>
		<circle id="b_1_" class="st0" cx="500" cy="500" r="500"/>
	</g>
	<path class="st1" d="M500,200L500,200c166,0,300,134,300,300l0,0c0,166-134,300-300,300l0,0c-166,0-300-134-300-300l0,0
		C200,334,334,200,500,200z"/>
	<g transform="translate(64 56.8)">
		
			<radialGradient id="SVGID_1_" cx="-55.1117" cy="439.6288" r="7.5373" gradientTransform="matrix(27.5745 -27.0928 27.0945 27.5727 -10055.9062 -13003.1611)" gradientUnits="userSpaceOnUse">
			<stop  offset="0" style="stop-color:#F5B635"/>
			<stop  offset="1" style="stop-color:#F6EB2B"/>
		</radialGradient>
		<path class="st2" d="M368.7,629.2c-26.7,0-48.7-22.7-48-50c0-24.7,18.7-46,42.7-48.7c11.3-1.3,22,1.3,31.3,7.3
			c2.7,2,6,2.7,9.3,2.7c10.7,0,18.7-8.7,18.7-19.3v-0.7c-2-26.7,17.3-50,43.3-52.7c10.7-1.3,22,1.3,31.3,7.3c2.7,2,6,2.7,9.3,2.7
			c3.3,0,6.7-0.7,10-2.7l0,0c6-4,9.3-10,8.7-17.3c-2-26.7,17.3-50.7,44-52.7c1.3,0,3.3,0,4.7,0c26.7,0,48.7,22.7,48,50
			c0,24.7-18.7,46-42.7,48.7c-11.3,1.3-22-1.3-31.3-7.3c-2.7-2-6-2.7-9.3-2.7c-10.7,0-18.7,8.7-18.7,19.3v0.7c0,2.7,0,5.3,0,8
			c-2,23.3-20,42.7-43.3,45.3c-10.7,1.3-22-1.3-31.3-7.3c-2.7-2-6-2.7-9.3-2.7c-3.3,0-6.7,0.7-10,2.7l0,0c-6,4-9.3,10-8.7,17.3
			c0,2.7,0,5.3,0,8c-2,24-20.7,42.7-44,45.3C372,629.2,370.7,629.2,368.7,629.2L368.7,629.2z M368.7,503.2
			c-26.7-0.7-48-23.3-48-50.7c0.7-24.7,18.7-45.3,42-48.7c11.3-1.3,22,1.3,31.3,7.3c2.7,2,6,2.7,9.3,2.7c3.3,0,6.7-0.7,10-2.7
			c6-3.3,9.3-10,9.3-17.3c-2-26.7,17.3-50.7,44-53.3c1.3,0,3.3,0,4.7,0c26.7,0,48.7,22.7,48,50c0,24.7-18.7,46-42.7,48.7
			c-11.3,1.3-22-1.3-31.3-7.3c-2.7-2-6-2.7-9.3-2.7c-10.7,0-18.7,8.7-18.7,19.3v0.7c0,2.7,0,5.3,0,8c-2,24-20.7,42.7-44,45.3
			C372,503.2,370.7,503.2,368.7,503.2L368.7,503.2L368.7,503.2z M417.3,321.2c4,0,6.7,3.3,6.7,6.7c0,0.7,0,1.3,0,1.3
			c-0.7,4-4.7,6-8,5.3l0,0l-10,24c2.7,2,3.3,5.3,1.3,8c0,0,0,0.7-0.7,0.7c-2,2-6,2-8,0l0,0c0,0,0,0,0-0.7
			c-8.7,6.7-18.7,10.7-30,10.7c-26.7,0-48.7-22-48.7-50c0-10.7,3.3-21.3,10-30c0,0-0.7,0-0.7-0.7c-2.7-2.7-2.7-6.7,0-10
			c2.7-2.7,6.7-2.7,9.3,0c0.7,2,0.7,2,1.3,2.7l22-9.3c0-0.7,0-2,0-2.7c0-4,3.3-6.7,7.3-6l0,0c4,0.7,6,4,5.3,8l22.7,8.7
			c2-3.3,6-4,9.3-2.7c1.3,0.7,2,1.3,2.7,2.7c1.3,3.3,0.7,7.3-2.7,9.3l9.3,24C416.7,321.2,416.7,321.2,417.3,321.2L417.3,321.2z
			 M398,296.5c-0.7-0.7-0.7-1.3-1.3-2l-8.7,2c0,1.3-0.7,3.3-1.3,4l8,8.7c1.3,0,2.7-0.7,4-0.7l2-10.7
			C399.3,297.2,398.7,297.2,398,296.5z M411.3,330.5L411.3,330.5c-0.7-2-0.7-3.3,0-5.3l-8-4.7c-2.7,2-6,2.7-8.7,0l-4,4
			c1.3,2,1.3,4.7,0,7.3l4,3.3c2.7-2,6.7-2,8.7,0.7C403.3,335.9,411.3,330.5,411.3,330.5z M392.7,317.9L392.7,317.9
			c-0.7-2-0.7-4.7,0.7-6.7l-8.7-8.7c-2,1.3-4.7,1.3-6.7,0l-4,4.7c1.3,2.7,2,6,0,8l6.7,7.3c2.7-2,5.3-1.3,8,0l4-4
			C392.7,318.5,392.7,318.5,392.7,317.9L392.7,317.9z M374,281.9L374,281.9c0,0.7-0.7,0.7-0.7,1.3l5.3,8l0,0c3.3-1.3,7.3,0,8.7,3.3
			l0,0l8.7-2.7c0-0.7,0-0.7,0-1.3L374,281.9L374,281.9z M368,285.2L368,285.2c-0.7,0-1.3,0-2-0.7l-5.3,8c2.7,2.7,2.7,6.7,0.7,9.3
			l3.3,4c2-1.3,4.7-1.3,6.7,0l4.7-4.7c-2-2.7-2-6.7,0-9.3l-5.3-7.3C370,284.5,369.3,285.2,368,285.2z M362.7,281.9l-22,9.3
			c0,0.7,0,0.7,0,1.3l9.3,2c1.3-3.3,5.3-5.3,8.7-4l0,0l5.3-8C363.3,283.2,362.7,282.5,362.7,281.9z M338.7,297.9L338.7,297.9
			c-0.7,0.7-1.3,1.3-2,1.3l2,9.3c1.3,0,2.7,0,3.3,1.3l8-8.7c0-1.3-0.7-2.7-0.7-4l-9.3-2C340,296.5,339.3,297.2,338.7,297.9z
			 M404,357.2l9.3-23.3c-0.7,0-0.7-0.7-1.3-0.7l-7.3,5.3l0,0c1.3,3.3,0,7.3-3.3,8.7l0,0l2,10C403.3,357.2,404,357.2,404,357.2z
			 M412.7,323.2L412.7,323.2c0-0.7,0.7-0.7,1.3-0.7l-10-24c-0.7,0-0.7,0-1.3,0l-2,10.7l0,0c3.3,1.3,5.3,5.3,3.3,8.7
			C404.7,317.9,412.7,323.2,412.7,323.2z"/>
	</g>
</g>
</svg>
