<?xml version="1.0" encoding="utf-8"?>
<!-- Generator: Adobe Illustrator 22.1.0, SVG Export Plug-In . SVG Version: 6.00 Build 0)  -->
<svg version="1.1" id="Layer_1" xmlns="http://www.w3.org/2000/svg" xmlns:xlink="http://www.w3.org/1999/xlink" x="0px" y="0px"
	 viewBox="0 0 150 150" style="enable-background:new 0 0 150 150;" xml:space="preserve">
<style type="text/css">
	.st0{fill:url(#b_2_);}
	.st1{fill:#FFFFFF;}
	.st2{fill:url(#SVGID_1_);}
</style>
<g>
	<g>
		
			<linearGradient id="b_2_" gradientUnits="userSpaceOnUse" x1="-172.1797" y1="324.7656" x2="-172.1797" y2="323.5938" gradientTransform="matrix(128 0 0 -128 22114 41570)">
			<stop  offset="0" style="stop-color:#FAE407"/>
			<stop  offset="1" style="stop-color:#F4C503"/>
		</linearGradient>
		<circle id="b_1_" class="st0" cx="75" cy="75" r="75"/>
	</g>
	<path class="st1" d="M75,30L75,30c24.9,0,45,20.1,45,45l0,0c0,24.9-20.1,45-45,45l0,0c-24.9,0-45-20.1-45-45l0,0
		C30,50.1,50.1,30,75,30z"/>
	<g transform="translate(64 56.8)">
		
			<radialGradient id="SVGID_1_" cx="-238.0009" cy="262.0377" r="1.1306" gradientTransform="matrix(27.5745 -27.0928 -27.0945 -27.5727 13658.5264 820.4538)" gradientUnits="userSpaceOnUse">
			<stop  offset="0" style="stop-color:#F5B635"/>
			<stop  offset="1" style="stop-color:#F6EB2B"/>
		</radialGradient>
		<path class="st2" d="M0.9,46.1c-4,0-7.3-3.4-7.2-7.5c0-3.7,2.8-6.9,6.4-7.3c1.7-0.2,3.3,0.2,4.7,1.1c0.4,0.3,0.9,0.4,1.4,0.4
			c1.6,0,2.8-1.3,2.8-2.9c0,0,0-0.1,0-0.1c-0.3-4,2.6-7.5,6.5-7.9c1.6-0.2,3.3,0.2,4.7,1.1c0.4,0.3,0.9,0.4,1.4,0.4
			c0.5,0,1-0.1,1.5-0.4l0,0c0.9-0.6,1.4-1.5,1.3-2.6c-0.3-4,2.6-7.6,6.6-7.9c0.2,0,0.5,0,0.7,0c4,0,7.3,3.4,7.2,7.5
			c0,3.7-2.8,6.9-6.4,7.3c-1.7,0.2-3.3-0.2-4.7-1.1c-0.4-0.3-0.9-0.4-1.4-0.4c-1.6,0-2.8,1.3-2.8,2.9c0,0,0,0.1,0,0.1
			c0,0.4,0,0.8,0,1.2c-0.3,3.5-3,6.4-6.5,6.8c-1.6,0.2-3.3-0.2-4.7-1.1c-0.4-0.3-0.9-0.4-1.4-0.4c-0.5,0-1,0.1-1.5,0.4l0,0
			c-0.9,0.6-1.4,1.5-1.3,2.6c0,0.4,0,0.8,0,1.2c-0.3,3.6-3.1,6.4-6.6,6.8C1.4,46.1,1.2,46.1,0.9,46.1L0.9,46.1z M0.9,27.2
			c-4-0.1-7.2-3.5-7.2-7.6c0.1-3.7,2.8-6.8,6.3-7.3c1.7-0.2,3.3,0.2,4.7,1.1c0.4,0.3,0.9,0.4,1.4,0.4c0.5,0,1-0.1,1.5-0.4
			c0.9-0.5,1.4-1.5,1.4-2.6c-0.3-4,2.6-7.6,6.6-8c0.2,0,0.5,0,0.7,0c4,0,7.3,3.4,7.2,7.5c0,3.7-2.8,6.9-6.4,7.3
			c-1.7,0.2-3.3-0.2-4.7-1.1c-0.4-0.3-0.9-0.4-1.4-0.4c-1.6,0-2.8,1.3-2.8,2.9c0,0,0,0.1,0,0.1c0,0.4,0,0.8,0,1.2
			c-0.3,3.6-3.1,6.4-6.6,6.8C1.4,27.2,1.2,27.2,0.9,27.2L0.9,27.2L0.9,27.2z M8.2-0.1c0.6,0,1,0.5,1,1c0,0.1,0,0.2,0,0.2
			C9.1,1.7,8.5,2,8,1.9c0,0,0,0,0,0L6.5,5.5C6.9,5.8,7,6.3,6.7,6.7c0,0,0,0.1-0.1,0.1c-0.3,0.3-0.9,0.3-1.2,0c0,0,0,0,0,0
			c0,0,0,0,0-0.1c-1.3,1-2.8,1.6-4.5,1.6c-4,0-7.3-3.3-7.3-7.5c0-1.6,0.5-3.2,1.5-4.5c0,0-0.1,0-0.1-0.1c-0.4-0.4-0.4-1,0-1.5
			c0.4-0.4,1-0.4,1.4,0C-3.5-5-3.5-5-3.4-4.9l3.3-1.4c0-0.1,0-0.3,0-0.4C-0.1-7.3,0.4-7.7,1-7.6c0,0,0,0,0,0
			c0.6,0.1,0.9,0.6,0.8,1.2l3.4,1.3c0.3-0.5,0.9-0.6,1.4-0.4c0.2,0.1,0.3,0.2,0.4,0.4C7.2-4.6,7.1-4,6.6-3.7L8-0.1
			C8.1-0.1,8.1-0.1,8.2-0.1L8.2-0.1z M5.3-3.8C5.2-3.9,5.2-4,5.1-4.1L3.8-3.8c0,0.2-0.1,0.5-0.2,0.6l1.2,1.3C5-1.9,5.2-2,5.4-2
			l0.3-1.6C5.5-3.7,5.4-3.7,5.3-3.8z M7.3,1.3L7.3,1.3c-0.1-0.3-0.1-0.5,0-0.8L6.1-0.2C5.7,0.1,5.2,0.2,4.8-0.2L4.2,0.4
			c0.2,0.3,0.2,0.7,0,1.1L4.8,2c0.4-0.3,1-0.3,1.3,0.1C6.1,2.1,7.3,1.3,7.3,1.3z M4.5-0.6L4.5-0.6c-0.1-0.3-0.1-0.7,0.1-1L3.3-2.9
			C3-2.7,2.6-2.7,2.3-2.9L1.7-2.2C1.9-1.8,2-1.3,1.7-1l1,1.1c0.4-0.3,0.8-0.2,1.2,0l0.6-0.6C4.5-0.5,4.5-0.5,4.5-0.6L4.5-0.6z
			 M1.7-6L1.7-6c0,0.1-0.1,0.1-0.1,0.2l0.8,1.2l0,0c0.5-0.2,1.1,0,1.3,0.5c0,0,0,0,0,0L5-4.5c0-0.1,0-0.1,0-0.2L1.7-6L1.7-6z
			 M0.8-5.5L0.8-5.5c-0.1,0-0.2,0-0.3-0.1l-0.8,1.2c0.4,0.4,0.4,1,0.1,1.4l0.5,0.6c0.3-0.2,0.7-0.2,1,0L2-3.1C1.7-3.5,1.7-4.1,2-4.5
			L1.2-5.6C1.1-5.6,1-5.5,0.8-5.5z M0-6l-3.3,1.4c0,0.1,0,0.1,0,0.2l1.4,0.3c0.2-0.5,0.8-0.8,1.3-0.6c0,0,0,0,0,0l0.8-1.2
			C0.1-5.8,0-5.9,0-6z M-3.6-3.6L-3.6-3.6c-0.1,0.1-0.2,0.2-0.3,0.2L-3.6-2C-3.4-2-3.2-2-3.1-1.8l1.2-1.3C-1.9-3.3-2-3.5-2-3.7
			L-3.4-4C-3.4-3.8-3.5-3.7-3.6-3.6z M6.2,5.3l1.4-3.5c-0.1,0-0.1-0.1-0.2-0.1L6.3,2.5v0c0.2,0.5,0,1.1-0.5,1.3h0l0.3,1.5
			C6.1,5.3,6.2,5.3,6.2,5.3z M7.5,0.2L7.5,0.2c0-0.1,0.1-0.1,0.2-0.1L6.2-3.5c-0.1,0-0.1,0-0.2,0L5.7-1.9l0,0
			c0.5,0.2,0.8,0.8,0.5,1.3C6.3-0.6,7.5,0.2,7.5,0.2z"/>
	</g>
</g>
</svg>
