<svg xmlns="http://www.w3.org/2000/svg" xmlns:xlink="http://www.w3.org/1999/xlink" viewBox="0 0 125.031 179.166">
  <defs>
    <style>
      .cls-1 {
        fill: none;
      }

      .cls-2 {
        clip-path: url(#clip-path);
      }

      .cls-3 {
        opacity: 0;
      }

      .cls-4 {
        fill: url(#linear-gradient);
      }

      .cls-5 {
        fill: url(#linear-gradient-2);
      }
    </style>
    <clipPath id="clip-path">
      <path id="Path_1287" data-name="Path 1287" class="cls-1" d="M117.179-8.07,64.734-95.2,58.308-83.83H85.531a47.5,47.5,0,0,0,47.5-47.5V-132a47.5,47.5,0,0,0-47.5-47.5H8v15H85.531a32.5,32.5,0,0,1,32.5,32.5v.67a32.5,32.5,0,0,1-32.5,32.5H45.04l6.843,11.368L104.328-.334Z"/>
    </clipPath>
    <linearGradient id="linear-gradient" y1="0.044" x2="0" y2="5.733" gradientUnits="objectBoundingBox">
      <stop offset="0"/>
      <stop offset="0" stop-color="#6cfdcc"/>
      <stop offset="0.1" stop-color="#6af1d0"/>
      <stop offset="0.2" stop-color="#68e6d5"/>
      <stop offset="0.3" stop-color="#67dad9"/>
      <stop offset="0.4" stop-color="#65cfde"/>
      <stop offset="0.5" stop-color="#63c3e3"/>
      <stop offset="0.6" stop-color="#61b7e7"/>
      <stop offset="0.7" stop-color="#5faceb"/>
      <stop offset="0.8" stop-color="#5ea0f0"/>
      <stop offset="0.9" stop-color="#5c95f4"/>
      <stop offset="1" stop-color="#5a89f9"/>
      <stop offset="1"/>
    </linearGradient>
    <linearGradient id="linear-gradient-2" x1="0.466" y1="0.044" x2="0.466" y2="0.977" gradientUnits="objectBoundingBox">
      <stop offset="0" stop-color="#6cfdcc"/>
      <stop offset="0.1" stop-color="#6af1d0"/>
      <stop offset="0.2" stop-color="#68e6d5"/>
      <stop offset="0.3" stop-color="#67dad9"/>
      <stop offset="0.4" stop-color="#65cfde"/>
      <stop offset="0.5" stop-color="#63c3e3"/>
      <stop offset="0.6" stop-color="#61b7e7"/>
      <stop offset="0.7" stop-color="#5faceb"/>
      <stop offset="0.8" stop-color="#5ea0f0"/>
      <stop offset="0.9" stop-color="#5c95f4"/>
      <stop offset="1" stop-color="#5a89f9"/>
    </linearGradient>
  </defs>
  <g id="Group_1616" data-name="Group 1616" transform="translate(-8 179.5)">
    <g id="Group_1615" data-name="Group 1615" class="cls-2">
      <g id="Group_1613" data-name="Group 1613" class="cls-3">
        <g id="Group_1612" data-name="Group 1612" transform="translate(8 -172)">
          <path id="Path_1285" data-name="Path 1285" class="cls-4" d="M0-8H126V172H0Z"/>
        </g>
      </g>
      <g id="Group_1614" data-name="Group 1614" transform="translate(8 -172)">
        <path id="Path_1286" data-name="Path 1286" class="cls-5" d="M0-8H126V172H0Z"/>
      </g>
    </g>
  </g>
</svg>
