<?xml version="1.0" encoding="utf-8"?>
<!-- Generator: Adobe Illustrator 22.1.0, SVG Export Plug-In . SVG Version: 6.00 Build 0)  -->
<svg version="1.1" id="Layer_1" xmlns="http://www.w3.org/2000/svg" xmlns:xlink="http://www.w3.org/1999/xlink" x="0px" y="0px"
	 viewBox="0 0 1000 1000" style="enable-background:new 0 0 1000 1000;" xml:space="preserve">
<style type="text/css">
	.st0{fill:#F5BC00;}
</style>
<path class="st0" d="M306,420l194-194l194,194l112.7-112.7L500,0L192.7,307.3L306,420z M112.7,386.7L226,500L113.3,613.3L0,500
	L112.7,386.7z M306,580l194,194l194-194l113.3,112.7l0,0L500,1000L192.7,692.7l0,0L306,580z M1000,500L887.3,613.3L774,500.7
	l112.7-113.3L1000,500z"/>
<path class="st0" d="M594.7,500L594.7,500L498,403.3l-71.3,71.3l0,0l-8,8L401.3,500l0,0l0,0l96.7,96.7L594.7,500L594.7,500
	L594.7,500z"/>
</svg>
