<?xml version="1.0" encoding="utf-8"?>
<!-- Generator: Adobe Illustrator 22.1.0, SVG Export Plug-In . SVG Version: 6.00 Build 0)  -->
<svg version="1.1" id="Layer_1" xmlns="http://www.w3.org/2000/svg" xmlns:xlink="http://www.w3.org/1999/xlink" x="0px" y="0px"
	 viewBox="0 0 150 150" style="enable-background:new 0 0 150 150;" xml:space="preserve">
<style type="text/css">
	.st0{fill:#F5BC00;}
</style>
<path class="st0" d="M45.9,63L75,33.9L104.1,63l16.9-16.9L75,0L28.9,46.1L45.9,63z M16.9,58L33.9,75l-16.9,17L0,75L16.9,58z
	 M45.9,87L75,116.1L104.1,87l17,16.9l0,0L75,150l-46.1-46.1l0,0L45.9,87z M150,75L133.1,92l-17-16.9l16.9-17L150,75z"/>
<path class="st0" d="M89.2,75L89.2,75L74.7,60.5L64,71.2h0l-1.2,1.2L60.2,75l0,0l0,0l14.5,14.5L89.2,75L89.2,75L89.2,75z"/>
</svg>
