<?xml version="1.0" encoding="utf-8"?>
<!-- Generator: Adobe Illustrator 22.1.0, SVG Export Plug-In . SVG Version: 6.00 Build 0)  -->
<svg version="1.1" id="Layer_1" xmlns="http://www.w3.org/2000/svg" xmlns:xlink="http://www.w3.org/1999/xlink" x="0px" y="0px"
	 viewBox="0 0 150 150" style="enable-background:new 0 0 150 150;" xml:space="preserve">
<style type="text/css">
	.st0{fill:url(#SVGID_1_);}
	.st1{fill:url(#SVGID_2_);}
</style>
<g>
	<g>
		
			<linearGradient id="SVGID_1_" gradientUnits="userSpaceOnUse" x1="54.036" y1="471.5746" x2="95.5322" y2="569.5984" gradientTransform="matrix(1 0 0 1 0 -446)">
			<stop  offset="0" style="stop-color:#596378"/>
			<stop  offset="1" style="stop-color:#465168"/>
		</linearGradient>
		<path class="st0" d="M136.5,98.2c-3.1-2-7.2-1.7-10.3-0.3c0-0.3-0.3-0.9-0.6-1.1L113,75l12.6-21.8c0.3-0.3,0.3-0.9,0.6-1.1
			c3.1,1.7,6.9,1.7,10.3-0.3c5.2-2.9,6.9-9.4,4-14.6s-9.4-6.9-14.6-4c-3.1,2-5.2,5.2-5.4,8.9H94.1L81.5,20.3
			C81.3,20,81,19.8,81,19.5c2.9-2,4.9-5.2,4.9-8.9C85.8,4.6,81,0,75.2,0S64.7,4.9,64.7,10.6c0,3.7,2,7.2,4.9,8.9
			c-0.3,0.3-0.6,0.6-0.6,0.9L56.4,42.1H29.7c-0.3-3.4-2-6.9-5.4-8.9c-5.2-2.9-11.7-1.1-14.6,4s-1.1,11.7,4,14.6
			c3.1,2,7.2,1.7,10.3,0.3c0,0.3,0.3,0.9,0.6,1.1L37.2,75L24.3,96.8C24,97,24,97.6,23.7,97.9c-3.1-1.7-6.9-1.7-10.3,0.3
			c-5.2,2.9-6.9,9.4-4,14.6c2.9,5.2,9.4,6.9,14.6,4c3.1-2,5.2-5.2,5.4-8.9h26.3l12.6,21.8c0.3,0.3,0.6,0.6,0.6,0.9
			c-2.9,2-4.9,5.2-4.9,8.9c0,6,4.9,10.6,10.6,10.6s10.6-4.9,10.6-10.6c0-3.7-2-7.2-4.9-8.9c0.3-0.3,0.6-0.6,0.6-0.9l12.6-21.8h26.3
			c0.3,3.4,2,6.9,5.4,8.9c5.2,2.9,11.7,1.1,14.6-4C143.4,107.6,141.7,101,136.5,98.2z"/>
	</g>
	
		<linearGradient id="SVGID_2_" gradientUnits="userSpaceOnUse" x1="62.3377" y1="507.1481" x2="83.873" y2="535.1414" gradientTransform="matrix(1 0 0 1 0 -446)">
		<stop  offset="0" style="stop-color:#FFB648"/>
		<stop  offset="0.961" style="stop-color:#FF8E1E"/>
	</linearGradient>
	<path class="st1" d="M88.7,67.8c0-6-4.9-10.9-10.9-10.9H64.1c-1.4,0-2.6,1.1-2.6,2.6v30.9c0,1.4,1.1,2.6,2.6,2.6h13.7
		c6,0,10.9-4.9,10.9-10.9c0-2.6-0.9-5.2-2.6-6.9C87.6,73,88.7,70.7,88.7,67.8z"/>
</g>
</svg>
