<?xml version="1.0" encoding="utf-8"?>
<!-- Generator: Adobe Illustrator 22.1.0, SVG Export Plug-In . SVG Version: 6.00 Build 0)  -->
<svg version="1.1" id="Layer_1" xmlns="http://www.w3.org/2000/svg" xmlns:xlink="http://www.w3.org/1999/xlink" x="0px" y="0px"
	 viewBox="0 0 1000 1000" style="enable-background:new 0 0 1000 1000;" xml:space="preserve">
<style type="text/css">
	.st0{fill:url(#SVGID_1_);}
	.st1{fill:url(#SVGID_2_);}
</style>
<g>
	<g>
		
			<linearGradient id="SVGID_1_" gradientUnits="userSpaceOnUse" x1="360.5645" y1="385.5445" x2="637.0215" y2="-267.5122" gradientTransform="matrix(1 0 0 -1 0 556)">
			<stop  offset="0" style="stop-color:#596378"/>
			<stop  offset="1" style="stop-color:#465168"/>
		</linearGradient>
		<path class="st0" d="M910,654.3c-20.7-13.3-48-11.3-68.6-2c0-2-2-6-4-7.3l-83.9-145.2l83.9-145.2c2-2,2-6,4-7.3
			c20.7,11.3,46,11.3,68.6-2c34.6-19.3,46-62.6,26.6-97.3c-19.3-34.6-62.6-46-97.3-26.6c-20.7,13.3-34.6,34.6-36,59.3H627.5
			l-83.9-145.2c-1.3-2-3.3-3.3-3.3-5.3c19.3-13.3,32.6-34.6,32.6-59.3C572.2,30.7,540.3,0,501.6,0s-70,32.6-70,70.6
			c0,24.7,13.3,48,32.6,59.3c-2,2-4,4-4,6l-83.9,144.6H198.5c-2-22.7-13.3-46-36-59.3c-34.6-19.3-77.9-7.3-97.3,26.6
			s-7.3,77.9,26.6,97.3c20.7,13.3,48,11.3,68.6,2c0,2,2,6,4,7.3l83.9,145.2L162.5,645c-2,1.3-2,5.3-4,7.3c-20.7-11.3-46-11.3-68.6,2
			c-34.6,19.3-46,62.6-26.6,97.3s62.6,46,97.3,26.6c20.7-13.3,34.6-34.6,36-59.3h175.2l83.9,145.2c2,2,4,4,4,6
			c-19.3,13.3-32.6,34.6-32.6,59.3c0,40,32.6,70.6,70.6,70.6s70.6-32.6,70.6-70.6c0-24.7-13.3-48-32.6-59.3c2-2,4-4,4-6l83.9-145.2
			h175.2c2,22.7,13.3,46,36,59.3c34.6,19.3,77.9,7.3,97.3-26.6C956,716.9,944.7,672.9,910,654.3z"/>
	</g>
	
		<linearGradient id="SVGID_2_" gradientUnits="userSpaceOnUse" x1="416.0406" y1="148.6572" x2="559.5136" y2="-37.8406" gradientTransform="matrix(1 0 0 -1 0 556)">
		<stop  offset="0" style="stop-color:#FFB648"/>
		<stop  offset="0.961" style="stop-color:#FF8E1E"/>
	</linearGradient>
	<path class="st1" d="M591.6,451.7c0-40-32.6-72.6-72.6-72.6h-91.3c-9.3,0-17.3,7.3-17.3,17.3v205.9c0,9.3,7.3,17.3,17.3,17.3h91.3
		c40,0,72.6-32.6,72.6-72.6c0-17.3-6-34.6-17.3-46C584.2,486.4,591.6,471.1,591.6,451.7z"/>
</g>
</svg>
