<svg id="Layer_1" data-name="Layer 1" xmlns="http://www.w3.org/2000/svg" width="7.5in" height="7.5in" viewBox="0 0 540 540">
  <title>0X</title>
  <circle cx="269.78" cy="266.47" r="223.2" style="fill: #fff"/>
  <g>
    <path d="M262.37,46.8h15c2,0.21,4,.39,6,0.51a220,220,0,0,1,98.59,29.89c-6,4.77-12.46,9-18.64,13.58-39.22,28.09-78.34,56.34-117.62,84.35-3.31-2.75-6.16-6-9.31-8.91-9-8.52-17.6-17.4-26.65-25.84a43.25,43.25,0,0,0-6.51,3.11,145.85,145.85,0,0,0-54,49.87c-16.62-20.94-32.51-42.47-48.23-64.09-0.59-.83-1.11-1.7-1.62-2.57a214.94,214.94,0,0,1,18.63-19.61A222.9,222.9,0,0,1,243.5,48.48C249.76,47.63,256.09,47.46,262.37,46.8Z" style="fill: #1d2227"/>
    <path d="M362.15,136.82c16.79-12.82,33.67-25.56,50.93-37.74a222.65,222.65,0,0,1,70,236.71,220.43,220.43,0,0,1-19.07,44,22.16,22.16,0,0,1-3-3.62L380.25,269.41c-5.41-7.23-11-14.34-16.29-21.62,11.84-12.7,24.14-25,36-37.65a143.84,143.84,0,0,0-35.68-47.75A170.53,170.53,0,0,0,346.66,149C351.65,144.74,357,140.88,362.15,136.82Z" style="fill: #1d2227"/>
    <path d="M62.31,189a199.24,199.24,0,0,1,14.38-29.73c8.66,11,17,22.22,25.5,33.31q35.46,46.51,70.91,93a72.68,72.68,0,0,1,4.7,6.41c-4.72,5.05-9.7,9.86-14.46,14.88-7.55,7.91-15.4,15.53-22.84,23.54A121.46,121.46,0,0,0,151,349.32a143.33,143.33,0,0,0,22,25.75c6.25,6,13.29,11,20.38,15.92-5.47,4.63-11.26,8.86-16.91,13.26q-15.92,12.2-32.08,24.07c-5.85,4.17-11.49,8.64-17.51,12.56A224,224,0,0,1,54.31,326.43,237.66,237.66,0,0,1,47,275.58V263.87c0.19-2.54.39-5.08,0.53-7.63A221.82,221.82,0,0,1,62.31,189Z" style="fill: #1d2227"/>
    <path d="M375.93,366.23A170.75,170.75,0,0,0,391,346.63c3,3.61,5.79,7.4,8.7,11.08,14,18.21,27.78,36.59,41.11,55.28-0.48.7-1,1.4-1.49,2.07a226.67,226.67,0,0,1-36.95,34.35,222.54,222.54,0,0,1-104.49,42c-6.26.88-12.58,1.06-18.85,1.79H261.26c-5.73-.69-11.5-0.84-17.22-1.58a218.54,218.54,0,0,1-85.76-28.74C166,456.74,174,451,181.89,445.06q43.18-32.33,86.41-64.62c8-5.94,15.9-12.09,24.06-17.85,6.21,5.68,12,11.81,18.12,17.59,6.74,6.43,13.17,13.2,20,19.49A142.22,142.22,0,0,0,375.93,366.23Z" style="fill: #1d2227"/>
  </g>
</svg>
