<?xml version="1.0" encoding="utf-8"?>
<!-- Generator: Adobe Illustrator 23.0.1, SVG Export Plug-In . SVG Version: 6.00 Build 0)  -->
<svg version="1.1" id="Layer_1" xmlns="http://www.w3.org/2000/svg" xmlns:xlink="http://www.w3.org/1999/xlink" x="0px" y="0px"
	 viewBox="0 0 594.8 585.2" style="enable-background:new 0 0 594.8 585.2;" xml:space="preserve">
<style type="text/css">
	.st0{fill:#31D280;}
	.st1{fill:#31D280;stroke:#31D280;stroke-miterlimit:10;}
	.st2{fill:url(#SVGID_1_);}
	.st3{fill:#5ADB99;}
	.st4{fill:#2EC578;}
	.st5{fill:#ADEDCC;}
	.st6{fill:#C2F2D9;}
	.st7{fill:#FFFFFF;}
	.st8{fill:#1D3E46;}
</style>
<g transform="translate(-214.468 -72.904)">
	<g>
		<path class="st0" d="M362.9,100.5c0.6,0,1.2,0.2,1.8,0.5l27.4,15.8c1.1,0.6,1.8,1.8,1.8,3.1v31.7c0,1.3-0.7,2.4-1.8,3.1
			l-27.4,15.8c-0.5,0.3-1.2,0.5-1.8,0.5s-1.2-0.2-1.8-0.5l-27.4-15.8c-1.1-0.6-1.8-1.8-1.8-3.1v-31.7c0-1.3,0.7-2.4,1.8-3.1
			l27.4-15.8C361.7,100.7,362.3,100.5,362.9,100.5 M362.9,99.5c-0.8,0-1.6,0.2-2.3,0.6L333.2,116c-1.4,0.8-2.3,2.3-2.3,3.9v31.7
			c0,1.6,0.9,3.1,2.3,3.9l27.4,15.8c0.7,0.4,1.5,0.6,2.3,0.6c0.8,0,1.6-0.2,2.3-0.6l27.4-15.8c1.4-0.8,2.3-2.3,2.3-3.9v-31.7
			c0-1.6-0.9-3.1-2.3-3.9l-27.4-15.8C364.5,99.7,363.7,99.5,362.9,99.5L362.9,99.5z"/>
	</g>
	<path class="st1" d="M362.9,101.5c-0.4,0-0.9,0.1-1.3,0.3l-27.4,15.8c-0.8,0.5-1.3,1.3-1.3,2.2v31.7c0,0.9,0.5,1.7,1.3,2.2
		l27.4,15.8c0.4,0.2,0.8,0.3,1.3,0.3c0.4,0,0.9-0.1,1.3-0.3l27.4-15.8c0.8-0.5,1.3-1.3,1.3-2.2v-31.7c0-0.9-0.5-1.7-1.3-2.2
		l-27.4-15.8C363.8,101.6,363.3,101.5,362.9,101.5 M362.9,100.5c0.6,0,1.2,0.2,1.8,0.5l27.4,15.8c1.1,0.6,1.8,1.8,1.8,3.1v31.7
		c0,1.3-0.7,2.4-1.8,3.1l-27.4,15.8c-0.5,0.3-1.2,0.5-1.8,0.5c-0.6,0-1.2-0.2-1.8-0.5l-27.4-15.8c-1.1-0.6-1.8-1.8-1.8-3.1v-31.7
		c0-1.3,0.7-2.4,1.8-3.1l27.4-15.8C361.7,100.7,362.3,100.5,362.9,100.5z"/>
</g>
<g transform="translate(-320.469 -32.847)">
	<g>
		<path class="st0" d="M401.2,100.5c1.4,0,2.7,0.4,4,1.1l61.4,35.5c2.4,1.4,4,4,4,6.8v70.9c0,2.8-1.5,5.4-4,6.8l-61.4,35.5
			c-1.2,0.7-2.6,1.1-4,1.1s-2.7-0.4-4-1.1l-61.4-35.5c-2.4-1.4-4-4-4-6.8v-70.9c0-2.8,1.5-5.4,4-6.8l61.4-35.5
			C398.5,100.9,399.9,100.5,401.2,100.5 M401.2,99.5c-1.6,0-3.1,0.4-4.5,1.2l-61.4,35.5c-2.7,1.6-4.5,4.5-4.5,7.7v70.9
			c0,3.2,1.7,6.1,4.5,7.7l61.4,35.5c1.4,0.8,2.9,1.2,4.5,1.2c1.6,0,3.1-0.4,4.5-1.2l61.4-35.5c2.7-1.6,4.5-4.5,4.5-7.7v-70.9
			c0-3.2-1.7-6.1-4.5-7.7l-61.4-35.5C404.3,99.9,402.8,99.5,401.2,99.5L401.2,99.5z"/>
	</g>
	<path class="st1" d="M401.2,101.5c-1.2,0-2.4,0.3-3.5,0.9l-61.4,35.5c-2.1,1.2-3.5,3.5-3.5,6v70.9c0,2.5,1.3,4.8,3.5,6l61.4,35.5
		c1,0.6,2.2,0.9,3.5,0.9c1.2,0,2.4-0.3,3.5-0.9l61.4-35.5c2.1-1.2,3.5-3.5,3.5-6v-70.9c0-2.5-1.3-4.8-3.5-6l-61.4-35.5
		C403.6,101.8,402.5,101.5,401.2,101.5 M401.2,100.5c1.4,0,2.7,0.4,4,1.1l61.4,35.5c2.4,1.4,4,4,4,6.8v70.9c0,2.8-1.5,5.4-4,6.8
		l-61.4,35.5c-1.2,0.7-2.6,1.1-4,1.1s-2.7-0.4-4-1.1l-61.4-35.5c-2.4-1.4-4-4-4-6.8v-70.9c0-2.8,1.5-5.4,4-6.8l61.4-35.5
		C398.5,100.9,399.9,100.5,401.2,100.5z"/>
</g>
<g transform="translate(104.227 363.746)">
	<g>
		<path class="st0" d="M380.2,100.5c0.9,0,1.9,0.2,2.7,0.7l42.7,24.7c1.7,1,2.7,2.8,2.8,4.8V180c0,2-1,3.8-2.8,4.8l-42.7,24.7
			c-0.9,0.5-1.8,0.7-2.8,0.7s-1.9-0.2-2.8-0.7l-42.7-24.7c-1.7-1-2.7-2.8-2.8-4.8v-49.3c0-2,1-3.8,2.8-4.8l42.7-24.7
			C378.3,100.8,379.2,100.5,380.2,100.5 M380.2,99.5L380.2,99.5c-1.1,0-2.3,0.3-3.3,0.9l-42.7,24.7c-2,1.2-3.2,3.3-3.2,5.6V180
			c0,2.3,1.2,4.5,3.2,5.6l42.7,24.7c1,0.6,2.1,0.9,3.2,0.9c1.1,0,2.3-0.3,3.2-0.9l42.7-24.7c2-1.2,3.2-3.3,3.2-5.6v-49.3
			c0-2.3-1.2-4.5-3.2-5.6l-42.7-24.7C382.4,99.8,381.3,99.5,380.2,99.5L380.2,99.5z"/>
	</g>
	<path class="st1" d="M380.2,101.5c-0.8,0-1.6,0.2-2.2,0.6l-42.7,24.7c-1.4,0.8-2.2,2.3-2.2,3.9V180c0,1.6,0.9,3.1,2.2,3.9
		l42.7,24.7c0.7,0.4,1.5,0.6,2.2,0.6c0.8,0,1.6-0.2,2.3-0.6l42.7-24.7c1.4-0.8,2.3-2.3,2.3-3.9v-49.3c0-1.6-0.9-3.1-2.3-3.9
		l-42.7-24.7C381.7,101.7,380.9,101.5,380.2,101.5 M380.2,100.5c0.9,0,1.9,0.2,2.8,0.7l42.7,24.7c1.7,1,2.8,2.8,2.8,4.8V180
		c0,2-1,3.8-2.8,4.8l-42.7,24.7c-0.9,0.5-1.8,0.7-2.8,0.7c-0.9,0-1.9-0.2-2.7-0.7l-42.7-24.7c-1.7-1-2.7-2.8-2.7-4.8v-49.3
		c0-2,1-3.8,2.7-4.8l42.7-24.7C378.3,100.8,379.2,100.5,380.2,100.5z"/>
</g>
<g transform="translate(189.476 322.949)">
	<g>
		<path class="st0" d="M362.9,100.5c0.6,0,1.2,0.2,1.8,0.5l27.4,15.8c1.1,0.6,1.8,1.8,1.8,3.1v31.7c0,1.3-0.7,2.4-1.8,3.1
			l-27.4,15.8c-0.5,0.3-1.2,0.5-1.8,0.5s-1.2-0.2-1.8-0.5l-27.4-15.8c-1.1-0.6-1.8-1.8-1.8-3.1v-31.7c0-1.3,0.7-2.4,1.8-3.1
			l27.4-15.8C361.7,100.7,362.3,100.5,362.9,100.5 M362.9,99.5c-0.8,0-1.6,0.2-2.3,0.6L333.2,116c-1.4,0.8-2.3,2.3-2.3,3.9v31.7
			c0,1.6,0.9,3.1,2.3,3.9l27.4,15.8c0.7,0.4,1.5,0.6,2.3,0.6c0.8,0,1.6-0.2,2.3-0.6l27.4-15.8c1.4-0.8,2.3-2.3,2.3-3.9v-31.7
			c0-1.6-0.9-3.1-2.3-3.9l-27.4-15.8C364.5,99.7,363.7,99.5,362.9,99.5L362.9,99.5z"/>
	</g>
	<path class="st1" d="M362.9,101.5c-0.4,0-0.9,0.1-1.3,0.3l-27.4,15.8c-0.8,0.5-1.3,1.3-1.3,2.2v31.7c0,0.9,0.5,1.7,1.3,2.2
		l27.4,15.8c0.4,0.2,0.8,0.3,1.3,0.3s0.9-0.1,1.3-0.3l27.4-15.8c0.8-0.5,1.3-1.3,1.3-2.2v-31.7c0-0.9-0.5-1.7-1.3-2.2l-27.4-15.8
		C363.8,101.6,363.3,101.5,362.9,101.5 M362.9,100.5c0.6,0,1.2,0.2,1.8,0.5l27.4,15.8c1.1,0.6,1.8,1.8,1.8,3.1v31.7
		c0,1.3-0.7,2.4-1.8,3.1l-27.4,15.8c-0.5,0.3-1.2,0.5-1.8,0.5c-0.6,0-1.2-0.2-1.8-0.5l-27.4-15.8c-1.1-0.6-1.8-1.8-1.8-3.1v-31.7
		c0-1.3,0.7-2.4,1.8-3.1l27.4-15.8C361.7,100.7,362.3,100.5,362.9,100.5z"/>
</g>
<radialGradient id="SVGID_1_" cx="97.7787" cy="317.2537" r="0.5" gradientTransform="matrix(471.3929 0 0 -535.9982 -45775.6641 170326.6562)" gradientUnits="userSpaceOnUse">
	<stop  offset="0" style="stop-color:#2CBF74"/>
	<stop  offset="1" style="stop-color:#2ABA71"/>
</radialGradient>
<path class="st2" d="M303.1,14.9L94.3,135.4c-8.3,4.8-13.4,13.7-13.4,23.3v241.1c0,9.6,5.1,18.5,13.4,23.3l208.8,120.6
	c8.3,4.8,18.6,4.8,26.9,0l208.8-120.6c8.3-4.8,13.4-13.7,13.4-23.3V158.7c0-9.6-5.1-18.5-13.4-23.3L330,14.9
	C321.7,10.1,311.4,10.1,303.1,14.9z"/>
<g>
	<polygon class="st3" points="308.8,157.5 206.8,216.4 206.8,334.3 308.8,275.4 	"/>
	<polygon class="st4" points="316.7,289.1 214.7,348 316.7,406.9 418.7,348 	"/>
	<polygon class="st4" points="324.7,157.5 324.6,275.4 426.7,334.3 426.7,216.4 	"/>
	<g>
		<g>
			<polygon class="st5" points="206.8,216.4 231.3,230.6 231.3,247.1 255.7,261.2 231.3,275.4 231.3,291.8 255.7,306 206.8,334.3 
							"/>
			<polygon class="st0" points="324.7,157.5 426.7,216.4 402.2,230.6 387.9,222.3 363.4,236.5 363.4,208.2 349.1,200 324.6,214.1 
							"/>
			<g>
				<polygon class="st6" points="316.7,333.9 341.2,348 355.5,339.7 331,325.6 				"/>
				<path class="st6" d="M434.6,211.9l-117.9-68.1v136.1L198.8,348L316.7,416L434.6,348L434.6,211.9z M324.7,157.5l102,58.9v117.8
					l-24.5-14.1l0-89.5l-14.3-8.2v89.5l-24.5-14.1v-89.5l-14.3-8.2v89.5l-24.5-14.1V157.5z M369.8,376.3l-28.6,0v16.5l-24.5,14.1
					l-43.9-25.3l38.8-22.4l-14.3-8.2l-38.8,22.4L214.7,348l102-58.9l102,58.9L369.8,376.3z"/>
			</g>
			<polygon class="st0" points="297.3,350.9 297.3,300.3 258.6,322.7 258.6,373.3 			"/>
			<polygon class="st0" points="316.7,406.9 316.7,333.9 341.2,348 341.2,392.8 			"/>
			<polygon class="st0" points="331,325.6 331,297.3 316.7,289.1 316.7,333.9 			"/>
			<polygon class="st0" points="369.8,376.3 369.8,319.7 418.7,348 			"/>
			<path class="st7" d="M198.8,211.9l0,136.1l117.9-68.1V143.8L198.8,211.9z M308.8,185.8l-77.5,44.8l0,16.5l77.5-44.8v28.3
				l-77.5,44.8l0,16.5l77.5-44.8v28.3l-102,58.9V216.4l102-58.9V185.8z"/>
		</g>
		<path class="st8" d="M450,203l-133.3-76.9L183.5,203l0,153.9v0l0,0l133.3,76.9L450,356.9L450,203z M316.7,416L198.8,348l0,0v0
			l0-136.1l117.9-68.1l117.9,68.1l0,136.1L316.7,416z"/>
	</g>
</g>
</svg>
