<svg xmlns="http://www.w3.org/2000/svg" width="159.32" height="170.02" viewBox="0 0 159.32 170.02">
  <defs>
    <style>
      .cls-1 {
        fill: #fff;
      }

      .cls-2 {
        fill: #1d3e46;
      }

      .cls-3 {
        opacity: 0.5;
      }

      .cls-4 {
        fill: #31d280;
      }
    </style>
  </defs>
  <title>ethex-logo</title>
  <g id="Layer_2" data-name="Layer 2">
    <g id="Layer_6" data-name="Layer 6">
      <g>
        <path class="cls-1" d="M79.67,123.39l57.66,36.26,13.52-10.8V59L35.42,9.1,21.8,14V44L55.54,29.44,65.9,34.18,8.47,59v89.83L22,159.64ZM45.4,76,79.76,58.29v6L45.4,82Zm0,31.94L79.76,88.3v6.15L45.4,114Z"/>
        <polygon class="cls-1" points="123.91 9.1 90.33 23.62 137.53 44.02 137.53 14 123.91 9.1"/>
      </g>
      <path class="cls-2" d="M45.4,108V114L79.76,94.45V88.3ZM45.4,76v6L79.76,64.31v-6ZM21.8,14,35.42,9.1,150.85,59v89.83l-13.52,10.8L79.67,123.39,22,159.64,8.47,148.85V59L65.9,34.18,55.54,29.44,21.8,44Zm68.53,9.61L123.91,9.1,137.53,14V44ZM123.63,0l-3.08,1.33L87,15.85,79.66,19,38.78,1.33,35.7,0,32.55,1.14,18.93,6l-5.6,2V47.68L5.11,51.24,0,53.44v99.47l3.18,2.54,13.52,10.8L21.4,170l5.09-3.2,53.17-33.42,53.16,33.42,5.09,3.2,4.7-3.75,13.52-10.8,3.18-2.54V53.44l-5.11-2.21L146,47.69V8.05l-5.6-2-13.62-4.9Z"/>
      <g class="cls-3">
        <polygon class="cls-4" points="21.9 44.03 55.64 29.44 21.9 14 21.9 44.03"/>
        <polygon class="cls-4" points="79.76 40.48 79.76 61.61 79.76 64.31 74.64 66.95 69.18 69.76 79.76 75.35 79.76 91.7 79.76 91.7 79.76 94.45 76.11 96.53 69.18 100.48 79.66 106.67 79.76 106.56 79.76 123.38 79.76 123.39 137.42 159.65 137.42 66.87 79.76 40.48"/>
      </g>
    </g>
  </g>
</svg>
