<svg xmlns="http://www.w3.org/2000/svg" width="252.57" height="52.21" viewBox="0 0 252.57 52.21">
  <defs>
    <style>
      .cls-1 {
        fill: #1d3e46;
      }
    </style>
  </defs>
  <title>ethex-wordmark</title>
  <g id="Layer_2" data-name="Layer 2">
    <g id="Layer_6" data-name="Layer 6">
      <path class="cls-1" d="M0,52.21H39.61V39.06H15.81V32.41H39.06V19.26H15.81V13.15h23.8V0H0ZM45.41,13.78h14V52.21H75.23V13.78H89.17V0H45.41Zm83.92,4.7H110.63V0H94.81V52.21h15.81v-20h18.71v20h15.81V0H129.33Zm24.28,33.74h39.61V39.06h-23.8V32.41h23.25V19.26H169.42V13.15h23.8V0H153.61Zm81.5-26.85L251.39,0H232.68l-8.3,14.87L215.93,0H197.38l16.28,25.44L196.21,52.21h18.63l9.55-16,9.55,16h18.63Z"/>
    </g>
  </g>
</svg>
