<svg xmlns="http://www.w3.org/2000/svg" viewBox="0 0 37 37">
  <defs>
    <style>
      .cls-1 {
        fill: #fff;
      }

      .cls-2 {
        fill: #009bfd;
      }
    </style>
  </defs>
  <g id="Group_1704" data-name="Group 1704" transform="translate(-961 -821)">
    <ellipse id="Ellipse_234" data-name="Ellipse 234" class="cls-1" cx="17.13" cy="16.444" rx="17.13" ry="16.444" transform="translate(962.37 825.111)"/>
    <path id="Octicons-mark-github" class="cls-2" d="M18.5,0a18.5,18.5,0,0,0-5.848,36.054c.925.169,1.262-.4,1.262-.89,0-.44-.017-1.9-.026-3.444-5.144,1.118-6.232-2.182-6.232-2.182A4.905,4.905,0,0,0,5.6,26.833c-1.681-1.147.128-1.125.128-1.125a3.883,3.883,0,0,1,2.835,1.906A3.937,3.937,0,0,0,13.95,29.15a3.955,3.955,0,0,1,1.174-2.471C11.017,26.212,6.7,24.625,6.7,17.536a7.162,7.162,0,0,1,1.9-4.965,6.664,6.664,0,0,1,.183-4.9s1.551-.5,5.088,1.9a17.513,17.513,0,0,1,9.261,0c3.53-2.4,5.083-1.9,5.083-1.9a6.636,6.636,0,0,1,.185,4.9,7.141,7.141,0,0,1,1.9,4.965c0,7.107-4.327,8.672-8.448,9.13a4.407,4.407,0,0,1,1.256,3.424c0,2.473-.025,4.467-.025,5.077,0,.492.336,1.068,1.274.887A18.5,18.5,0,0,0,18.5,0Z" transform="translate(961 821)"/>
  </g>
</svg>
