<?xml version="1.0" encoding="utf-8"?>
<!-- Generator: Adobe Illustrator 22.1.0, SVG Export Plug-In . SVG Version: 6.00 Build 0)  -->
<svg version="1.1" id="Layer_2" xmlns="http://www.w3.org/2000/svg" xmlns:xlink="http://www.w3.org/1999/xlink" x="0px" y="0px"
	 viewBox="0 0 742 1246" style="enable-background:new 0 0 742 1246;" xml:space="preserve">
<style type="text/css">
	.st0{fill:#4E5166;}
	.st1{opacity:0.2;clip-path:url(#SVGID_2_);}
	.st2{fill:#151F22;}
	.st3{fill:#252728;}
	.st4{fill:#151923;}
	.st5{fill:#2B333B;}
	.st6{fill:#5C659C;}
	.st7{fill:#5062AF;}
	.st8{fill:#464F75;}
	.st9{fill:#485288;}
	.st10{fill:#3A4362;}
	.st11{fill:#373F4F;}
</style>
<rect class="st0" width="742" height="1246"/>
<g>
	<defs>
		<rect id="SVGID_1_" width="742" height="1246"/>
	</defs>
	<clipPath id="SVGID_2_">
		<use xlink:href="#SVGID_1_"  style="overflow:visible;"/>
	</clipPath>
	<g class="st1">
		<path id="Path_378" class="st2" d="M-57.1-133.4L85.7-259.6l142.4,126.2H-57.1z"/>
		<path id="Path_379" class="st3" d="M228.1-133.4L371-259.6l142.9,126.2H228.1z"/>
		<path id="Path_380" class="st3" d="M513.9-133.4l142.9-126.2l142.9,126.2H513.9z"/>
		<path id="Path_381" d="M85.7-259.6L-57.1-133.4L-200-259.6H85.7z"/>
		<path id="Path_382" class="st4" d="M371-259.6L228.1-133.4L85.7-259.6H371z"/>
		<path id="Path_383" class="st4" d="M656.7-259.6L513.9-133.4L371-259.6H656.7z"/>
		<path id="Path_384" class="st5" d="M942-259.6L799.6-133.4L656.7-259.6H942z"/>
		<path id="Path_385" class="st5" d="M799.6-133.4L656.7-7.2L513.9-133.4H799.6z"/>
		<path id="Path_386" class="st2" d="M513.9-133.4L371-7.2L228.1-133.4H513.9z"/>
		<path id="Path_387" d="M228.1-133.4L85.7-7.2L-57.1-133.4H228.1z"/>
		<path id="Path_388" class="st3" d="M656.7-7.2l142.9-126.2L942-7.2H656.7z"/>
		<path id="Path_389" class="st4" d="M371-7.2l142.9-126.2L656.7-7.2H371z"/>
		<path id="Path_390" class="st4" d="M85.7-7.2l142.4-126.2L371-7.2H85.7z"/>
		<path id="Path_391" class="st2" d="M-200-7.2l142.9-126.2L85.7-7.2H-200z"/>
		<path id="Path_392" class="st6" d="M-57.1,118.5L85.7-7.2l142.4,125.7H-57.1z"/>
		<path id="Path_393" class="st7" d="M228.1,118.5L371-7.2l142.9,125.7H228.1z"/>
		<path id="Path_394" class="st6" d="M513.9,118.5L656.7-7.2l142.9,125.7H513.9z"/>
		<path id="Path_395" class="st8" d="M85.7-7.2L-57.1,118.5L-200-7.2H85.7z"/>
		<path id="Path_396" class="st8" d="M371-7.2L228.1,118.5L85.7-7.2H371z"/>
		<path id="Path_397" class="st9" d="M656.7-7.2L513.9,118.5L371-7.2H656.7z"/>
		<path id="Path_398" class="st7" d="M942-7.2L799.6,118.5L656.7-7.2H942z"/>
		<path id="Path_399" class="st7" d="M799.6,118.5L656.7,244.7L513.9,118.5H799.6z"/>
		<path id="Path_400" class="st9" d="M513.9,118.5L371,244.7L228.1,118.5H513.9z"/>
		<path id="Path_401" class="st8" d="M228.1,118.5L85.7,244.7L-57.1,118.5H228.1z"/>
		<path id="Path_402" class="st9" d="M656.7,244.7l142.9-126.2L942,244.7H656.7z"/>
		<path id="Path_403" class="st6" d="M371,244.7l142.9-126.2l142.9,126.2H371z"/>
		<path id="Path_404" class="st7" d="M85.7,244.7l142.4-126.2L371,244.7H85.7z"/>
		<path id="Path_405" class="st9" d="M-200,244.7l142.9-126.2L85.7,244.7H-200z"/>
		<path id="Path_406" class="st6" d="M-57.1,370.9L85.7,244.7l142.4,126.2H-57.1z"/>
		<path id="Path_407" class="st7" d="M228.1,370.9L371,244.7l142.9,126.2H228.1z"/>
		<path id="Path_408" class="st7" d="M513.9,370.9l142.9-126.2l142.9,126.2H513.9z"/>
		<path id="Path_409" class="st8" d="M85.7,244.7L-57.1,370.9L-200,244.7H85.7z"/>
		<path id="Path_410" class="st9" d="M371,244.7L228.1,370.9L85.7,244.7H371z"/>
		<path id="Path_411" class="st9" d="M656.7,244.7L513.9,370.9L371,244.7H656.7z"/>
		<path id="Path_412" class="st6" d="M942,244.7L799.6,370.9L656.7,244.7H942z"/>
		<path id="Path_413" class="st6" d="M799.6,370.9L656.7,497L513.9,370.9H799.6z"/>
		<path id="Path_414" class="st9" d="M513.9,370.9L371,497L228.1,370.9H513.9z"/>
		<path id="Path_415" class="st9" d="M228.1,370.9L85.7,497L-57.1,370.9H228.1z"/>
		<path id="Path_416" class="st7" d="M656.7,497l142.9-126.2L942,497H656.7z"/>
		<path id="Path_417" class="st7" d="M371,497l142.9-126.2L656.7,497H371z"/>
		<path id="Path_418" class="st6" d="M85.7,497l142.4-126.2L371,497H85.7z"/>
		<path id="Path_419" class="st8" d="M-200,497l142.9-126.2L85.7,497H-200z"/>
		<path id="Path_420" class="st8" d="M-57.1,622.8L85.7,497l142.4,125.7H-57.1z"/>
		<path id="Path_421" class="st8" d="M228.1,622.8L371,497l142.9,125.7H228.1z"/>
		<path id="Path_422" class="st7" d="M513.9,622.8L656.7,497l142.9,125.7H513.9z"/>
		<path id="Path_423" class="st10" d="M85.7,497L-57.1,622.8L-200,497H85.7z"/>
		<path id="Path_424" class="st9" d="M371,497L228.1,622.8L85.7,497H371z"/>
		<path id="Path_425" class="st6" d="M656.7,497L513.9,622.8L371,497H656.7z"/>
		<path id="Path_426" class="st6" d="M942,497L799.6,622.8L656.7,497H942z"/>
		<path id="Path_427" class="st6" d="M799.6,622.8L656.7,749L513.9,622.8H799.6z"/>
		<path id="Path_428" class="st6" d="M513.9,622.8L371,749L228.1,622.8H513.9z"/>
		<path id="Path_429" class="st11" d="M228.1,622.8L85.7,749L-57.1,622.8H228.1z"/>
		<path id="Path_430" class="st7" d="M656.7,749l142.9-126.2L942,749H656.7z"/>
		<path id="Path_431" class="st9" d="M371,749l142.9-126.2L656.7,749H371z"/>
		<path id="Path_432" class="st9" d="M85.7,749l142.4-126.2L371,749H85.7z"/>
		<path id="Path_433" class="st10" d="M-200,749l142.9-126.2L85.7,749H-200z"/>
		<path id="Path_434" class="st10" d="M-57.1,875.1L85.7,749l142.4,126.2H-57.1z"/>
		<path id="Path_435" class="st9" d="M228.1,875.1L371,749l142.9,126.2H228.1z"/>
		<path id="Path_436" class="st9" d="M513.9,875.1L656.7,749l142.9,126.2H513.9z"/>
		<path id="Path_437" class="st11" d="M85.7,749L-57.1,875.1L-200,749H85.7z"/>
		<path id="Path_438" class="st8" d="M371,749L228.1,875.1L85.7,749H371z"/>
		<path id="Path_439" class="st8" d="M656.7,749L513.9,875.1L371,749H656.7z"/>
		<path id="Path_440" class="st6" d="M942,749L799.6,875.1L656.7,749H942z"/>
		<path id="Path_441" class="st6" d="M799.6,875.1l-142.9,126.2L513.9,875.1H799.6z"/>
		<path id="Path_442" class="st10" d="M513.9,875.1L371,1001.3L228.1,875.1H513.9z"/>
		<path id="Path_443" class="st8" d="M228.1,875.1L85.7,1001.3L-57.1,875.1H228.1z"/>
		<path id="Path_444" class="st9" d="M656.7,1001.3l142.9-126.2L942,1001.3H656.7z"/>
		<path id="Path_445" class="st9" d="M371,1001.3l142.9-126.2l142.9,126.2H371z"/>
		<path id="Path_446" class="st11" d="M85.7,1001.3l142.4-126.2L371,1001.3H85.7z"/>
		<path id="Path_447" class="st10" d="M-200,1001.3l142.9-126.2l142.9,126.2H-200z"/>
		<path id="Path_448" class="st8" d="M-57.1,1127l142.9-125.7L228.1,1127H-57.1z"/>
		<path id="Path_449" class="st11" d="M228.1,1127L371,1001.3L513.9,1127H228.1z"/>
		<path id="Path_450" class="st11" d="M513.9,1127l142.9-125.7L799.6,1127H513.9z"/>
		<path id="Path_451" class="st11" d="M85.7,1001.3L-57.1,1127L-200,1001.3H85.7z"/>
		<path id="Path_452" class="st10" d="M371,1001.3L228.1,1127L85.7,1001.3H371z"/>
		<path id="Path_453" class="st10" d="M656.7,1001.3L513.9,1127L371,1001.3H656.7z"/>
		<path id="Path_454" class="st8" d="M942,1001.3L799.6,1127l-142.9-125.7H942z"/>
		<path id="Path_455" class="st8" d="M799.6,1127l-142.9,126.2L513.9,1127H799.6z"/>
		<path id="Path_456" class="st10" d="M513.9,1127L371,1253.2L228.1,1127H513.9z"/>
		<path id="Path_457" class="st10" d="M228.1,1127L85.7,1253.2L-57.1,1127H228.1z"/>
		<path id="Path_458" class="st11" d="M656.7,1253.2L799.6,1127L942,1253.2H656.7z"/>
		<path id="Path_459" class="st11" d="M371,1253.2L513.9,1127l142.9,126.2H371z"/>
		<path id="Path_460" class="st11" d="M85.7,1253.2L228.1,1127L371,1253.2H85.7z"/>
		<path id="Path_461" class="st11" d="M-200,1253.2L-57.1,1127l142.9,126.2H-200z"/>
		<path id="Path_462" class="st2" d="M-57.1,1379.4l142.9-126.2l142.4,126.2H-57.1z"/>
		<path id="Path_463" class="st4" d="M228.1,1379.4L371,1253.2l142.9,126.2H228.1z"/>
		<path id="Path_464" class="st4" d="M513.9,1379.4l142.9-126.2l142.9,126.2H513.9z"/>
		<path id="Path_465" d="M85.7,1253.2l-142.9,126.2L-200,1253.2H85.7z"/>
		<path id="Path_466" d="M371,1253.2l-142.9,126.2L85.7,1253.2H371z"/>
		<path id="Path_467" class="st2" d="M656.7,1253.2l-142.9,126.2L371,1253.2H656.7z"/>
		<path id="Path_468" class="st2" d="M942,1253.2l-142.4,126.2l-142.9-126.2H942z"/>
		<path id="Path_469" d="M799.6,1379.4l-142.9,126.2l-142.9-126.2H799.6z"/>
		<path id="Path_470" d="M513.9,1379.4L371,1505.6l-142.9-126.2H513.9z"/>
		<path id="Path_471" d="M228.1,1379.4L85.7,1505.6l-142.9-126.2H228.1z"/>
		<path id="Path_472" class="st2" d="M656.7,1505.6l142.9-126.2L942,1505.6H656.7z"/>
		<path id="Path_473" class="st2" d="M371,1505.6l142.9-126.2l142.9,126.2H371z"/>
		<path id="Path_474" class="st2" d="M85.7,1505.6l142.4-126.2L371,1505.6H85.7z"/>
		<path id="Path_475" class="st2" d="M-200,1505.6l142.9-126.2l142.9,126.2H-200z"/>
	</g>
</g>
</svg>
