<?xml version="1.0" encoding="utf-8"?>
<!-- Generator: Adobe Illustrator 22.1.0, SVG Export Plug-In . SVG Version: 6.00 Build 0)  -->
<svg version="1.1" id="Layer_1" xmlns="http://www.w3.org/2000/svg" xmlns:xlink="http://www.w3.org/1999/xlink" x="0px" y="0px"
	 viewBox="0 0 822 823" style="enable-background:new 0 0 822 823;" xml:space="preserve">
<style type="text/css">
	.st0{fill:#00CAEE;}
	.st1{fill:none;stroke:#00CAEE;stroke-width:0.4699;stroke-miterlimit:10;}
	.st2{fill:#1D3E46;}
	.st3{fill:#1D3E46;stroke:#00CAEE;stroke-width:1.5063;stroke-miterlimit:10;}
	.st4{fill:none;stroke:#FFFFFF;stroke-width:2.8277;stroke-linecap:round;stroke-miterlimit:10;}
	.st5{fill:none;stroke:#00CAEE;stroke-width:0.9398;stroke-miterlimit:10;}
</style>
<g>
	<circle class="st0" cx="429.9" cy="546.9" r="3.5"/>
	<circle class="st0" cx="278.1" cy="526.1" r="3.5"/>
	<circle class="st0" cx="238.8" cy="604.9" r="3.5"/>
	<circle class="st0" cx="149.8" cy="62" r="3.5"/>
	<circle class="st0" cx="558.8" cy="550.4" r="3.5"/>
	<circle class="st0" cx="589.2" cy="520.6" r="3.5"/>
	<circle class="st0" cx="544.1" cy="519.6" r="3.5"/>
	<circle class="st0" cx="604.5" cy="116.5" r="3.5"/>
	<circle class="st0" cx="191.8" cy="604.9" r="3.5"/>
	<circle class="st0" cx="136" cy="307" r="3.5"/>
	<circle class="st0" cx="767.6" cy="442.6" r="3.5"/>
	<circle class="st0" cx="220.1" cy="382.3" r="3.5"/>
	<circle class="st0" cx="578.7" cy="385.8" r="3.5"/>
	<circle class="st0" cx="452.4" cy="281.2" r="3.5"/>
	<polyline class="st1" points="558.8,550.4 544.1,519.6 429.9,546.9 578.7,385.8 452.4,281.2 278.1,526.1 238.8,604.9 191.8,604.9 
		278.1,526.1 220.1,382.3 191.8,604.9 	"/>
	<polyline class="st1" points="149.8,62 604.5,116.5 767.6,442.6 578.7,385.8 589.2,520.6 558.8,550.4 767.6,442.6 589.2,520.6 
		544.1,519.6 578.7,385.8 604.5,116.5 452.4,281.2 149.8,62 220.1,382.3 136,307 149.8,62 	"/>
	<polyline class="st1" points="278.1,526.1 429.9,546.9 558.8,550.4 238.8,604.9 	"/>
	<line class="st1" x1="452.4" y1="281.2" x2="429.9" y2="546.9"/>
</g>
<g>
	<g>
		<g>
			<path class="st2" d="M331,813.9c-1.6,0-3-1.3-3-3V668.6c0-1.6,1.3-3,3-3h154c1.6,0,3,1.3,3,3v142.3c0,1.6-1.3,3-3,3H331z"/>
			<path class="st0" d="M485,666.4c1.2,0,2.2,1,2.2,2.2v142.3c0,1.2-1,2.2-2.2,2.2H331c-1.2,0-2.2-1-2.2-2.2V668.6
				c0-1.2,1-2.2,2.2-2.2H485 M485,664.9H331c-2.1,0-3.7,1.7-3.7,3.7v142.3c0,2.1,1.7,3.7,3.7,3.7h154c2.1,0,3.7-1.7,3.7-3.7V668.6
				C488.8,666.6,487.1,664.9,485,664.9L485,664.9z"/>
		</g>
		<g>
			<path class="st3" d="M358.9,664.9v-6.4c0-1.3,1-2.3,2.3-2.3h36.2c1.3,0,2.3,1,2.3,2.3v6.4"/>
			<path class="st3" d="M416.2,664.9v-6.4c0-1.3,1-2.3,2.3-2.3h36.2c1.3,0,2.3,1,2.3,2.3v6.4"/>
		</g>
		<g>
			<g>
				<line class="st4" x1="358.9" y1="694.9" x2="439.9" y2="694.9"/>
				<line class="st4" x1="447.1" y1="694.9" x2="457.1" y2="694.9"/>
			</g>
			<g>
				<line class="st4" x1="358.9" y1="703.9" x2="417.3" y2="703.9"/>
				<line class="st4" x1="424.4" y1="703.9" x2="457.1" y2="703.9"/>
			</g>
			<g>
				<line class="st4" x1="358.9" y1="712.9" x2="434.3" y2="712.9"/>
				<line class="st4" x1="441.4" y1="712.9" x2="457.1" y2="712.9"/>
			</g>
			<g>
				<line class="st4" x1="358.9" y1="721.8" x2="439.9" y2="721.8"/>
				<line class="st4" x1="447.1" y1="721.8" x2="457.1" y2="721.8"/>
			</g>
			<g>
				<line class="st4" x1="358.9" y1="730.8" x2="417.3" y2="730.8"/>
				<line class="st4" x1="424.4" y1="730.8" x2="457.1" y2="730.8"/>
			</g>
			<g>
				<line class="st4" x1="358.9" y1="739.8" x2="434.3" y2="739.8"/>
				<line class="st4" x1="441.4" y1="739.8" x2="457.1" y2="739.8"/>
			</g>
			<g>
				<line class="st4" x1="358.9" y1="748.8" x2="417.3" y2="748.8"/>
				<line class="st4" x1="424.4" y1="748.8" x2="457.1" y2="748.8"/>
			</g>
			<g>
				<line class="st4" x1="358.9" y1="757.7" x2="434.3" y2="757.7"/>
				<line class="st4" x1="441.4" y1="757.7" x2="457.1" y2="757.7"/>
			</g>
			<g>
				<line class="st4" x1="358.9" y1="766.7" x2="439.9" y2="766.7"/>
				<line class="st4" x1="447.1" y1="766.7" x2="457.1" y2="766.7"/>
			</g>
			<g>
				<line class="st4" x1="358.9" y1="775.7" x2="417.3" y2="775.7"/>
				<line class="st4" x1="424.4" y1="775.7" x2="457.1" y2="775.7"/>
			</g>
			<g>
				<line class="st4" x1="358.9" y1="784.6" x2="434.3" y2="784.6"/>
				<line class="st4" x1="441.4" y1="784.6" x2="457.1" y2="784.6"/>
			</g>
		</g>
	</g>
	<g>
		<g>
			<path class="st2" d="M331,665.6c-1.6,0-3-1.3-3-3V520.3c0-1.6,1.3-3,3-3h154c1.6,0,3,1.3,3,3v142.3c0,1.6-1.3,3-3,3H331z"/>
			<path class="st0" d="M485,518.1c1.2,0,2.2,1,2.2,2.2v142.3c0,1.2-1,2.2-2.2,2.2H331c-1.2,0-2.2-1-2.2-2.2V520.3
				c0-1.2,1-2.2,2.2-2.2H485 M485,516.6H331c-2.1,0-3.7,1.7-3.7,3.7v142.3c0,2.1,1.7,3.7,3.7,3.7h154c2.1,0,3.7-1.7,3.7-3.7V520.3
				C488.8,518.3,487.1,516.6,485,516.6L485,516.6z"/>
		</g>
		<g>
			<path class="st3" d="M358.9,516.6v-6.4c0-1.3,1-2.3,2.3-2.3h36.2c1.3,0,2.3,1,2.3,2.3v6.4"/>
			<path class="st3" d="M416.2,516.6v-6.4c0-1.3,1-2.3,2.3-2.3h36.2c1.3,0,2.3,1,2.3,2.3v6.4"/>
		</g>
		<g>
			<g>
				<line class="st4" x1="358.9" y1="546.6" x2="439.9" y2="546.6"/>
				<line class="st4" x1="447.1" y1="546.6" x2="457.1" y2="546.6"/>
			</g>
			<g>
				<line class="st4" x1="358.9" y1="555.6" x2="417.3" y2="555.6"/>
				<line class="st4" x1="424.4" y1="555.6" x2="457.1" y2="555.6"/>
			</g>
			<g>
				<line class="st4" x1="358.9" y1="564.6" x2="434.3" y2="564.6"/>
				<line class="st4" x1="441.4" y1="564.6" x2="457.1" y2="564.6"/>
			</g>
			<g>
				<line class="st4" x1="358.9" y1="573.6" x2="439.9" y2="573.6"/>
				<line class="st4" x1="447.1" y1="573.6" x2="457.1" y2="573.6"/>
			</g>
			<g>
				<line class="st4" x1="358.9" y1="582.5" x2="417.3" y2="582.5"/>
				<line class="st4" x1="424.4" y1="582.5" x2="457.1" y2="582.5"/>
			</g>
			<g>
				<line class="st4" x1="358.9" y1="591.5" x2="434.3" y2="591.5"/>
				<line class="st4" x1="441.4" y1="591.5" x2="457.1" y2="591.5"/>
			</g>
			<g>
				<line class="st4" x1="358.9" y1="600.5" x2="417.3" y2="600.5"/>
				<line class="st4" x1="424.4" y1="600.5" x2="457.1" y2="600.5"/>
			</g>
			<g>
				<line class="st4" x1="358.9" y1="609.4" x2="434.3" y2="609.4"/>
				<line class="st4" x1="441.4" y1="609.4" x2="457.1" y2="609.4"/>
			</g>
			<g>
				<line class="st4" x1="358.9" y1="618.4" x2="439.9" y2="618.4"/>
				<line class="st4" x1="447.1" y1="618.4" x2="457.1" y2="618.4"/>
			</g>
			<g>
				<line class="st4" x1="358.9" y1="627.4" x2="417.3" y2="627.4"/>
				<line class="st4" x1="424.4" y1="627.4" x2="457.1" y2="627.4"/>
			</g>
			<g>
				<line class="st4" x1="358.9" y1="636.4" x2="434.3" y2="636.4"/>
				<line class="st4" x1="441.4" y1="636.4" x2="457.1" y2="636.4"/>
			</g>
		</g>
	</g>
	<g>
		<g>
			<path class="st2" d="M331,517.7c-1.6,0-3-1.3-3-3V372.4c0-1.6,1.3-3,3-3h154c1.6,0,3,1.3,3,3v142.3c0,1.6-1.3,3-3,3H331z"/>
			<path class="st0" d="M485,370.2c1.2,0,2.2,1,2.2,2.2v142.3c0,1.2-1,2.2-2.2,2.2H331c-1.2,0-2.2-1-2.2-2.2V372.4
				c0-1.2,1-2.2,2.2-2.2H485 M485,368.6H331c-2.1,0-3.7,1.7-3.7,3.7v142.3c0,2.1,1.7,3.7,3.7,3.7h154c2.1,0,3.7-1.7,3.7-3.7V372.4
				C488.8,370.3,487.1,368.6,485,368.6L485,368.6z"/>
		</g>
		<g>
			<path class="st3" d="M358.9,368.6v-6.4c0-1.3,1-2.3,2.3-2.3h36.2c1.3,0,2.3,1,2.3,2.3v6.4"/>
			<path class="st3" d="M416.2,368.6v-6.4c0-1.3,1-2.3,2.3-2.3h36.2c1.3,0,2.3,1,2.3,2.3v6.4"/>
		</g>
	</g>
	<g>
		<g>
			<path class="st2" d="M331,369.8c-1.6,0-3-1.3-3-3V224.5c0-1.6,1.3-3,3-3h154c1.6,0,3,1.3,3,3v142.3c0,1.6-1.3,3-3,3H331z"/>
			<path class="st0" d="M485,222.2c1.2,0,2.2,1,2.2,2.2v142.3c0,1.2-1,2.2-2.2,2.2H331c-1.2,0-2.2-1-2.2-2.2V224.5
				c0-1.2,1-2.2,2.2-2.2H485 M485,220.7H331c-2.1,0-3.7,1.7-3.7,3.7v142.3c0,2.1,1.7,3.7,3.7,3.7h154c2.1,0,3.7-1.7,3.7-3.7V224.5
				C488.8,222.4,487.1,220.7,485,220.7L485,220.7z"/>
		</g>
		<g>
			<path class="st3" d="M358.9,220.7v-6.4c0-1.3,1-2.3,2.3-2.3h36.2c1.3,0,2.3,1,2.3,2.3v6.4"/>
			<path class="st3" d="M416.2,220.7v-6.4c0-1.3,1-2.3,2.3-2.3h36.2c1.3,0,2.3,1,2.3,2.3v6.4"/>
		</g>
	</g>
	<g>
		<path class="st2" d="M331,221.4c-1.6,0-3-1.3-3-3V76.1c0-1.6,1.3-3,3-3h154c1.6,0,3,1.3,3,3v142.3c0,1.6-1.3,3-3,3H331z"/>
		<path class="st0" d="M485,73.9c1.2,0,2.2,1,2.2,2.2v142.3c0,1.2-1,2.2-2.2,2.2H331c-1.2,0-2.2-1-2.2-2.2V76.1c0-1.2,1-2.2,2.2-2.2
			H485 M485,72.4H331c-2.1,0-3.7,1.7-3.7,3.7v142.3c0,2.1,1.7,3.7,3.7,3.7h154c2.1,0,3.7-1.7,3.7-3.7V76.1
			C488.8,74.1,487.1,72.4,485,72.4L485,72.4z"/>
	</g>
	<g>
		<path class="st3" d="M358.9,72.4V66c0-1.3,1-2.3,2.3-2.3h36.2c1.3,0,2.3,1,2.3,2.3v6.4"/>
		<path class="st3" d="M416.2,72.4V66c0-1.3,1-2.3,2.3-2.3h36.2c1.3,0,2.3,1,2.3,2.3v6.4"/>
	</g>
	<g>
		<g>
			<line class="st4" x1="358.9" y1="102.4" x2="439.9" y2="102.4"/>
			<line class="st4" x1="447.1" y1="102.4" x2="457.1" y2="102.4"/>
		</g>
		<g>
			<line class="st4" x1="358.9" y1="111.4" x2="417.3" y2="111.4"/>
			<line class="st4" x1="424.4" y1="111.4" x2="457.1" y2="111.4"/>
		</g>
		<g>
			<line class="st4" x1="358.9" y1="120.4" x2="434.3" y2="120.4"/>
			<line class="st4" x1="441.4" y1="120.4" x2="457.1" y2="120.4"/>
		</g>
		<g>
			<line class="st4" x1="358.9" y1="129.4" x2="439.9" y2="129.4"/>
			<line class="st4" x1="447.1" y1="129.4" x2="457.1" y2="129.4"/>
		</g>
		<g>
			<line class="st4" x1="358.9" y1="138.3" x2="417.3" y2="138.3"/>
			<line class="st4" x1="424.4" y1="138.3" x2="457.1" y2="138.3"/>
		</g>
		<g>
			<line class="st4" x1="358.9" y1="147.3" x2="434.3" y2="147.3"/>
			<line class="st4" x1="441.4" y1="147.3" x2="457.1" y2="147.3"/>
		</g>
		<g>
			<line class="st4" x1="358.9" y1="156.3" x2="417.3" y2="156.3"/>
			<line class="st4" x1="424.4" y1="156.3" x2="457.1" y2="156.3"/>
		</g>
		<g>
			<line class="st4" x1="358.9" y1="165.2" x2="434.3" y2="165.2"/>
			<line class="st4" x1="441.4" y1="165.2" x2="457.1" y2="165.2"/>
		</g>
		<g>
			<line class="st4" x1="358.9" y1="174.2" x2="439.9" y2="174.2"/>
			<line class="st4" x1="447.1" y1="174.2" x2="457.1" y2="174.2"/>
		</g>
		<g>
			<line class="st4" x1="358.9" y1="183.2" x2="417.3" y2="183.2"/>
			<line class="st4" x1="424.4" y1="183.2" x2="457.1" y2="183.2"/>
		</g>
		<g>
			<line class="st4" x1="358.9" y1="192.1" x2="434.3" y2="192.1"/>
			<line class="st4" x1="441.4" y1="192.1" x2="457.1" y2="192.1"/>
		</g>
	</g>
	<g>
		<g>
			<line class="st4" x1="358.8" y1="248.9" x2="439.9" y2="248.9"/>
			<line class="st4" x1="447" y1="248.9" x2="457.1" y2="248.9"/>
		</g>
		<g>
			<line class="st4" x1="358.8" y1="257.8" x2="417.3" y2="257.8"/>
			<line class="st4" x1="424.4" y1="257.8" x2="457.1" y2="257.8"/>
		</g>
		<g>
			<line class="st4" x1="358.8" y1="266.8" x2="434.3" y2="266.8"/>
			<line class="st4" x1="441.4" y1="266.8" x2="457.1" y2="266.8"/>
		</g>
		<g>
			<line class="st4" x1="358.8" y1="275.8" x2="439.9" y2="275.8"/>
			<line class="st4" x1="447" y1="275.8" x2="457.1" y2="275.8"/>
		</g>
		<g>
			<line class="st4" x1="358.8" y1="284.7" x2="417.3" y2="284.7"/>
			<line class="st4" x1="424.4" y1="284.7" x2="457.1" y2="284.7"/>
		</g>
		<g>
			<line class="st4" x1="358.8" y1="293.7" x2="434.3" y2="293.7"/>
			<line class="st4" x1="441.4" y1="293.7" x2="457.1" y2="293.7"/>
		</g>
		<g>
			<line class="st4" x1="358.8" y1="302.7" x2="417.3" y2="302.7"/>
			<line class="st4" x1="424.4" y1="302.7" x2="457.1" y2="302.7"/>
		</g>
		<g>
			<line class="st4" x1="358.8" y1="311.7" x2="434.3" y2="311.7"/>
			<line class="st4" x1="441.4" y1="311.7" x2="457.1" y2="311.7"/>
		</g>
		<g>
			<line class="st4" x1="358.8" y1="320.6" x2="439.9" y2="320.6"/>
			<line class="st4" x1="447" y1="320.6" x2="457.1" y2="320.6"/>
		</g>
		<g>
			<line class="st4" x1="358.8" y1="329.6" x2="417.3" y2="329.6"/>
			<line class="st4" x1="424.4" y1="329.6" x2="457.1" y2="329.6"/>
		</g>
		<g>
			<line class="st4" x1="358.8" y1="338.6" x2="434.3" y2="338.6"/>
			<line class="st4" x1="441.4" y1="338.6" x2="457.1" y2="338.6"/>
		</g>
	</g>
	<g>
		<g>
			<line class="st4" x1="358.8" y1="398.7" x2="439.9" y2="398.7"/>
			<line class="st4" x1="447" y1="398.7" x2="457.1" y2="398.7"/>
		</g>
		<g>
			<line class="st4" x1="358.8" y1="407.7" x2="417.3" y2="407.7"/>
			<line class="st4" x1="424.4" y1="407.7" x2="457.1" y2="407.7"/>
		</g>
		<g>
			<line class="st4" x1="358.8" y1="416.6" x2="434.3" y2="416.6"/>
			<line class="st4" x1="441.4" y1="416.6" x2="457.1" y2="416.6"/>
		</g>
		<g>
			<line class="st4" x1="358.8" y1="425.6" x2="439.9" y2="425.6"/>
			<line class="st4" x1="447" y1="425.6" x2="457.1" y2="425.6"/>
		</g>
		<g>
			<line class="st4" x1="358.8" y1="434.6" x2="417.3" y2="434.6"/>
			<line class="st4" x1="424.4" y1="434.6" x2="457.1" y2="434.6"/>
		</g>
		<g>
			<line class="st4" x1="358.8" y1="443.5" x2="434.3" y2="443.5"/>
			<line class="st4" x1="441.4" y1="443.5" x2="457.1" y2="443.5"/>
		</g>
		<g>
			<line class="st4" x1="358.8" y1="452.5" x2="417.3" y2="452.5"/>
			<line class="st4" x1="424.4" y1="452.5" x2="457.1" y2="452.5"/>
		</g>
		<g>
			<line class="st4" x1="358.8" y1="461.5" x2="434.3" y2="461.5"/>
			<line class="st4" x1="441.4" y1="461.5" x2="457.1" y2="461.5"/>
		</g>
		<g>
			<line class="st4" x1="358.8" y1="470.5" x2="439.9" y2="470.5"/>
			<line class="st4" x1="447" y1="470.5" x2="457.1" y2="470.5"/>
		</g>
		<g>
			<line class="st4" x1="358.8" y1="479.4" x2="417.3" y2="479.4"/>
			<line class="st4" x1="424.4" y1="479.4" x2="457.1" y2="479.4"/>
		</g>
		<g>
			<line class="st4" x1="358.8" y1="488.4" x2="434.3" y2="488.4"/>
			<line class="st4" x1="441.4" y1="488.4" x2="457.1" y2="488.4"/>
		</g>
	</g>
</g>
<g>
	<image style="overflow:visible;" width="796" height="734" xlink:href="F43CA4FE4FC3714A.png"  transform="matrix(1 0 0 1 13 -4)">
	</image>
	<g>
		<g>
			<circle class="st0" cx="616.1" cy="308.4" r="6.2"/>
			<circle class="st0" cx="464.9" cy="116.6" r="6.2"/>
			<circle class="st0" cx="324" cy="698.8" r="6.2"/>
			<circle class="st0" cx="161.1" cy="412" r="6.2"/>
			<circle class="st0" cx="179.8" cy="303.6" r="6.2"/>
			<circle class="st0" cx="269.8" cy="436.5" r="6.2"/>
			<circle class="st0" cx="725.2" cy="316" r="6.2"/>
			<circle class="st0" cx="778.8" cy="263.3" r="6.2"/>
			<circle class="st0" cx="699.3" cy="261.7" r="6.2"/>
			<circle class="st0" cx="106.4" cy="600.8" r="6.2"/>
			<circle class="st0" cx="78.3" cy="412" r="6.2"/>
			<circle class="st0" cx="43.8" cy="508.3" r="6.2"/>
			<circle class="st0" cx="667.5" cy="606.7" r="6.2"/>
			<circle class="st0" cx="83.1" cy="210.1" r="6.2"/>
			<circle class="st0" cx="645.2" cy="26.5" r="6.2"/>
			<polygon class="st5" points="43.8,508.3 106.4,600.8 324,698.8 667.5,606.7 778.8,263.3 645.2,26.5 464.9,116.6 83.1,210.1 
				78.3,412 			"/>
			<polygon class="st5" points="179.8,303.6 83.1,210.1 161.1,412 269.8,436.5 			"/>
			<polygon class="st5" points="699.3,261.7 778.8,263.3 725.2,316 			"/>
			<polyline class="st5" points="645.2,26.5 699.3,261.7 616.1,308.4 725.2,316 667.5,606.7 616.1,308.4 464.9,116.6 179.8,303.6 
				616.1,308.4 269.8,436.5 324,698.8 161.1,412 106.4,600.8 78.3,412 161.1,412 			"/>
			<line class="st5" x1="616.1" y1="308.4" x2="324" y2="698.8"/>
		</g>
	</g>
</g>
</svg>
