<?xml version="1.0" encoding="utf-8"?>
<!-- Generator: Adobe Illustrator 22.1.0, SVG Export Plug-In . SVG Version: 6.00 Build 0)  -->
<svg version="1.1" id="Layer_1" xmlns="http://www.w3.org/2000/svg" xmlns:xlink="http://www.w3.org/1999/xlink" x="0px" y="0px"
	 viewBox="0 0 250 250" style="enable-background:new 0 0 250 250;" xml:space="preserve">
<style type="text/css">
	.st0{fill:#F5F5F5;}
	.st1{fill:#FF6363;}
	.st2{fill:#4E5166;}
</style>
<g>
	<g>
		<path class="st0" d="M136.6,171c0.1,0.1,0.2,0.2,0.4,0.2c0.4,0.2,0.8,0.3,1.3,0.3s0.9-0.1,1.3-0.3c0.1-0.1,0.4-0.3,0.4-0.3
			c0.6-0.5,1-1.2,1-2c0-1.5-1.2-2.6-2.6-2.6s-2.6,1.2-2.6,2.6C135.6,169.7,135.9,170.4,136.6,171L136.6,171z"/>
		<path class="st0" d="M148.9,160.4h-20.2c-1.6,0-3,0.9-3.8,2.3c-0.7-1.4-2.1-2.3-3.7-2.3h-20.2c-1.6,0-2.9,1.3-2.9,2.9v32.2
			c0,1.6,1.3,2.9,2.9,2.9h23.4h1h23.4c1.6,0,2.8-1.3,2.8-2.8v-32.3C151.8,161.7,150.5,160.4,148.9,160.4z M120.5,192.8h-17.2
			c-0.3,0-0.5-0.2-0.5-0.5s0.2-0.5,0.5-0.5h17.2c0.3,0,0.5,0.2,0.5,0.5S120.8,192.8,120.5,192.8z M120.5,187.5h-17.2
			c-0.3,0-0.5-0.2-0.5-0.5s0.2-0.5,0.5-0.5h17.2c0.3,0,0.5,0.2,0.5,0.5S120.8,187.5,120.5,187.5z M120.5,182.2h-17.2
			c-0.3,0-0.5-0.2-0.5-0.5s0.2-0.5,0.5-0.5h17.2c0.3,0,0.5,0.2,0.5,0.5S120.8,182.2,120.5,182.2z M132.5,175.9c0.2-2,1.3-3.7,3-4.7
			c-0.5-0.6-0.8-1.5-0.8-2.3c0-2,1.6-3.6,3.6-3.6s3.6,1.6,3.6,3.6c0,0.9-0.3,1.7-0.8,2.3c1.7,1,2.8,2.7,3,4.7l0,0.2l-0.2,0l-0.5,0
			l-0.2,0l0-0.2c-0.2-1.8-1.2-3.4-2.8-4.1c-0.6,0.4-1.3,0.6-2,0.6c-0.7,0-1.4-0.2-2-0.6c-1.5,0.8-2.6,2.3-2.8,4.1l0,0.2l-0.2,0
			l-0.5,0l-0.2,0L132.5,175.9z M146.7,192.8h-17.2c-0.3,0-0.5-0.2-0.5-0.5s0.2-0.5,0.5-0.5h17.2c0.3,0,0.5,0.2,0.5,0.5
			S147,192.8,146.7,192.8z M146.7,187.5h-17.2c-0.3,0-0.5-0.2-0.5-0.5s0.2-0.5,0.5-0.5h17.2c0.3,0,0.5,0.2,0.5,0.5
			S147,187.5,146.7,187.5z M146.7,182.2h-17.2c-0.3,0-0.5-0.2-0.5-0.5s0.2-0.5,0.5-0.5h17.2c0.3,0,0.5,0.2,0.5,0.5
			S147,182.2,146.7,182.2z"/>
	</g>
	<g>
		<path class="st0" d="M143.3,58.2h-36.6c-2.8,0-5.1,2.3-5.1,5.1v21.1c0,2.8,2.3,5.1,5.1,5.1h36.6c2.8,0,5.1-2.3,5.1-5.1V63.3
			C148.4,60.5,146.1,58.2,143.3,58.2z M122.8,64.7h19.6c0.3,0,0.5,0.2,0.5,0.5s-0.2,0.5-0.5,0.5h-19.6c-0.3,0-0.5-0.2-0.5-0.5
			S122.5,64.7,122.8,64.7z M122.8,70.1h19.6c0.3,0,0.5,0.2,0.5,0.5s-0.2,0.5-0.5,0.5h-19.6c-0.3,0-0.5-0.2-0.5-0.5
			S122.5,70.1,122.8,70.1z M122.8,75.6h19.6c0.3,0,0.5,0.2,0.5,0.5s-0.2,0.5-0.5,0.5h-19.6c-0.3,0-0.5-0.2-0.5-0.5
			S122.5,75.6,122.8,75.6z M107.5,76.6c0.2-2,1.3-3.7,3-4.7c-0.5-0.6-0.8-1.5-0.8-2.3c0-2,1.6-3.6,3.6-3.6s3.6,1.6,3.6,3.6
			c0,0.9-0.3,1.7-0.8,2.3c1.7,1,2.8,2.7,3,4.7l0,0.2l-0.2,0l-0.5,0l-0.2,0l0-0.2c-0.2-1.8-1.2-3.4-2.8-4.1c-0.6,0.4-1.3,0.6-2,0.6
			c-0.7,0-1.4-0.2-2-0.6c-1.5,0.8-2.6,2.3-2.8,4.1l0,0.2l-0.2,0l-0.5,0l-0.2,0L107.5,76.6z M142.4,82.1h-34.7
			c-0.3,0-0.5-0.2-0.5-0.5s0.2-0.5,0.5-0.5h34.7c0.3,0,0.5,0.2,0.5,0.5S142.7,82.1,142.4,82.1z"/>
		<path class="st0" d="M111.6,71.7c0.1,0.1,0.2,0.2,0.4,0.2c0.4,0.2,0.8,0.3,1.3,0.3s0.9-0.1,1.3-0.3c0.1-0.1,0.4-0.3,0.4-0.3
			c0.6-0.5,1-1.2,1-2c0-1.5-1.2-2.6-2.6-2.6s-2.6,1.2-2.6,2.6C110.6,70.4,110.9,71.1,111.6,71.7L111.6,71.7z"/>
	</g>
	<g>
		<g>
			<path class="st1" d="M125,10C61.5,10,10,61.5,10,125s51.5,115,115,115s115-51.5,115-115S188.5,10,125,10z M36.1,125
				c0-49.1,39.8-88.9,88.9-88.9c19.7,0,37.9,6.4,52.6,17.3L53.4,177.6C42.5,162.9,36.1,144.7,36.1,125z M125,213.9
				c-19.7,0-37.9-6.4-52.6-17.3L196.6,72.4c10.8,14.7,17.3,32.9,17.3,52.6C213.9,174.1,174.1,213.9,125,213.9z"/>
		</g>
		<g>
			<g>
				<g>
					<path class="st0" d="M95.3,131h-5.1v-4.2h4.5c1.3,0,2-1,2-1.9c0-1-0.7-1.9-2-1.9h-4.5v-4h4.8c1.3,0,1.9-1,1.9-1.9
						c0-1-0.6-1.9-1.9-1.9h-6.8c-1.5,0-2.1,1-2.1,2.4v15.1c0,1.2,0.9,2.1,2.1,2.1h7.1c1.3,0,1.9-1,1.9-1.9
						C97.3,131.9,96.6,131,95.3,131z M114,123.2h-4.7c-1,0-1.9,0.7-1.9,1.9c0,1.1,0.8,1.9,1.9,1.9h2.8c0,3.1-2.5,4.3-4.7,4.3
						c-3.5,0-5.1-3-5.1-6.3c0-3.3,1.7-6.3,5.1-6.3c3.6,0,4,2,5.8,2c1,0,1.7-0.7,1.7-1.9c0-1.9-3.4-3.9-7.5-3.9
						c-5.6,0-9.4,4.4-9.4,10.1c0,5.7,3.9,10.1,9.4,10.1c5.5,0,8.9-4,8.9-9.3C116.4,124.1,115.7,123.2,114,123.2z M178.5,131.6
						l-4.7-5c2.8-0.4,5.1-2.2,5.1-5.2c0-4.3-2.6-6.2-6.8-6.2h-4.8c-1.4,0-2.1,0.8-2.1,2.1v15.4c0,1.4,0.9,2.1,2.1,2.1
						c1.2,0,2.1-0.8,2.1-2.1v-5.9h0.1l6.1,7.4c0.4,0.5,1.1,0.7,1.6,0.7c1.2,0,2.1-1,2.1-2.1C179.1,132.4,178.9,132,178.5,131.6z
						 M169.3,123.9V119h2.8c1.5,0,2.5,0.8,2.5,2.4c0,1.5-1,2.4-2.5,2.4H169.3z M79.6,126.6c2.8-0.4,5.1-2.2,5.1-5.2
						c0-4.3-2.6-6.2-6.8-6.2H73c-1.4,0-2.1,0.8-2.1,2.1v15.4c0,1.4,0.9,2.1,2.1,2.1c1.2,0,2.1-0.8,2.1-2.1v-5.9h0.1l6.1,7.4
						c0.4,0.5,1.1,0.7,1.6,0.7c1.2,0,2.1-1,2.1-2.1c0-0.4-0.2-0.8-0.5-1.2L79.6,126.6z M75,123.9V119h2.8c1.5,0,2.5,0.8,2.5,2.4
						c0,1.5-1,2.4-2.5,2.4H75z M149.8,115.3h-10.1c-1.2,0-1.9,0.9-1.9,1.9c0,0.9,0.5,1.9,1.9,1.9h3v13.7c0,1.4,0.9,2.1,2.1,2.1
						c1.2,0,2.1-0.8,2.1-2.1V119h3c1.3,0,1.9-1,1.9-1.9C151.6,116.2,150.9,115.3,149.8,115.3z M161.7,131h-5.1v-4.2h4.5
						c1.3,0,2-1,2-1.9c0-1-0.7-1.9-2-1.9h-4.5v-4h4.8c1.3,0,1.9-1,1.9-1.9c0-1-0.6-1.9-1.9-1.9h-6.8c-1.5,0-2.1,1-2.1,2.4v15.1
						c0,1.2,0.9,2.1,2.1,2.1h7.1c1.3,0,1.9-1,1.9-1.9C163.6,131.9,163,131,161.7,131z M128.5,120.6c0-1.1,1.1-1.8,2.2-1.8
						c1.6,0,2.5,0.8,3.6,0.8c1.1,0,1.8-1,1.8-2c0-2.2-3.8-2.7-5.4-2.7c-3.6,0-6.8,2.4-6.8,6.2c0,6.4,9.1,4.4,9.1,7.6
						c0,1.3-1,2.4-2.8,2.4c-1.8,0-3.3-1.1-4.6-1.1c-1.1,0-1.8,0.9-1.8,1.9c0,2.6,4.5,3.1,6.7,3.1c3.8,0,7-2.4,7-6.4
						C137.6,121.7,128.5,123.5,128.5,120.6z M120.2,115.1c-1.2,0-2.1,0.8-2.1,2.1v15.6c0,1.4,0.9,2.1,2.1,2.1c1.2,0,2.1-0.8,2.1-2.1
						v-15.6C122.2,115.9,121.3,115.1,120.2,115.1z"/>
				</g>
			</g>
		</g>
		<path class="st2" d="M125,10c63.5,0,115,51.5,115,115s-51.5,115-115,115S10,188.5,10,125S61.5,10,125,10 M53.4,177.6L177.6,53.4
			c-14.7-10.8-32.9-17.3-52.6-17.3c-49.1,0-88.9,39.8-88.9,88.9C36.1,144.7,42.5,162.9,53.4,177.6 M125,213.9
			c49.1,0,88.9-39.8,88.9-88.9c0-19.7-6.4-37.9-17.3-52.6L72.4,196.6C87.1,207.5,105.3,213.9,125,213.9 M125,9C94,9,64.9,21.1,43,43
			C21.1,64.9,9,94,9,125s12.1,60.1,34,82s51,34,82,34s60.1-12.1,82-34s34-51,34-82s-12.1-60.1-34-82C185.1,21.1,156,9,125,9L125,9z
			 M53.5,176.1c-10.7-15-16.4-32.6-16.4-51.1c0-48.5,39.4-87.9,87.9-87.9c18.5,0,36.1,5.7,51.1,16.4L53.5,176.1L53.5,176.1z
			 M73.9,196.5L196.5,73.9c10.7,15,16.4,32.6,16.4,51.1c0,48.5-39.4,87.9-87.9,87.9C106.5,212.9,88.9,207.2,73.9,196.5L73.9,196.5z"
			/>
	</g>
</g>
</svg>
