<?xml version="1.0" encoding="utf-8"?>
<!-- Generator: Adobe Illustrator 22.1.0, SVG Export Plug-In . SVG Version: 6.00 Build 0)  -->
<svg version="1.1" id="Layer_1" xmlns="http://www.w3.org/2000/svg" xmlns:xlink="http://www.w3.org/1999/xlink" x="0px" y="0px"
	 viewBox="0 0 515 612" style="enable-background:new 0 0 515 612;" xml:space="preserve">
<style type="text/css">
	.st0{fill:#00CAEE;}
	.st1{fill:none;stroke:#00CAEE;stroke-width:0.2896;stroke-miterlimit:10;}
	.st2{fill:#009BFD;}
	.st3{fill:#009BFD;stroke:#00CAEE;stroke-width:2;stroke-miterlimit:10;}
	.st4{fill:none;stroke:#00CAEE;stroke-width:0.5791;stroke-miterlimit:10;}
	.st5{fill:#4E5166;}
	.st6{fill:#FFFFFF;}
	.st7{fill:none;stroke:#009BFD;stroke-width:3.9849;stroke-linecap:round;stroke-miterlimit:10;}
	.st8{fill:#1A1B22;}
	.st9{font-family:'CoreSansC-85Heavy';}
	.st10{font-size:10.1268px;}
	.st11{fill:#ECECEC;}
	.st12{clip-path:url(#SVGID_2_);}
	.st13{clip-path:url(#SVGID_4_);fill:#FFFFFF;}
	.st14{clip-path:url(#SVGID_4_);fill:#1D3E46;}
	.st15{clip-path:url(#SVGID_4_);}
	.st16{opacity:0.5;clip-path:url(#SVGID_6_);}
	.st17{clip-path:url(#SVGID_8_);fill:#31D280;}
	.st18{fill:none;stroke:#1A1B22;stroke-width:4.2166;stroke-linecap:round;stroke-miterlimit:10;}
	.st19{fill:none;stroke:#1D3E46;stroke-width:3.2352;stroke-linecap:round;stroke-miterlimit:10;}
	.st20{fill:none;stroke:#ECECEC;stroke-width:0.949;stroke-miterlimit:10;}
	.st21{fill:none;stroke:#ECECEC;stroke-width:0.9135;stroke-miterlimit:10;}
	.st22{fill:#E6E6E6;}
	.st23{fill:#65C9FF;}
	.st24{fill:#EDB98A;}
	.st25{filter:url(#Adobe_OpacityMaskFilter);}
	.st26{mask:url(#mask-6_4_);fill-opacity:0.1;}
	.st27{fill:#4A312C;}
	.st28{fill-opacity:0.24;}
	.st29{fill:#262E33;}
	.st30{fill:#3A4C5A;}
	.st31{fill:#2F4351;}
	.st32{fill:#AE5D29;}
	.st33{filter:url(#Adobe_OpacityMaskFilter_1_);}
	.st34{mask:url(#mask-6_3_);fill-opacity:0.1;}
	.st35{fill:#724133;}
	.st36{fill:#25557C;}
	.st37{fill:#898582;}
	.st38{fill:#505050;}
	.st39{fill:#3A3A3A;}
	.st40{fill:#1A1A1A;}
	.st41{fill:#806E67;}
	.st42{fill:#DBDAD6;}
	.st43{fill:#828282;}
	.st44{fill:#FF8600;}
	.st45{fill:#89450F;}
	.st46{fill:#F47900;}
	.st47{fill:#E76800;}
	.st48{fill:#DEC6B7;}
	.st49{fill:#252120;}
</style>
<circle class="st0" cx="267.4" cy="425.9" r="2.2"/>
<circle class="st0" cx="173.8" cy="413" r="2.2"/>
<circle class="st0" cx="149.6" cy="461.6" r="2.2"/>
<circle class="st0" cx="94.8" cy="127" r="2.2"/>
<circle class="st0" cx="346.7" cy="428" r="2.2"/>
<circle class="st0" cx="365.5" cy="409.6" r="2.2"/>
<circle class="st0" cx="337.7" cy="409.1" r="2.2"/>
<circle class="st0" cx="374.9" cy="160.6" r="2.2"/>
<circle class="st0" cx="120.6" cy="461.6" r="2.2"/>
<circle class="st0" cx="36.2" cy="258" r="2.2"/>
<circle class="st0" cx="475.4" cy="361.6" r="2.2"/>
<circle class="st0" cx="94.9" cy="349.1" r="2.2"/>
<circle class="st0" cx="359" cy="326.6" r="2.2"/>
<circle class="st0" cx="281.2" cy="262.1" r="2.2"/>
<polyline class="st1" points="346.7,428 337.7,409.1 267.4,425.9 359,326.6 281.2,262.1 173.8,413 149.6,461.6 120.6,461.6 
	173.8,413 94.9,349.1 120.6,461.6 "/>
<polyline class="st1" points="94.8,127 374.9,160.6 475.4,361.6 359,326.6 365.5,409.6 346.7,428 475.4,361.6 365.5,409.6 
	337.7,409.1 359,326.6 374.9,160.6 281.2,262.1 94.8,127 94.9,349.1 36.2,258 94.8,127 "/>
<polyline class="st1" points="173.8,413 267.4,425.9 346.7,428 149.6,461.6 "/>
<line class="st1" x1="281.2" y1="262.1" x2="267.4" y2="425.9"/>
<g>
	<g>
		<path class="st2" d="M149.5,398.2c-1.5,0-2.7-1.2-2.7-2.7V204c0-1.5,1.2-2.7,2.7-2.7h207c1.5,0,2.7,1.2,2.7,2.7v191.4
			c0,1.5-1.2,2.7-2.7,2.7H149.5z"/>
		<path class="st0" d="M356.5,202.3c1,0,1.7,0.8,1.7,1.7v191.4c0,1-0.8,1.7-1.7,1.7h-207c-1,0-1.7-0.8-1.7-1.7V204
			c0-1,0.8-1.7,1.7-1.7H356.5 M356.5,200.3h-207c-2.1,0-3.7,1.7-3.7,3.7v191.4c0,2.1,1.7,3.7,3.7,3.7h207c2.1,0,3.7-1.7,3.7-3.7V204
			C360.2,201.9,358.5,200.3,356.5,200.3L356.5,200.3z"/>
	</g>
	<g>
		<path class="st3" d="M187.8,200.3v-8.5c0-1.7,1.4-3.1,3.1-3.1H239c1.7,0,3.1,1.4,3.1,3.1v8.5"/>
		<path class="st3" d="M263.9,200.3v-8.5c0-1.7,1.4-3.1,3.1-3.1h48.1c1.7,0,3.1,1.4,3.1,3.1v8.5"/>
	</g>
</g>
<g>
	<circle class="st0" cx="392.5" cy="271.9" r="3.8"/>
	<circle class="st0" cx="288.9" cy="126.5" r="3.8"/>
	<circle class="st0" cx="202.1" cy="485.2" r="3.8"/>
	<circle class="st0" cx="101.7" cy="308.5" r="3.8"/>
	<circle class="st0" cx="113.2" cy="241.7" r="3.8"/>
	<circle class="st0" cx="129.7" cy="291.6" r="3.8"/>
	<circle class="st0" cx="449.3" cy="249.3" r="3.8"/>
	<circle class="st0" cx="482.3" cy="216.9" r="3.8"/>
	<circle class="st0" cx="433.3" cy="215.9" r="3.8"/>
	<circle class="st0" cx="68" cy="424.9" r="3.8"/>
	<circle class="st0" cx="50.7" cy="308.5" r="3.8"/>
	<circle class="st0" cx="29.5" cy="367.8" r="3.8"/>
	<circle class="st0" cx="413.7" cy="428.5" r="3.8"/>
	<circle class="st0" cx="53.7" cy="184.1" r="3.8"/>
	<circle class="st0" cx="400" cy="71" r="3.8"/>
	<polygon class="st4" points="29.5,367.8 68,424.9 202.1,485.2 413.7,428.5 482.3,216.9 400,71 288.9,126.5 53.7,184.1 50.7,308.5 	
		"/>
	<polygon class="st4" points="113.2,241.7 53.7,184.1 101.7,308.5 129.7,291.6 	"/>
	<polygon class="st4" points="433.3,215.9 482.3,216.9 449.3,249.3 	"/>
	<polyline class="st4" points="400,71 433.3,215.9 392.5,271.9 449.3,249.3 413.7,428.5 392.5,271.9 288.9,126.5 113.2,241.7 
		392.5,271.9 129.7,291.6 202.1,485.2 101.7,308.5 68,424.9 50.7,308.5 101.7,308.5 	"/>
</g>
<line class="st4" x1="392.5" y1="271.9" x2="202.1" y2="485.2"/>
<g>
	<path class="st5" d="M304.8,373.5H191.8c-1.2,0-2.1-1-2.1-2.1V229.7c0-1.2,1-2.1,2.1-2.1h124c1.2,0,2.1,1,2.1,2.1v130.6
		C318,367.6,312.1,373.5,304.8,373.5z"/>
	<g>
		<path class="st6" d="M304.2,371.9h-114c-1.2,0-2.1-1-2.1-2.1V228c0-1.2,1-2.1,2.1-2.1h124c1.2,0,2.1,1,2.1,2.1v131.7
			C316.3,366.4,310.9,371.9,304.2,371.9z"/>
	</g>
	<g>
		<line class="st7" x1="200.6" y1="262.2" x2="303.7" y2="262.2"/>
		<line class="st7" x1="200.6" y1="274.5" x2="253.8" y2="274.5"/>
		<line class="st7" x1="200.6" y1="286.7" x2="243.4" y2="286.7"/>
		<line class="st7" x1="200.6" y1="298.9" x2="253.8" y2="298.9"/>
	</g>
	<text transform="matrix(1 0 0 1 198.7246 248.9805)" class="st8 st9 st10">SMART CONTRACT</text>
	<g>
		<circle class="st11" cx="284.6" cy="293.6" r="19.2"/>
		<g id="Ethex_Logo_2_">
			<g>
				<defs>
					<rect id="SVGID_1_" x="274.5" y="283.4" width="20.1" height="21.5"/>
				</defs>
				<clipPath id="SVGID_2_">
					<use xlink:href="#SVGID_1_"  style="overflow:visible;"/>
				</clipPath>
				<g class="st12">
					<defs>
						<rect id="SVGID_3_" x="274.5" y="283.4" width="20.1" height="21.5"/>
					</defs>
					<clipPath id="SVGID_4_">
						<use xlink:href="#SVGID_3_"  style="overflow:visible;"/>
					</clipPath>
					<path class="st13" d="M284.6,299l7.3,4.6l1.7-1.4v-11.3l-14.6-6.3l-1.7,0.6v3.8l4.3-1.8l1.3,0.6l-7.3,3.1v11.3l1.7,1.4
						L284.6,299z M280.2,293l4.3-2.2v0.8l-4.3,2.2V293z M280.2,297l4.3-2.5v0.8l-4.3,2.5V297z"/>
					<polygon class="st13" points="290.1,284.6 285.9,286.4 291.9,289 291.9,285.2 					"/>
					<path class="st14" d="M280.2,297v0.8l4.3-2.5v-0.8L280.2,297z M280.2,293v0.8l4.3-2.2v-0.8L280.2,293z M277.2,285.2l1.7-0.6
						l14.6,6.3v11.3l-1.7,1.4l-7.3-4.6l-7.3,4.6l-1.7-1.4v-11.3l7.3-3.1l-1.3-0.6l-4.3,1.8V285.2z M285.9,286.4l4.2-1.8l1.7,0.6v3.8
						L285.9,286.4z M290.1,283.4l-0.4,0.2l-4.2,1.8l-0.9,0.4l-5.2-2.2l-0.4-0.2l-0.4,0.1l-1.7,0.6l-0.7,0.3v0.8v4.3l-1,0.4l-0.6,0.3
						v0.7v11.3v0.5l0.4,0.3l1.7,1.4l0.6,0.5l0.6-0.4l6.7-4.2l6.7,4.2l0.6,0.4l0.6-0.5l1.7-1.4l0.4-0.3v-12.6l-0.6-0.3l-1-0.4V289
						v-3.8v-0.8l-0.7-0.3l-1.7-0.6L290.1,283.4z"/>
					<g class="st15">
						<defs>
							<rect id="SVGID_5_" x="274.5" y="283.4" width="20.1" height="21.5"/>
						</defs>
						<clipPath id="SVGID_6_">
							<use xlink:href="#SVGID_5_"  style="overflow:visible;"/>
						</clipPath>
						<g class="st16">
							<g>
								<defs>
									<rect id="SVGID_7_" x="277.3" y="285.2" width="14.6" height="18.4"/>
								</defs>
								<clipPath id="SVGID_8_">
									<use xlink:href="#SVGID_7_"  style="overflow:visible;"/>
								</clipPath>
								<polygon class="st17" points="277.3,289 281.5,287.1 277.3,285.2 								"/>
								<polygon class="st17" points="284.6,288.5 284.6,291.2 284.6,291.5 283.9,291.9 283.2,292.2 284.6,292.9 284.6,295 
									284.6,295 284.6,295.3 284.1,295.6 283.2,296.1 284.6,296.9 284.6,296.9 284.6,299 284.6,299 291.8,303.6 291.8,291.9 
																	"/>
							</g>
						</g>
					</g>
				</g>
			</g>
		</g>
	</g>
	<g>
		<g>
			<line class="st18" x1="258.7" y1="351.9" x2="303.7" y2="351.9"/>
		</g>
		<g>
			<line class="st19" x1="300.5" y1="334.2" x2="298" y2="343.1"/>
			<line class="st19" x1="293.4" y1="339.6" x2="292.4" y2="343.1"/>
			<line class="st19" x1="276.8" y1="339.6" x2="275.8" y2="343.1"/>
			<line class="st19" x1="271.3" y1="339.6" x2="270.3" y2="343.1"/>
			<line class="st19" x1="288.9" y1="336.1" x2="286.9" y2="343.1"/>
			<line class="st19" x1="266.7" y1="336.1" x2="264.8" y2="343.1"/>
			<line class="st19" x1="282.6" y1="338.7" x2="280.6" y2="345.9"/>
		</g>
	</g>
	<g>
		<g>
			<line class="st18" x1="200.6" y1="351.9" x2="245.6" y2="351.9"/>
		</g>
		<g>
			<line class="st19" x1="209.2" y1="334.2" x2="206.2" y2="343.1"/>
			<line class="st19" x1="212.9" y1="339.6" x2="211.8" y2="343.1"/>
			<line class="st19" x1="229.5" y1="339.6" x2="228.3" y2="343.1"/>
			<line class="st19" x1="235" y1="339.6" x2="233.9" y2="343.1"/>
			<line class="st19" x1="219.6" y1="336.1" x2="217.3" y2="343.1"/>
			<line class="st19" x1="241.7" y1="336.1" x2="239.4" y2="343.1"/>
			<line class="st19" x1="224.3" y1="338.7" x2="221.9" y2="345.9"/>
		</g>
	</g>
</g>
<polyline class="st20" points="164.9,171.5 164.9,339.6 197.8,339.6 "/>
<polyline class="st21" points="306.8,339.6 339.8,339.6 339.8,434.5 "/>
<g id="Avataaar_2_">
	<g id="Avataaar_x2F_Circle_1_" transform="translate(-825.000000, -1100.000000)">
		<g transform="translate(825.000000, 1100.000000)">
			<circle id="path-1_7_" class="st22" cx="276.3" cy="561.9" r="35"/>
			<g>
				<circle id="path-1_6_" class="st23" cx="276.3" cy="561.9" r="35"/>
			</g>
			<g id="Mask_5_">
			</g>
			<path class="st24" d="M303.1,584.4c-3.5-6.7-10.5-11.2-18.6-11.2h-1.2v-5.4c5-2.4,8.6-7.3,9.2-13c1.7-0.2,3-1.7,3-3.5v-4.1
				c0-1.7-1.3-3.2-2.9-3.5V542c0-9-7.3-16.3-16.3-16.3c-9,0-16.3,7.3-16.3,16.3v1.8c-1.7,0.3-2.9,1.7-2.9,3.5v4.1
				c0,1.8,1.3,3.2,3,3.5c0.6,5.8,4.2,10.7,9.2,13v5.4h-1.2c-8.1,0-15.1,4.5-18.6,11.2c6.4,7.6,16,12.4,26.7,12.4
				S296.6,592,303.1,584.4z"/>
			<defs>
				<filter id="Adobe_OpacityMaskFilter" filterUnits="userSpaceOnUse" x="260" y="548.7" width="32.7" height="23">
					<feColorMatrix  type="matrix" values="1 0 0 0 0  0 1 0 0 0  0 0 1 0 0  0 0 0 1 0"/>
				</filter>
			</defs>
			<mask maskUnits="userSpaceOnUse" x="260" y="548.7" width="32.7" height="23" id="mask-6_4_">
				<g class="st25">
					<path id="path-5_4_" class="st6" d="M283.3,567.9v5.4h1.2l0,0c11.6,0,21,9.4,21,21v2.6h-58.3v-2.6c0-11.6,9.4-21,21-21l0,0h1.2
						v-5.4c-5-2.4-8.6-7.3-9.2-13c-1.7-0.2-3-1.7-3-3.5v-4.1c0-1.7,1.3-3.2,2.9-3.5V542l0,0c0-9,7.3-16.3,16.3-16.3l0,0l0,0
						c9,0,16.3,7.3,16.3,16.3v1.8c1.7,0.3,2.9,1.7,2.9,3.5v4.1c0,1.8-1.3,3.2-3,3.5C292,560.6,288.3,565.5,283.3,567.9z"/>
				</g>
			</mask>
			<path id="Neck-Shadow_2_" class="st26" d="M292.7,548.7v6.7c0,9-7.3,16.3-16.3,16.3s-16.3-7.3-16.3-16.3v-6.7v4.4
				c0,9,7.3,16.3,16.3,16.3s16.3-7.3,16.3-16.3V548.7z"/>
			<g id="Mask_4_">
			</g>
			<path class="st27" d="M276.3,520.4c-11.9,0-21.6,9.7-21.6,21.6v47.4c1.6,1.3,3.3,2.4,5.1,3.3c1.2-1.4,1.9-3.2,1.9-5.2v-13.3
				c2-0.6,4.2-1,6.4-1h1.2v-5.4c-3.3-1.6-5.9-4.2-7.6-7.4v-18.1c2.7-0.9,5.5-2.1,8.3-3.7c4.5-2.6,8.2-5.7,10.7-8.8
				c0.5,1.5,1.2,3,2.1,4.5c2.6,4.4,6.2,7.7,9.9,9.3v0.1c0.1,0,0.2,0,0.3,0.1c0.2,0.1,0.5,0.2,0.7,0.3c1.1,0.6,1.9,1.8,1.9,3.1v3.8
				c0,1.8-1.3,3.2-3,3.5c-0.5,5.9-4.2,10.9-9.3,13.3v5.4h1.2c5.1,0,9.8,1.8,13.4,4.8V542c0-6-2.4-11.4-6.3-15.3
				C287.7,522.9,282.3,520.4,276.3,520.4z"/>
			<path id="Shadow_1_" class="st28" d="M293.7,544.2c1.4,0.5,2.8,0.8,4.2,0.8l0,0v-3c0-6-2.4-11.4-6.3-15.3
				c3.9,3.9,6.3,9.3,6.3,15.3v36.1c-3.6-3-8.3-4.8-13.4-4.8h-1.2v-5.4l0,0c5.1-2.4,8.8-7.4,9.3-13.3c1.7-0.3,3-1.7,3-3.5v-3.8
				C295.6,545.9,294.8,544.7,293.7,544.2z M293,543.9c-0.1,0-0.2-0.1-0.3-0.1v-0.1C292.8,543.8,292.9,543.8,293,543.9z M261.7,560.5
				c1.6,3.2,4.3,5.8,7.6,7.4v5.4h-1.2c-2.2,0-4.4,0.4-6.4,1V560.5z"/>
			<path class="st29" d="M303.1,584.4c-3.3-6.2-9.5-10.5-16.8-11.1c0,0.1,0,0.2,0,0.3c0,3.5-4.4,6.3-9.8,6.3c-5.4,0-9.8-2.8-9.8-6.3
				c0-0.1,0-0.2,0-0.3c-7.4,0.5-13.8,4.9-17.1,11.1c6.4,7.6,16,12.4,26.7,12.4C287,596.9,296.6,592,303.1,584.4z"/>
			<g>
				<path class="st30" d="M249.6,584.4c4.5,5.3,10.6,9.3,17.5,11.2c-0.8-3.2-1.2-6.9-1.2-10.9c0-4.2,0.5-8.1,1.4-11.5
					C259.6,573.6,253,578,249.6,584.4z"/>
				<path class="st30" d="M303.1,584.4c-3.3-6.3-9.8-10.7-17.3-11.2c0.9,3.4,1.4,7.3,1.4,11.5c0,3.9-0.4,7.5-1.2,10.8
					C292.7,593.6,298.6,589.7,303.1,584.4z"/>
			</g>
			<path class="st31" d="M265.5,573.2L260,582l1.8,1.8l-1.8,2.6l3.1,7.9c1.8,0.7,3.6,1.3,5.5,1.7c-2-9.9-2.4-17.6-1.3-23
				C266.7,572.9,266.1,573,265.5,573.2z"/>
			<path class="st31" d="M289.6,594.2l3.1-7.9l-1.8-2.6l1.8-1.8l-5.5-8.8c-0.6-0.2-1.2-0.3-1.8-0.3c1.1,5.5,0.7,13.2-1.3,23
				C286,595.6,287.8,595,289.6,594.2z"/>
		</g>
	</g>
</g>
<g transform="translate(825.000000, 1100.000000)">
	<g>
		<circle id="path-1_8_" class="st23" cx="-597.9" cy="-1055" r="35.4"/>
	</g>
	<g id="Mask_7_">
	</g>
	<path class="st32" d="M-570.9-1032.2c-3.6-6.7-10.6-11.3-18.8-11.3h-1.2v-5.4c5.1-2.4,8.7-7.4,9.4-13.2c1.7-0.2,3-1.7,3-3.5v-4.1
		c0-1.8-1.3-3.2-3-3.5v-1.8c0-9.1-7.4-16.5-16.5-16.5c-9.1,0-16.5,7.4-16.5,16.5v1.8c-1.7,0.3-3,1.7-3,3.5v4.1c0,1.8,1.3,3.3,3,3.5
		c0.6,5.8,4.3,10.8,9.4,13.2v5.4h-1.2c-8.2,0-15.2,4.6-18.8,11.3c6.5,7.7,16.2,12.6,27,12.6S-577.4-1024.5-570.9-1032.2z"/>
	<defs>
		<filter id="Adobe_OpacityMaskFilter_1_" filterUnits="userSpaceOnUse" x="-614.4" y="-1068.3" width="33" height="23.3">
			<feColorMatrix  type="matrix" values="1 0 0 0 0  0 1 0 0 0  0 0 1 0 0  0 0 0 1 0"/>
		</filter>
	</defs>
	<mask maskUnits="userSpaceOnUse" x="-614.4" y="-1068.3" width="33" height="23.3" id="mask-6_3_">
		<g class="st33">
			<path id="path-5_3_" class="st6" d="M-590.8-1049v5.4h1.2l0,0c11.7,0,21.2,9.5,21.2,21.2v2.7h-59v-2.7c0-11.7,9.5-21.2,21.2-21.2
				l0,0h1.2v-5.4c-5.1-2.4-8.7-7.4-9.4-13.2c-1.7-0.2-3-1.7-3-3.5v-4.1c0-1.8,1.3-3.2,3-3.5v-1.8l0,0c0-9.1,7.4-16.5,16.5-16.5l0,0
				l0,0c9.1,0,16.5,7.4,16.5,16.5v1.8c1.7,0.3,3,1.7,3,3.5v4.1c0,1.8-1.3,3.3-3,3.5C-582.1-1056.3-585.8-1051.4-590.8-1049z"/>
		</g>
	</mask>
	<path id="Neck-Shadow_6_" class="st34" d="M-581.4-1068.3v6.8c0,9.1-7.4,16.5-16.5,16.5c-9.1,0-16.5-7.4-16.5-16.5v-6.8v4.4
		c0,9.1,7.4,16.5,16.5,16.5c9.1,0,16.5-7.4,16.5-16.5V-1068.3z"/>
	<g id="Mask_6_">
	</g>
	<g>
		<path id="react-path-723_1_" class="st35" d="M-603.5-1058.1c0.6-0.5,4.5-0.7,5.2-1.1c0.2-0.1,0.4-0.3,0.5-0.4
			c0.1,0.1,0.3,0.3,0.5,0.4c0.7,0.4,4.5,0.6,5.2,1.1c0.7,0.5,1.1,1.6,1.1,2.5c-0.1,1.1-1.2,3.6-4.1,3.8c-0.6-0.7-1.6-1.1-2.7-1.1
			c-1.1,0-2.1,0.4-2.7,1.1c-2.9-0.3-4-2.8-4.1-3.8C-604.6-1056.5-604.1-1057.6-603.5-1058.1 M-592.3-1053
			C-592.3-1053-592.3-1053-592.3-1053C-592.3-1053-592.3-1053-592.3-1053 M-603.3-1053C-603.3-1053-603.3-1053-603.3-1053
			C-603.3-1053-603.3-1053-603.3-1053 M-580-1064.5c-0.1-1.8-0.5-3.5-0.8-5.2c-0.1-0.5-0.5-3.6-0.7-3.6c-0.1,2.7-0.3,5.3-0.6,8
			c-0.1,0.8-0.2,1.6-0.2,2.4c-0.1,0.6,0,1.4-0.1,2.1c-0.2,0.8-1.2,1.5-2,1.8c-1.9,0.7-3.6-2.2-5.2-3c-2.2-1.1-5.9-1.3-8.1,0.1
			c-2.3-1.4-6-1.1-8.1-0.1c-1.7,0.8-3.3,3.7-5.2,3c-0.8-0.3-1.8-1-2-1.8c-0.2-0.6-0.1-1.4-0.1-2.1c-0.1-0.8-0.2-1.6-0.2-2.4
			c-0.3-2.7-0.5-5.3-0.6-8c-0.2,0-0.7,3.2-0.7,3.6c-0.3,1.7-0.7,3.5-0.8,5.2c-0.1,1.8,0,3.6,0.4,5.4c0.2,0.8,0.4,1.7,0.6,2.5
			c0.2,0.9-0.1,2.7,0,3.7c0.2,1.8,1.1,5.3,2,6.9c0.5,0.7,1,1.2,1.6,1.8c0.6,0.6,0.8,1.5,1.4,2.1c1.2,1.2,2.9,1.8,4.6,2
			c1.6,1.3,4.2,2.2,7.1,2.2c2.9,0,5.6-0.9,7.1-2.2c1.7-0.2,3.4-0.9,4.6-2c0.6-0.6,0.9-1.5,1.4-2.1c0.6-0.6,1.1-1.1,1.6-1.8
			c1-1.5,1.8-5.1,2-6.9c0.1-1-0.2-2.8,0-3.7c0.2-0.8,0.4-1.7,0.6-2.5C-580-1060.9-579.8-1062.7-580-1064.5z"/>
	</g>
	<path class="st36" d="M-570.9-1032.2c-3.1-5.8-8.7-10-15.4-11.1c-0.2,1.3-0.9,2.6-1.9,3.7c-0.1,0.1-0.2,0.2-0.4,0.4l-8.6,7.7
		c-0.4,0.4-1.1,0.4-1.6,0l-8.6-7.7c-1.2-1.1-2-2.5-2.2-4c-6.7,1.1-12.4,5.3-15.4,11.1c6.5,7.7,16.2,12.6,27,12.6
		C-587.1-1019.6-577.4-1024.5-570.9-1032.2z"/>
</g>
<g>
	<circle class="st6" cx="193.2" cy="43.2" r="5.4"/>
	<circle class="st6" cx="200.7" cy="36.8" r="2.7"/>
</g>
<g>
	<defs>
		<circle id="SVGID_9_" cx="339.5" cy="499.1" r="58.5"/>
	</defs>
	<use xlink:href="#SVGID_9_"  style="overflow:visible;fill:#FFFFFF;"/>
	<clipPath id="SVGID_10_">
		<use xlink:href="#SVGID_9_"  style="overflow:visible;"/>
	</clipPath>
</g>
<g>
	<circle class="st6" cx="312.1" cy="562.7" r="6.5"/>
	<circle class="st6" cx="302.8" cy="570.2" r="3.2"/>
</g>
<g>
	<circle class="st6" cx="165.2" cy="106.3" r="58.5"/>
</g>
<g>
	<path class="st37" d="M296.4,498.1v6.4c0,0-0.7,1.9,3.7,1.6c4.4-0.3,21.4-2,21.4-2l12.4-6.7v-1.6L296.4,498.1z"/>
	<polygon class="st38" points="308.2,517.5 308.2,510 368.3,474.7 385,486.4 385,493.6 324.6,530.3 	"/>
	<polygon class="st39" points="385,493.6 385,486.4 384.9,486.4 324.2,522.8 308.4,509.9 308.2,510 308.2,517.5 324.6,530.3 	"/>
	<polygon class="st40" points="323.3,508.8 322.2,507.9 349.7,491.9 357.1,496.9 329.3,513.8 	"/>
	<polygon class="st41" points="323.3,508.8 349.2,493.7 355.2,498 329.3,513.8 	"/>
	<path class="st42" d="M295.4,481.3l75.9-4.5c0,0,9.7-0.9,10.5,7.3c0.9,9-10,9.6-10,9.6l-75.4,4.4L295.4,481.3z"/>
	<ellipse class="st43" cx="367.2" cy="484.6" rx="7" ry="4.7"/>
	<ellipse class="st40" cx="367.2" cy="485.2" rx="6" ry="4"/>
	<path class="st38" d="M381.8,484c0-0.2-0.1-0.3-0.1-0.5C381.7,483.7,381.7,483.9,381.8,484c0.3,6.8-8.6,8.5-8.6,8.5l-76.9,4.4
		l0.1,7.7c0,0-0.7,1.9,3.7,1.6c4.4-0.3,21.4-2,21.4-2l0.7-0.4c-4.8,0.2-17.9,0.9-20.8,1.3c-3.5,0.4-3.6-0.7-3.6-0.7l0-6.4l73.8-4.4
		C371.7,493.7,382.7,493,381.8,484z"/>
</g>
<polygon class="st44" points="135.1,74.9 156.7,80.4 170.5,80.4 177.9,71 188.5,80.4 193.2,91 193.2,95.1 195.9,95.1 191.7,98.6 
	195,98.6 191.7,101 190.7,106.3 198.1,124.9 193.2,138.8 170.7,133.5 149.9,140.4 140.8,140.4 133.5,130.3 136.6,129.2 142.2,123 
	141.7,115.7 142.9,110.7 142.2,104 139.9,101.2 140.4,98.6 138.8,96.7 140.6,95.8 139.6,93.9 141.3,92 "/>
<polygon class="st45" points="178.4,106.3 190.7,106.3 191.7,101 195,98.6 191.7,98.6 195.9,95.1 193.2,95.1 193.2,91 188.5,80.4 
	177.9,71 170.5,80.4 164.2,90.6 "/>
<polygon class="st46" points="177.3,125.5 165.2,122 141.1,130.6 136.2,134 140.8,140.4 149.9,140.4 170.7,133.5 193.2,138.8 
	197.9,125.4 "/>
<polygon class="st47" points="156.5,111 154.3,117.5 141.1,130.6 158.2,117.5 167.1,115.8 175.3,111.9 "/>
<polygon class="st48" points="141.1,130.7 134.6,131.7 140.8,140.4 149.9,140.4 170.6,133.6 "/>
<polygon class="st6" points="158.2,117.5 167.1,115.8 161.1,112.4 "/>
<polygon class="st46" points="135.1,74.9 141.3,92 139.6,93.9 140.6,95.8 138.8,96.7 140.4,98.6 139.9,101.2 142.2,104 142.9,110.7 
	141.7,115.7 142.1,122 147.5,116.1 156.7,80.4 "/>
<polygon class="st6" points="145.8,111.9 146.5,116.1 144,114.9 "/>
<polygon class="st45" points="135.2,75.1 141.3,92 139.6,93.9 140.6,95.8 138.8,96.7 140.4,98.6 139.9,101.2 142.1,103.9 
	154.7,90.7 "/>
<polygon class="st49" points="137.1,135.3 141.1,135.3 141.1,130.6 140.1,129.2 136.7,129.2 136.6,129.1 136.6,129.2 133.5,130.3 
	"/>
<polygon class="st46" points="164.2,90.6 156.5,111 175.3,111.9 178.4,106.3 "/>
</svg>
