<svg xmlns="http://www.w3.org/2000/svg" width="28" height="28" viewBox="0 0 28 28">
  <path id="Path_6507" data-name="Path 6507" d="M0-26H28V2H0Zm23.25,6.625v-.312H18.062l-3.687,9.25-4.25-9.25H4.687v.312l1.75,2.125a.623.623,0,0,1,.25.625v8.312a1,1,0,0,1-.25.812l-2,2.375v.312h5.625v-.312l-2-2.375a1,1,0,0,1-.25-.812V-15.5L12.75-4.812h.562L17.5-15.5v8.562a.509.509,0,0,1-.125.375l-1.5,1.5v.312H23.25v-.312L21.75-6.5a.6.6,0,0,1-.187-.437V-17.5a.6.6,0,0,1,.188-.437Z" transform="translate(0 26)" fill="#009bfd"/>
</svg>
