<?xml version="1.0" encoding="utf-8"?>
<!-- Generator: Adobe Illustrator 22.1.0, SVG Export Plug-In . SVG Version: 6.00 Build 0)  -->
<svg version="1.1" id="Layer_1" xmlns="http://www.w3.org/2000/svg" xmlns:xlink="http://www.w3.org/1999/xlink" x="0px" y="0px"
	 viewBox="0 0 2404 2500" style="enable-background:new 0 0 2404 2500;" xml:space="preserve">
<style type="text/css">
	.st0{fill:#E4761B;stroke:#E4761B;}
	.st1{fill:#F6851B;stroke:#F6851B;}
	.st2{fill:#E2761B;stroke:#E2761B;}
	.st3{fill:#763D16;stroke:#763D16;}
	.st4{fill:#C0AD9E;stroke:#C0AD9E;}
	.st5{fill:#CD6116;stroke:#CD6116;}
	.st6{fill:#E4751F;stroke:#E4751F;}
	.st7{fill:#233447;stroke:#233447;}
	.st8{fill:#D7C1B3;stroke:#D7C1B3;}
	.st9{fill:#161616;stroke:#161616;}
</style>
<path class="st0" d="M2278.3,1730.7l-145.2,490.8l-285-77.9L2278.3,1730.7z"/>
<path class="st0" d="M1848.1,2143.6L2123,1767l155.3-36.3L1848.1,2143.6z"/>
<path class="st1" d="M2064.7,1360.7l213.6,370.1L2123,1767L2064.7,1360.7z M2064.7,1360.7l137.4-95.2l76.2,465.3L2064.7,1360.7z"/>
<path class="st2" d="M1541.7,2024l98.8,31.5l207.6,88.1L1541.7,2024z"/>
<path class="st1" d="M2202.1,1265.5l-137.4,95.2l-272.5-230.2L2202.1,1265.5z"/>
<path class="st2" d="M2381.8,236.2l-824,599.1L1547.1,429L2381.8,236.2z"/>
<path class="st1" d="M934.3,380.2l612.8,48.8l10.7,406.4L934.3,380.2z"/>
<path class="st0" d="M1792.2,1130.4l272.5,230.2l-382.6,42.2L1792.2,1130.4z"/>
<path class="st0" d="M1682.1,1402.9l-124.3-567.6l234.4,295.1L1682.1,1402.9z"/>
<polygon class="st3" points="2331.8,956.7 2284.8,919.2 2284.8,919.2 2399.6,570 2381.8,236.2 1557.8,835.3 1557.8,835.3 
	1792.2,1130.4 2202.1,1265.5 2296.1,1147.7 2252.7,1114.4 2318.1,1051.9 2265.2,1007.9 2265.2,1007.9 "/>
<path class="st4" d="M939.6,2134.1l194.6,202.9l-264.8-241L939.6,2134.1z"/>
<path class="st5" d="M1848.1,2143.6l92.2-350.4L2123,1767L1848.1,2143.6z"/>
<path class="st1" d="M2123,1767l-182.7,26.2l124.3-432.5L2123,1767z M1557.8,835.3L1230,824.6L934.3,380.2L1557.8,835.3z"/>
<path class="st6" d="M2064.7,1360.7l-124.3,432.5l-10.1-211.2L2064.7,1360.7z"/>
<path class="st5" d="M1682.1,1402.9l382.6-42.2L1930.2,1582L1682.1,1402.9z"/>
<path class="st1" d="M1230,824.6l327.8,10.7l124.3,567.6L1230,824.6z"/>
<path class="st0" d="M1230,824.6L345.3,5.9l589,374.2L1230,824.6z M933.7,2258.4l-768.7,238l-153.5-586L933.7,2258.4z"/>
<path class="st5" d="M1930.2,1582l-149.9-75.6l-98.2-103.5L1930.2,1582z"/>
<path class="st7" d="M1749.4,1676.6l30.9-170.2l149.9,75.6L1749.4,1676.6z"/>
<path class="st1" d="M1940.3,1793.2l-191-116.6l180.9-94.6L1940.3,1793.2z"/>
<path class="st0" d="M798.6,1132.8L1230,824.6l192.2,587.2L798.6,1132.8z M1422.1,1411.8L826,1399.3l-27.4-266.5L1422.1,1411.8z"/>
<path class="st1" d="M264.9,1304.1l533.7-171.3l27.4,266.5L264.9,1304.1z M1682.1,1402.9l-260,8.9L1230,824.6L1682.1,1402.9z"/>
<path class="st5" d="M1780.3,1506.4l-30.9,170.2l-67.2-273.7L1780.3,1506.4z"/>
<path class="st0" d="M11.5,1910.4l746.1-30.9l176.1,379L11.5,1910.4z"/>
<path class="st5" d="M933.7,2258.4l-176.1-379l366.5-17.8L933.7,2258.4z"/>
<path class="st1" d="M1749.4,1676.6l191,116.6l105.3,248.1L1749.4,1676.6z M826,1399.3L11.5,1910.4l253.5-606.3L826,1399.3z
	 M757.6,1879.5l-746.1,30.9L826,1399.3L757.6,1879.5z M1682.1,1402.9l48.8,177.3l-235.6,13.7L1682.1,1402.9z M1495.3,1593.9
	l-73.2-182.1l260-8.9L1495.3,1593.9z"/>
<path class="st4" d="M1134.2,2337l-200.5-78.5l697.3,117.2L1134.2,2337z"/>
<path class="st8" d="M1710.1,2288.8l-79.1,86.9l-697.3-117.2L1710.1,2288.8z"/>
<path class="st0" d="M1747.6,2075.8l-813.9,182.7l190.4-396.8L1747.6,2075.8z"/>
<path class="st8" d="M933.7,2258.4l813.9-182.7l-37.5,213L933.7,2258.4z"/>
<path class="st5" d="M1288.9,1529.6l133.3-117.8l-19,288L1288.9,1529.6z"/>
<path class="st5" d="M1422.1,1411.8l-133.3,117.8l-194,100.5L1422.1,1411.8z"/>
<path class="st1" d="M2045.6,2041.3l-36.3-26.8l-260-337.9L2045.6,2041.3z"/>
<path class="st5" d="M1094.9,1630.2L826,1399.3l596.1,12.5L1094.9,1630.2z"/>
<path class="st6" d="M1403.1,1699.8l19-288l73.2,182.1L1403.1,1699.8z"/>
<path class="st7" d="M1403.1,1699.8l-308.2-69.6l194-100.5L1403.1,1699.8z"/>
<path class="st3" d="M1230,824.6L1230,824.6L345.3,5.9l-235,403.4L137,866.8l-48.2,45.2l79.7,68.4l-53.5,54.7l77.5,78.6l-41.8,43.9
	l0,0h0l114.2,146.4l533.7-171.3h0L1230,824.6z M168.6,980.5L168.6,980.5L168.6,980.5L168.6,980.5z"/>
<path class="st4" d="M1631,2375.7l32.7,89.2L1134.2,2337L1631,2375.7z"/>
<path class="st1" d="M1124.1,1861.6l-29.2-231.4l308.2,69.6L1124.1,1861.6z"/>
<path class="st6" d="M826,1399.3l268.9,230.8l29.2,231.4L826,1399.3z"/>
<path class="st1" d="M1495.3,1593.9l235.6-13.7l278.4,434.3L1495.3,1593.9z M826,1399.3l298.1,462.3l-366.5,17.8L826,1399.3z"/>
<path class="st6" d="M1495.3,1593.9l292.7,445.6l-384.9-339.7L1495.3,1593.9z"/>
<path class="st1" d="M1403.1,1699.8l384.9,339.7l-40.5,36.3L1403.1,1699.8z"/>
<path class="st1" d="M1747.6,2075.8l-623.5-214.2l279-161.8L1747.6,2075.8z M2009.4,2014.5l-221.3,25l-292.7-445.6L2009.4,2014.5z"
	/>
<path class="st4" d="M2067.7,2223.9l-95.2,191l-308.8,50L2067.7,2223.9z M1663.7,2464.9l-32.7-89.2l79.1-86.9L1663.7,2464.9z"/>
<path class="st4" d="M1710.1,2288.8l58.3-23.2l-104.7,199.3L1710.1,2288.8z M1663.7,2464.9l104.7-199.3l299.3-41.6L1663.7,2464.9z"
	/>
<path class="st9" d="M2009.4,2014.5l73.2,44.6l-222.5,26.8L2009.4,2014.5z"/>
<path class="st9" d="M1860,2085.9l-72-46.4l221.3-25L1860,2085.9z M1834.4,2121l270.7-32.7l-37.5,135.6L1834.4,2121z"/>
<path class="st9" d="M2067.7,2223.9l-299.3,41.6l66-144.6L2067.7,2223.9z M1768.4,2265.6l-58.3,23.2l37.5-213L1768.4,2265.6z
	 M1747.6,2075.8l40.5-36.3l72,46.4L1747.6,2075.8z M2082.5,2059.1l22.6,29.2l-270.7,32.7L2082.5,2059.1z"/>
<path class="st9" d="M1834.4,2121l25.6-35.1l222.5-26.8L1834.4,2121z M1747.6,2075.8l86.9,45.2l-66,144.6L1747.6,2075.8z"/>
<path class="st9" d="M1860,2085.9l-25.6,35.1l-86.9-45.2L1860,2085.9z"/>
</svg>
