<?xml version="1.0" encoding="utf-8"?><svg id="block-animation" image-rendering="auto" baseProfile="basic" version="1.1" x="0px" y="0px" width="76" height="73" xmlns="http://www.w3.org/2000/svg" xmlns:xlink="http://www.w3.org/1999/xlink"><defs><g id="block" overflow="visible"><path fill="#ED6D68" stroke="none" d="M32.05 .55Q31.5 0 30.65 0L15 0Q14.15 0 13.55 .55 13 1.15 13 2L13 4.3 32.65 4.3 32.65 2Q32.65 1.15 32.05 .55Z"/><path fill="#ED6D68" stroke="none" d="M63.15 4.3L63.15 2Q63.15 1.15 62.55 .55 62 0 61.15 0L45.45 0Q44.6 0 44.05 .55 43.45 1.15 43.45 2L43.45 4.3 63.15 4.3Z"/><path fill="#ED6D68" stroke="none" d="M76 6.35L0 6.35 0 72.95 76 72.95 76 6.35Z"/><use xlink:href="#octo" transform="translate(25.55 27.4)"/></g><g id="octo" overflow="visible"><path fill="#FFF" stroke="none" d="M23.75 9.4L23.75 5.6 19.2 5.6 19.9 0 15.95 0 15.25 5.6 10.15 5.6 10.8 0 6.9 0 6.2 5.6 1.15 5.6 1.15 9.4 5.75 9.4 5 15.1 0 15.1 0 18.9 4.55 18.9 3.85 24.5 7.8 24.5 8.5 18.9 13.65 18.9 12.9 24.5 16.9 24.5 17.6 18.9 22.6 18.9 22.6 15.1 18.05 15.1 18.75 9.4 23.75 9.4M14.8 9.4L14.1 15.1 8.95 15.1 9.65 9.4 14.8 9.4Z"/></g><g id="oct-bars" overflow="visible"><path fill="#FFF" stroke="none" d="M22.6 9.5L0 9.5 0 13.3 22.6 13.3 22.6 9.5M1.15 3.8L23.75 3.8 23.75 0 1.15 0 1.15 3.8Z"/></g></defs><g id="Scene-1" overflow="visible"><g id="Layer17_0_FILL"><path fill="#ED6D68" stroke="none" d="M32.05 .55Q31.5 0 30.65 0L15 0Q14.15 0 13.55 .55 13 1.15 13 2L13 4.3 32.65 4.3 32.65 2Q32.65 1.15 32.05 .55Z"/><path fill="#ED6D68" stroke="none" d="M63.15 4.3L63.15 2Q63.15 1.15 62.55 .55 62 0 61.15 0L45.45 0Q44.6 0 44.05 .55 43.45 1.15 43.45 2L43.45 4.3 63.15 4.3Z"/><path fill="#ED6D68" stroke="none" d="M76 6.3L0 6.3 0 72.9 76 72.9 76 6.3Z"/><animate attributeName="display" repeatCount="indefinite" dur="3.217s" keyTimes="0;.622;1" values="inline;none;none"/></g><g display="none" id="Layer16_0_FILL"><path fill="#FFF" stroke="none" d="M44.3 45.7Q44.9 45.15 44.9 44.35 44.9 43.55 44.3 42.95 43.75 42.4 42.95 42.4 42.15 42.4 41.55 42.95 41 43.55 41 44.35 41 45.15 41.55 45.7 42.15 46.3 42.95 46.3 43.75 46.3 44.3 45.7M44.3 36.3Q44.9 35.75 44.9 34.95 44.9 34.15 44.3 33.55 43.75 33 42.95 33 42.15 33 41.55 33.55 41 34.15 41 34.95 41 35.75 41.55 36.3 42.15 36.9 42.95 36.9 43.75 36.9 44.3 36.3Z"/><animate attributeName="display" repeatCount="indefinite" dur="3.217s" keyTimes="0;.161;.166;1" values="none;inline;none;none"/></g><g display="none" id="Layer15_0_FILL"><path fill="#FFF" stroke="none" d="M43.45 42.85Q42.85 42.4 42 42.4 41.4 42.4 39.95 43.5 39.75 43.9 39.75 44.35 39.75 44.85 39.95 45.25 40.2 45.6 40.6 45.9 41.2 46.3 42 46.3 42.6 46.3 43.15 46.1 43.4 45.95 44 45.25 44.25 44.85 44.25 44.35 44.25 43.9 44.05 43.5 43.8 43.1 43.45 42.85M42 33Q41.4 33 40.8 33.25 40.6 33.35 40.4 33.45 40.15 33.75 39.95 34.1 39.75 34.5 39.75 34.95 39.75 35.45 39.95 35.85 40.2 36.2 40.5 36.4 40.55 36.45 40.6 36.5 41.2 36.9 42 36.9 42.6 36.9 43.15 36.7 43.4 36.55 43.55 36.4 43.8 36.15 44 35.85 44.25 35.45 44.25 34.95 44.25 34.5 44.05 34.1 43.8 33.7 43.45 33.45 42.85 33 42 33Z"/><animate attributeName="display" repeatCount="indefinite" dur="3.217s" keyTimes="0;.155;.161;1" values="none;inline;none;none"/></g><g display="none" id="Layer14_0_FILL"><path fill="#FFF" stroke="none" d="M42.65 42.75Q41.95 42.4 41.1 42.4 40.45 42.4 38.85 43.4 38.6 43.8 38.6 44.35 38.6 44.9 38.85 45.35 39.1 45.7 39.6 45.95 40.3 46.3 41.1 46.3 41.8 46.3 42.4 46.15 42.65 46.05 43.35 45.35 43.65 44.9 43.65 44.35 43.65 43.8 43.35 43.4 43.1 42.95 42.65 42.75M42.65 33.35Q41.95 33 41.1 33 40.45 33 39.8 33.2 39.55 33.25 39.35 33.4 39.05 33.65 38.85 34 38.6 34.4 38.6 34.95 38.6 35.5 38.85 35.95 39.1 36.3 39.5 36.5 39.55 36.55 39.6 36.55 40.3 36.9 41.1 36.9 41.8 36.9 42.4 36.75 42.65 36.65 42.85 36.45 43.15 36.25 43.35 35.95 43.65 35.5 43.65 34.95 43.65 34.4 43.35 34 43.1 33.55 42.65 33.35Z"/><animate attributeName="display" repeatCount="indefinite" dur="3.217s" keyTimes="0;.15;.155;1" values="none;inline;none;none"/></g><g display="none" id="Layer13_0_FILL"><path fill="#FFF" stroke="none" d="M42.75 43.3Q42.45 42.85 41.9 42.7 41.15 42.4 40.3 42.4 39.55 42.4 37.8 43.3 37.45 43.75 37.45 44.35 37.45 45 37.8 45.45 38.1 45.85 38.7 46.05 39.45 46.3 40.3 46.3 41.05 46.3 41.75 46.2 42 46.1 42.75 45.45 43.1 45 43.1 44.35 43.1 43.75 42.75 43.3M42.75 33.9Q42.45 33.45 41.9 33.3 41.15 33 40.3 33 39.55 33 38.8 33.15 38.55 33.2 38.3 33.35 38 33.55 37.8 33.9 37.45 34.35 37.45 34.95 37.45 35.6 37.8 36.05 38.1 36.45 38.6 36.6 38.65 36.65 38.7 36.65 39.45 36.9 40.3 36.9 41.05 36.9 41.75 36.8 42 36.7 42.25 36.55 42.55 36.35 42.75 36.05 43.1 35.6 43.1 34.95 43.1 34.35 42.75 33.9Z"/><animate attributeName="display" repeatCount="indefinite" dur="3.217s" keyTimes="0;.145;.15;1" values="none;inline;none;none"/></g><g display="none" id="Layer12_0_FILL"><path fill="#FFF" stroke="none" d="M42.1 43.15Q41.7 42.7 41.1 42.6 40.3 42.4 39.4 42.4 38.55 42.4 36.65 43.15 36.25 43.7 36.25 44.35 36.25 45.05 36.65 45.5 37.05 46 37.7 46.15 38.5 46.3 39.4 46.3 40.2 46.3 41 46.2 41.3 46.15 42.05 45.5 42.5 45.05 42.5 44.35 42.5 43.7 42.1 43.15M42.1 33.75Q41.7 33.3 41.1 33.2 40.3 33 39.4 33 38.55 33 37.75 33.1 37.45 33.15 37.2 33.25 36.9 33.45 36.65 33.75 36.25 34.3 36.25 34.95 36.25 35.65 36.65 36.1 37.05 36.6 37.6 36.7 37.65 36.7 37.7 36.75 38.5 36.9 39.4 36.9 40.2 36.9 41 36.8 41.3 36.75 41.55 36.6 41.85 36.4 42.05 36.1 42.5 35.65 42.5 34.95 42.5 34.3 42.1 33.75Z"/><animate attributeName="display" repeatCount="indefinite" dur="3.217s" keyTimes="0;.14;.145;1" values="none;inline;none;none"/></g><g display="none" id="Layer11_0_FILL"><path fill="#FFF" stroke="none" d="M41.9 34.95Q41.9 34.2 41.4 33.65 41 33.15 40.3 33.1 39.4 33 38.5 33 37.6 33 36.75 33.05 36.4 33.05 36.15 33.2 35.8 33.35 35.55 33.65 35.1 34.2 35.1 34.95 35.1 35.7 35.55 36.2 35.95 36.7 36.6 36.8 36.65 36.8 36.7 36.8 37.6 36.9 38.5 36.9 39.4 36.9 40.25 36.85 40.55 36.85 40.85 36.65 41.2 36.5 41.4 36.2 41.9 35.7 41.9 34.95M41.9 44.35Q41.9 43.6 41.4 43.05 41 42.55 40.3 42.5 39.4 42.4 38.5 42.4 37.6 42.4 35.55 43.05 35.1 43.6 35.1 44.35 35.1 45.1 35.55 45.6 35.95 46.1 36.7 46.2 37.6 46.3 38.5 46.3 39.4 46.3 40.25 46.25 40.55 46.25 41.4 45.6 41.9 45.1 41.9 44.35Z"/><animate attributeName="display" repeatCount="indefinite" dur="3.217s" keyTimes="0;.135;.14;1" values="none;inline;none;none"/></g><g display="none" id="Layer10_0_FILL"><path fill="#FFF" stroke="none" d="M41.3 34.95Q41.3 34.15 40.75 33.55 40.25 33 39.5 33L35.7 33Q34.95 33 34.4 33.55 33.9 34.15 33.9 34.95 33.9 35.75 34.4 36.3 34.95 36.9 35.7 36.9L39.5 36.9Q40.25 36.9 40.75 36.3 41.3 35.75 41.3 34.95M41.3 44.35Q41.3 43.55 40.75 42.95 40.25 42.4 39.5 42.4L35.7 42.4Q34.95 42.4 34.4 42.95 33.9 43.55 33.9 44.35 33.9 45.15 34.4 45.7 34.95 46.3 35.7 46.3L39.5 46.3Q40.25 46.3 40.75 45.7 41.3 45.15 41.3 44.35Z"/><animate attributeName="display" repeatCount="indefinite" dur="3.217s" keyTimes="0;.13;.135;1" values="none;inline;none;none"/></g><g display="none" id="Layer9_0_FILL"><path fill="#FFF" stroke="none" d="M38.85 42.4Q36.75 42.4 34.65 42.4 34 42.5 33.5 43.05 33.05 43.6 33.05 44.35 33.05 45.15 33.5 45.7 34 46.25 34.65 46.3 36.75 46.3 38.85 46.3 39.55 46.25 40.45 44.35 40.45 43.6 38.85 42.4M38.9 33Q36.8 33 34.7 33 34.05 33.05 33.55 33.6 33.1 34.2 33.1 34.95 33.1 35.7 33.55 36.25 34.05 36.85 34.7 36.9 36.8 36.9 38.9 36.9 39.6 36.85 40.05 36.25 40.5 35.7 40.5 34.95 40.5 34.2 40.05 33.6 39.6 33.05 38.9 33Z"/><animate attributeName="display" repeatCount="indefinite" dur="3.217s" keyTimes="0;.124;.13;1" values="none;inline;none;none"/></g><g display="none" id="Layer8_0_FILL"><path fill="#FFF" stroke="none" d="M38.25 42.4Q35.95 42.4 33.65 42.4 33.05 42.55 32.6 43.1 32.25 43.65 32.25 44.4 32.25 45.1 32.6 45.65 33.05 46.2 33.65 46.3 35.95 46.3 38.25 46.3 38.85 46.2 39.65 44.4 39.65 43.65 38.25 42.4M33.7 33Q33.15 33.15 32.7 33.7 32.3 34.25 32.3 34.95 32.3 35.7 32.7 36.25 33.15 36.8 33.7 36.9 36 36.9 38.35 36.9 38.9 36.8 39.3 36.2 39.75 35.7 39.75 34.95 39.75 34.2 39.3 33.6 38.9 33.1 38.35 33 36 33 33.7 33Z"/><animate attributeName="display" repeatCount="indefinite" dur="3.217s" keyTimes="0;.119;.124;1" values="none;inline;none;none"/></g><g display="none" id="Layer7_0_FILL"><path fill="#FFF" stroke="none" d="M37.55 42.45Q35.05 42.45 32.55 42.45 32.05 42.65 31.7 43.2 31.35 43.75 31.35 44.4 31.35 45.1 31.7 45.65 32.05 46.15 32.55 46.3 35.05 46.3 37.55 46.3 38.05 46.15 38.75 44.4 38.75 43.65 37.55 42.45M32.65 33Q32.15 33.2 31.8 33.75 31.45 34.3 31.45 34.95 31.45 35.65 31.8 36.2 32.15 36.75 32.65 36.85 35.2 36.85 37.7 36.85 38.2 36.7 38.55 36.15 38.9 35.65 38.9 34.95 38.9 34.25 38.55 33.65 38.2 33.15 37.7 33 35.2 33 32.65 33Z"/><animate attributeName="display" repeatCount="indefinite" dur="3.217s" keyTimes="0;.114;.119;1" values="none;inline;none;none"/></g><g display="none" id="Layer6_0_FILL"><path fill="#FFF" stroke="none" d="M37 42.45Q34.3 42.45 31.55 42.45 31.15 42.7 30.85 43.3 30.55 43.8 30.55 44.4 30.55 45.1 30.85 45.6 31.15 46.1 31.55 46.3 34.3 46.3 37 46.3 37.4 46.1 38 44.4 38 43.7 37 42.45M31.7 33Q31.3 33.25 31 33.85 30.7 34.35 30.7 34.95 30.7 35.65 31 36.15 31.3 36.7 31.7 36.85 34.45 36.85 37.15 36.85 37.6 36.65 37.85 36.1 38.15 35.6 38.15 34.95 38.15 34.25 37.85 33.65 37.6 33.2 37.15 33 34.45 33 31.7 33Z"/><animate attributeName="display" repeatCount="indefinite" dur="3.217s" keyTimes="0;.109;.114;1" values="none;inline;none;none"/></g><g display="none" id="Layer5_0_FILL"><path fill="#FFF" stroke="none" d="M29.7 44.45Q29.7 45.05 29.9 45.6 30.15 46.1 30.5 46.3 33.4 46.3 36.3 46.3 36.65 46.05 37.1 44.45 37.1 43.75 36.3 42.45 33.4 42.45 30.5 42.45 30.15 42.8 29.9 43.35 29.7 43.85 29.7 44.45M36.55 33Q33.6 33 30.7 33 30.35 33.35 30.1 33.9 29.9 34.4 29.9 35 29.9 35.6 30.1 36.15 30.35 36.6 30.7 36.85 33.6 36.85 36.55 36.85 36.85 36.6 37.1 36.1 37.35 35.6 37.35 35 37.35 34.3 37.1 33.7 36.85 33.2 36.55 33Z"/><animate attributeName="display" repeatCount="indefinite" dur="3.217s" keyTimes="0;.104;.109;1" values="none;inline;none;none"/></g><g display="none" id="Layer4_0_FILL"><path fill="#FFF" stroke="none" d="M29.05 45.55Q29.25 46.05 29.5 46.3 32.65 46.3 35.75 46.3 36 46 36.35 44.45 36.35 43.8 35.75 42.45 32.65 42.45 29.5 42.45 29.25 42.85 29.05 43.45 28.9 43.9 28.9 44.45 28.9 45.05 29.05 45.55M36.4 33.7Q36.25 33.25 36 33 32.85 33 29.75 33 29.5 33.4 29.3 34 29.15 34.45 29.15 35 29.15 35.6 29.3 36.1 29.5 36.55 29.75 36.85 32.85 36.85 36 36.85 36.25 36.55 36.4 36.05 36.6 35.55 36.6 35 36.6 34.3 36.4 33.7Z"/><animate attributeName="display" repeatCount="indefinite" dur="3.217s" keyTimes="0;.098;.104;1" values="none;inline;none;none"/></g><g display="none" id="Layer3_0_FILL"><path fill="#FFF" stroke="none" d="M28.15 45.55Q28.25 46 28.4 46.3 31.75 46.3 35.05 46.3 35.2 45.95 35.45 44.45 35.45 43.8 35.05 42.5 31.75 42.5 28.4 42.5 28.25 42.95 28.15 43.55 28 44 28 44.45 28 45.05 28.15 45.55M35.65 33.75Q35.55 33.3 35.35 33 32.05 33 28.7 33 28.5 33.45 28.4 34.05 28.3 34.5 28.3 35 28.3 35.55 28.4 36.05 28.5 36.5 28.7 36.8 32.05 36.8 35.35 36.8 35.55 36.45 35.65 36 35.75 35.5 35.75 35 35.75 34.35 35.65 33.75Z"/><animate attributeName="display" repeatCount="indefinite" dur="3.217s" keyTimes="0;.093;.098;1" values="none;inline;none;none"/></g><g display="none" id="Layer2_0_FILL"><path fill="#FFF" stroke="none" d="M27.25 45.5Q27.3 45.95 27.4 46.3 30.95 46.3 34.45 46.3 34.5 45.9 34.65 44.5 34.65 43.85 34.45 42.5 30.95 42.5 27.4 42.5 27.3 43 27.25 43.6 27.2 44.05 27.2 44.5 27.2 45 27.25 45.5M34.9 33.75Q34.85 33.35 34.8 33 31.25 33 27.7 33 27.6 33.55 27.55 34.15 27.5 34.55 27.5 35 27.5 35.55 27.55 36.05 27.6 36.45 27.7 36.8 31.25 36.8 34.8 36.8 34.85 36.4 34.9 35.95 35 35.5 35 35 35 34.35 34.9 33.75Z"/><animate attributeName="display" repeatCount="indefinite" dur="3.217s" keyTimes="0;.088;.093;1" values="none;inline;none;none"/></g><g display="none" id="Layer1_0_FILL"><path fill="#FFF" stroke="none" d="M26.75 36.8L34.25 36.8 34.25 33 26.75 33 26.75 36.8M33.85 42.5L26.4 42.5 26.4 46.3 33.85 46.3 33.85 42.5Z"/><animate attributeName="display" repeatCount="indefinite" dur="3.217s" keyTimes="0;.083;.088;1" values="none;inline;none;none"/></g><g display="none"><use xlink:href="#oct-bars" transform="translate(-24.45 33)"><animateTransform attributeName="transform" additive="replace" type="translate" repeatCount="indefinite" dur="3.217s" keyTimes="0;.435;.44;.446;.451;.456;.461;.466;.471;.477;.482;.487;.492;.497;.503;.508;.513;.518;.523;.528;.534;.539;.544;.549;.554;.56;.565;.57;1" values="-24.45,33;-24.45,33;-21.6,33;-18.8,33;-16.1,33;-13.45,33;-10.85,33;-8.35,33;-5.95,33;-3.6,33;-1.35,33;.85,33;3,33;5.05,33;7,33;8.9,33;10.75,33;12.5,33;14.2,33;15.8,33;17.3,33;18.75,33;20.15,33;21.45,33;22.7,33;23.85,33;24.9,33;25.95,33;25.95,33"/></use><animate attributeName="display" repeatCount="indefinite" dur="3.217s" keyTimes="0;.435;.575;1" values="none;inline;none;none"/></g><g display="none"><use xlink:href="#oct-bars" transform="translate(25.55 33)"><animateTransform attributeName="transform" additive="replace" type="translate" repeatCount="indefinite" dur="3.217s" keyTimes="0;.083;.088;.093;.098;.104;.109;.114;.119;.124;.13;.135;.14;.145;.15;.155;.161;.166;.171;.176;.181;.187;.192;.197;.202;.207;.212;.218;1" values="25.55,33;25.55,33;27.25,33;29,33;30.75,33;32.5,33;34.25,33;36,33;37.75,33;39.55,33;41.3,33;43.1,33;44.9,33;46.75,33;48.55,33;50.45,33;52.35,33;54.25,33;56.25,33;58.25,33;60.3,33;62.4,33;64.55,33;66.8,33;69.1,33;71.5,33;73.95,33;76.55,33;76.55,33"/></use><animate attributeName="display" repeatCount="indefinite" dur="3.217s" keyTimes="0;.083;.223;1" values="none;inline;none;none"/></g><g display="none"><use xlink:href="#octo" transform="translate(-24.45 27.4)"><animateTransform attributeName="transform" additive="replace" type="translate" repeatCount="indefinite" dur="3.217s" keyTimes="0;.435;.44;.446;.451;.456;.461;.466;.471;.477;.482;.487;.492;.497;.503;.508;.513;.518;.523;.528;.534;1" values="-24.45,27.4;-24.45,27.4;-19.8,27.4;-15.4,27.4;-11.35,27.4;-7.55,27.4;-4,27.4;-.7,27.4;2.35,27.4;5.2,27.4;7.85,27.4;10.35,27.4;12.65,27.4;14.8,27.4;16.8,27.4;18.65,27.4;20.4,27.4;22.05,27.4;23.6,27.4;25.05,27.4;26,27.4;26,27.4"/></use><animate attributeName="display" repeatCount="indefinite" dur="3.217s" keyTimes="0;.435;.622;1" values="none;inline;none;none"/></g><g><use xlink:href="#octo" transform="translate(25.55 27.4)"><animateTransform attributeName="transform" additive="replace" type="translate" repeatCount="indefinite" dur="3.217s" keyTimes="0;.08299;.088;.093;.098;.104;.109;.114;.119;.124;.13;.135;.14;.145;.15;.155;.161;.166;.171;.176;.181;.187;.192;.197;.202;.207;.212;.218;1" values="25.55,27.4;25.55,27.4;30.15,27.4;34.4,27.4;38.2,27.4;41.7,27.4;44.85,27.4;47.75,27.4;50.35,27.4;52.7,27.4;54.85,27.4;56.85,27.4;58.65,27.4;60.25,27.4;61.8,27.4;63.2,27.4;64.5,27.4;65.7,27.4;66.9,27.4;68,27.4;69.05,27.4;70.1,27.4;71.1,27.4;72.1,27.4;73.05,27.4;74.05,27.4;75,27.4;76,27.4;76,27.4"/></use><animate attributeName="display" repeatCount="indefinite" dur="3.217s" keyTimes="0;.223;1" values="inline;none;none"/></g><g display="none"><g id="mag" transform="matrix(.707 -.705 .705 .707 -31.05 36.1)"><animateTransform attributeName="transform" additive="replace" type="translate" repeatCount="indefinite" dur="3.217s" keyTimes="0;.223;.228;.233;.238;.243;.249;.254;.259;.264;.269;.275;.28;.285;.29;.295;.3;.306;.311;.316;.321;.326;.332;.337;.342;.347;.352;.357;.363;.368;.373;.378;.383;.389;.394;.399;.404;.409;.414;.42;.425;.43;.435;.44;.446;.451;.456;.461;.466;.471;.477;.482;.487;1" values="-31.05,36.191;-31.05,36.191;-21.412,36.19;-13.204,36.247;-6.124,36.164;-.178,36.233;4.983,36.097;9.174,36.165;12.735,36.193;15.698,36.242;18.189,36.214;20.188,36.231;21.921,36.173;23.321,36.186;24.469,36.138;25.426,36.188;26.275,36.198;27.12,36.176;27.669,36.192;28.316,36.238;28.814,36.194;29.358,36.195;29.807,36.253;30.353,36.147;30.903,36.246;31.352,36.199;31.8,36.25;32.3,36.15;32.848,36.201;33.247,36.198;33.792,36.2;34.337,36.256;34.842,36.104;35.39,36.104;35.883,36.149;36.486,36.106;37.127,36.156;37.783,36.149;38.672,36.206;39.631,36.088;40.888,36.16;42.177,36.185;43.998,36.113;45.973,36.181;48.437,36.131;51.411,36.161;54.972,36.185;59.18,36.156;64.29,36.235;70.292,36.076;77.36,36.067;85.62,36.094;95.285,36.065;95.285,36.065"/><animateTransform attributeName="transform" additive="sum" type="rotate" repeatCount="indefinite" dur="3.217s" keyTimes="0;.223;.228;.233;.238;.243;.249;.254;.259;.264;.269;.275;.28;.285;.29;.295;.3;.306;.311;.316;.321;.326;.332;.337;.342;.347;.352;.357;.363;.368;.373;.378;.383;.389;.394;.399;.404;.409;.414;.42;.425;.43;.435;.44;.446;.451;.456;.461;.466;.471;.477;.482;.487;1" values="-44.903,0,0;-44.903,0,0;-40.086,0,0;-35.611,0,0;-31.836,0,0;-28.556,0,0;-25.57,0,0;-23.052,0,0;-20.797,0,0;-18.797,0,0;-17.044,0,0;-15.524,0,0;-14.044,0,0;-12.782,0,0;-11.547,0,0;-10.522,0,0;-9.512,0,0;-8.514,0,0;-7.527,0,0;-6.542,0,0;-5.75,0,0;-4.779,0,0;-3.806,0,0;-3.021,0,0;-2.05,0,0;-1.268,0,0;-.296,0,0;.296,0,0;1.267,0,0;2.049,0,0;3.02,0,0;3.805,0,0;4.778,0,0;5.749,0,0;6.542,0,0;7.526,0,0;8.514,0,0;9.509,0,0;10.522,0,0;11.547,0,0;12.781,0,0;14.04,0,0;15.523,0,0;17.044,0,0;18.797,0,0;20.796,0,0;23.049,0,0;25.57,0,0;28.555,0,0;31.835,0,0;35.611,0,0;40.085,0,0;44.903,0,0;44.903,0,0"/><animateTransform attributeName="transform" additive="sum" type="scale" repeatCount="indefinite" dur="3.217s" keyTimes="0;.249;.254;.28;.285;.316;.321;.326;.332;.378;.383;.389;.394;.425;.43;.456;.461;1" values=".997,.997;.997,.997;.998,.998;.998,.998;1,.999;1,.999;1,1;1,.999;1,1;1,1;1,.999;1,1;1,.999;1,.999;.998,.998;.998,.998;.997,.997;.997,.997"/><animateTransform attributeName="transform" additive="sum" type="translate" repeatCount="indefinite" dur="3.217s" keyTimes="0;.228;.233;.238;.243;.249;.254;.259;.264;.269;.275;.28;.285;.29;.295;.3;.306;.311;.316;.321;.326;.332;.337;.342;.347;.352;.357;.363;.368;.373;.378;.383;.389;.394;.399;.404;.409;.414;.42;.425;.43;.435;.44;.446;.451;.456;.461;.466;.471;.477;.482;.487;1" values=".1,-.1;.1,-.1;.2,-.1;.15,-.1;.2,-.1;-.1,-.1;.05,-.05;0,-.1;0,-.15;-.1,-.15;-.05,-.15;-.1,-.1;-.05,-.1;-.05,-.1;-.05,-.15;0,-.15;-.15,-.15;-.05,-.15;-.1,-.15;-.05,-.15;-.05,-.1;.05,-.1;-.05,-.05;-.1,-.1;-.05,-.1;-.05,-.1;0,-.1;-.05,-.1;.05,-.1;0,-.15;-.1,-.2;-.05,-.1;-.05,-.1;0,-.15;-.05,-.1;-.05,-.15;0,-.1;-.05,-.15;.05,-.1;-.05,-.05;.05,-.1;-.05,0;.05,-.1;.05,-.05;-.05,-.1;-.1,-.05;-.05,-.15;-.1,-.1;-.05,0;-.1,.05;-.05,.05;0,.05;0,.05"/><g transform="matrix(1.434 0 0 1.434 0 0)" id="Layer23_0_FILL"><path fill="#FFF" stroke="none" d="M8.3 -.95Q8.3 -4.75 5.55 -7.5 2.75 -10.25 -1.05 -10.25 -4.9 -10.25 -7.6 -7.5 -10.35 -4.75 -10.35 -.95 -10.35 2.95 -7.6 5.65 -4.9 8.4 -1.05 8.4 2.4 8.4 5 6.15L5.45 6.6 5.45 7.7 12.6 14.85 14.7 12.7 7.6 5.55 6.45 5.55 6 5.15Q8.3 2.5 8.3 -.95M3.5 -5.45Q5.45 -3.6 5.45 -.95 5.45 1.75 3.5 3.65 1.65 5.55 -1.05 5.55 -3.7 5.55 -5.6 3.65 -7.5 1.8 -7.5 -.95 -7.5 -3.6 -5.6 -5.45 -3.7 -7.4 -1.05 -7.4 1.65 -7.4 3.5 -5.45Z"/></g></g><animate attributeName="display" repeatCount="indefinite" dur="3.217s" keyTimes="0;.223;.492;1" values="none;inline;none;none"/></g><g display="none"><use xlink:href="#block"><animateTransform attributeName="transform" additive="replace" type="translate" repeatCount="indefinite" dur="3.217s" keyTimes="0;.622;.627;.632;.637;.642;.648;.653;.658;.663;.668;.674;.679;.684;.689;.694;.699;.705;.71;.715;.72;.725;.73;.736;.741;.746;.751;.756;.762;.767;.772;.777;.782;.787;.793;.798;.803;.808;.813;.819;.824;.829;.834;.90699;.907;.912;.917;.922;.927;.933;.938;.943;.948;.953;.958;.964;.969;.974;.979;.984;.99;.995;1" values="0,0;0,0;0,.2;0,.6;0,1.3;0,2.2;0,3.35;0,4.8;0,6.65;0,8.85;0,11.3;0,13.9;0,16.45;0,18.85;0,21.05;0,22.95;0,24.7;0,26.25;0,27.65;0,28.9;0,30.05;0,31.1;0,32.1;0,33.1;0,34;0,34.9;0,35.75;0,36.55;0,37.35;0,38.1;0,38.8;0,39.5;0,40.15;0,40.8;0,41.4;0,41.95;0,42.5;0,43;0,43.45;0,43.9;0,44.3;0,44.65;0,45;0,45;0,48.4;0,50.8;0,53.25;0,55.7;0,58.15;0,60.6;0,63.05;0,65.5;0,67.95;0,70.4;0,72.85;0,72.2;0,71.55;0,70.95;0,70.3;0,69.65;0,69;0,68.4;0,68.4"/></use><animate attributeName="display" repeatCount="indefinite" dur="3.217s" keyTimes="0;.622;1" values="none;inline;inline"/></g><g display="none"><use xlink:href="#block" transform="translate(0 -74.45)"><animateTransform attributeName="transform" additive="replace" type="translate" repeatCount="indefinite" dur="3.217s" keyTimes="0;.622;.627;.632;.637;.642;.648;.653;.658;.663;.668;.674;.679;.684;.689;.694;.699;.705;.71;.715;.72;.725;.73;.736;.741;.746;.751;.756;.762;.767;.772;.777;.782;.787;.793;.798;.803;.808;.813;.819;.824;.829;.834;.844;.85;.855;.86;.865;.87;.876;.881;.886;.891;.896;.901;.907;.912;.917;.922;.927;.933;.938;.943;.948;.953;.958;.964;.969;.974;.979;.984;.99;.995;1" values="0,-74.45;0,-74.45;0,-74.25;0,-73.85;0,-73.15;0,-72.25;0,-71.1;0,-69.65;0,-67.8;0,-65.6;0,-63.15;0,-60.55;0,-58;0,-55.6;0,-53.4;0,-51.5;0,-49.75;0,-48.2;0,-46.8;0,-45.55;0,-44.4;0,-43.35;0,-42.35;0,-41.35;0,-40.45;0,-39.55;0,-38.7;0,-37.9;0,-37.1;0,-36.35;0,-35.65;0,-34.95;0,-34.3;0,-33.65;0,-33.05;0,-32.5;0,-31.95;0,-31.45;0,-31;0,-30.55;0,-30.15;0,-29.8;0,-29.45;0,-29.45;0,-28.95;0,-28.8;0,-28.65;0,-28.5;0,-28.3;0,-28.15;0,-28;0,-27.8;0,-27.65;0,-27.5;0,-27.3;0,-20;0,-17.6;0,-15.15;0,-12.7;0,-10.25;0,-7.8;0,-5.35;0,-2.9;0,-.45;0,2;0,4.45;0,3.8;0,3.15;0,2.55;0,1.9;0,1.25;0,.6;0,0;0,0"/></use><animate attributeName="display" repeatCount="indefinite" dur="3.217s" keyTimes="0;.622;1" values="none;inline;inline"/></g></g></svg>