<svg xmlns="http://www.w3.org/2000/svg" width="31" height="31" viewBox="0 0 31 31">
  <path id="Path_6508" data-name="Path 6508" d="M15.5-27.5a15.025,15.025,0,0,1,7.75,2.094,15.662,15.662,0,0,1,5.656,5.656A15.025,15.025,0,0,1,31-12a15.025,15.025,0,0,1-2.094,7.75A15.662,15.662,0,0,1,23.25,1.406,15.025,15.025,0,0,1,15.5,3.5,15.025,15.025,0,0,1,7.75,1.406,15.662,15.662,0,0,1,2.094-4.25,15.025,15.025,0,0,1,0-12a15.025,15.025,0,0,1,2.094-7.75A15.662,15.662,0,0,1,7.75-25.406,15.025,15.025,0,0,1,15.5-27.5Zm7.625,10.625a1.2,1.2,0,0,0-.219-1.094.737.737,0,0,0-.844-.156L7.125-12.312q-.812.25-.844.625t.656.562L10.75-9.937,19.625-15.5a.634.634,0,0,1,.5-.125q.188.063,0,.25l-7.187,6.5-.312,3.937a1.135,1.135,0,0,0,.812-.375l1.875-1.812L19.187-4.25q1.125.625,1.375-.625Z" transform="translate(0 27.5)" fill="#009bfd"/>
</svg>
