<svg xmlns="http://www.w3.org/2000/svg" width="32" height="26" viewBox="0 0 32 26">
  <path id="Path_6509" data-name="Path 6509" d="M28.687-18.5A14.426,14.426,0,0,0,32-21.937a14.1,14.1,0,0,1-3.75,1.062A6.513,6.513,0,0,0,31.125-24.5a13.352,13.352,0,0,1-4.187,1.562,7.422,7.422,0,0,0-2.156-1.5A6.261,6.261,0,0,0,22.125-25a6.339,6.339,0,0,0-3.25.875A6.423,6.423,0,0,0,16.5-21.719a6.507,6.507,0,0,0-.875,3.281,9.109,9.109,0,0,0,.125,1.5,18.166,18.166,0,0,1-7.531-2A18.1,18.1,0,0,1,2.25-23.812a6.282,6.282,0,0,0-.937,3.281,6.3,6.3,0,0,0,.812,3.156A7.281,7.281,0,0,0,4.25-15a6.178,6.178,0,0,1-2.937-.875v.125a6.292,6.292,0,0,0,1.5,4.125,6.612,6.612,0,0,0,3.75,2.312,8.331,8.331,0,0,1-1.75.188q-.562,0-1.187-.062A6.527,6.527,0,0,0,5.906-5.969,6.1,6.1,0,0,0,9.75-4.687,13.011,13.011,0,0,1,1.562-1.875Q.687-1.875,0-1.937A18.209,18.209,0,0,0,10.062,1,18.032,18.032,0,0,0,20.25-1.937,17.849,17.849,0,0,0,26.562-9a18.532,18.532,0,0,0,2.187-8.687A3.723,3.723,0,0,0,28.687-18.5Z" transform="translate(0 25)" fill="#009bfd"/>
</svg>
