<svg xmlns="http://www.w3.org/2000/svg" width="54.26" height="62" viewBox="0 0 54.26 62">
  <defs>
    <style>
      .cls-1 {
        fill: #1d3e46;
      }

      .cls-2 {
        fill: #31d280;
      }
    </style>
  </defs>
  <title>wallet-jsonfile</title>
  <g id="Layer_2" data-name="Layer 2">
    <g id="Layer_1-2" data-name="Layer 1">
      <g>
        <g id="Layer_2-2" data-name="Layer 2">
          <g id="Layer_1-2-2" data-name="Layer 1-2">
            <g>
              <rect class="cls-1" x="8.62" y="10.86" width="30.23" height="4.93"/>
              <rect class="cls-1" x="8.62" y="18.66" width="22.73" height="4.93"/>
              <path class="cls-1" d="M49.33,4.93V57.07H5.05V4.93H49.33M54.26,0H0V62H54.26Z"/>
            </g>
          </g>
        </g>
        <path class="cls-2" d="M41.45,37h-1V35a5,5,0,0,0-10,0v2h-1a2,2,0,0,0-2,2V49a2,2,0,0,0,2,2h12a2,2,0,0,0,2-2V39A2,2,0,0,0,41.45,37Zm-6,9a2,2,0,1,1,2-2A2,2,0,0,1,35.45,46Zm3.1-9h-6.2V35a3.1,3.1,0,1,1,6.2,0Z"/>
      </g>
    </g>
  </g>
</svg>
