<svg xmlns="http://www.w3.org/2000/svg" width="86.66" height="60.1" viewBox="0 0 86.66 60.1">
  <defs>
    <style>
      .cls-1 {
        fill: #1d3e46;
      }
    </style>
  </defs>
  <title>wallet-12word-iso</title>
  <g id="Layer_2" data-name="Layer 2">
    <g id="Layer_1-2" data-name="Layer 1">
      <path class="cls-1" d="M56.78,0c6.76,0,11.89,4.11,11.89,9.88a14.14,14.14,0,0,1-4.09,9.7l-6.93,7.6H68.32v8.07H45.89V27.8L57.33,15.22c1.46-1.58,2.1-2.74,2.1-4.18a2.79,2.79,0,0,0-2.85-2.82c-1.56,0-2.72.91-3.46,3.19L45,8.84C46,3.89,50.45,0,56.78,0ZM6.29,60.1a6.29,6.29,0,1,1,6.29-6.29A6.29,6.29,0,0,1,6.29,60.1Zm18.52,0a6.29,6.29,0,1,1,6.29-6.29A6.29,6.29,0,0,1,24.81,60.1ZM36,35.25H26.58V9.16l-5.27,2.9L18,5.94,27.82.59H36ZM43.33,60.1a6.29,6.29,0,1,1,6.29-6.29A6.29,6.29,0,0,1,43.33,60.1Zm18.52,0a6.29,6.29,0,1,1,6.29-6.29A6.29,6.29,0,0,1,61.85,60.1Zm18.52,0a6.29,6.29,0,1,1,6.29-6.29A6.28,6.28,0,0,1,80.37,60.1Z"/>
    </g>
  </g>
</svg>
