<svg xmlns="http://www.w3.org/2000/svg" width="34.125" height="24" viewBox="0 0 34.125 24">
  <path id="Path_6503" data-name="Path 6503" d="M34.375-20.25A28.243,28.243,0,0,1,35-15.125L35.062-12,35-8.875a28.575,28.575,0,0,1-.625,5.187A4.358,4.358,0,0,1,33.25-1.812,4.332,4.332,0,0,1,31.312-.687a44.455,44.455,0,0,1-7.625.625L18,0,12.312-.062A44.455,44.455,0,0,1,4.687-.687,4.332,4.332,0,0,1,2.75-1.812,4.358,4.358,0,0,1,1.625-3.687,28.575,28.575,0,0,1,1-8.875L.937-12q0-1.375.062-3.125a28.243,28.243,0,0,1,.625-5.125A4.332,4.332,0,0,1,2.75-22.187a4.332,4.332,0,0,1,1.937-1.125,44.455,44.455,0,0,1,7.625-.625L18-24l5.687.063a44.455,44.455,0,0,1,7.625.625,4.332,4.332,0,0,1,1.937,1.125A4.332,4.332,0,0,1,34.375-20.25ZM14.5-6.875,23.437-12,14.5-17.062Z" transform="translate(-0.938 24)" fill="#009bfd"/>
</svg>
